<svg id="Layer_1" data-name="Layer 1" xmlns="http://www.w3.org/2000/svg" viewBox="0 0 155.41 103.34"><path d="M149.45,2.75Z" transform="translate(0 0.03)" style="fill:#333"/><path d="M81.58,53.37Z" transform="translate(0 0.03)" style="fill:#333"/><path d="M93.59,74.45Z" transform="translate(0 0.03)" style="fill:#333"/><path d="M100.05,55.42Z" transform="translate(0 0.03)" style="fill:#333"/><path d="M115.67,69.11Z" transform="translate(0 0.03)" style="fill:#333"/><polygon points="59.94 21.2 59.92 21.2 59.92 21.2 59.94 21.2" style="fill:#333"/><path d="M70.48,8.38Z" transform="translate(0 0.03)" style="fill:#333"/><polygon points="146.04 87.59 146.04 87.6 146.04 87.59 146.04 87.59 146.04 87.59" style="fill:#333"/><path d="M145,98.43Z" transform="translate(0 0.03)" style="fill:#333"/><path d="M129,89.87Z" transform="translate(0 0.03)" style="fill:#333"/><path d="M105.62,38.29Z" transform="translate(0 0.03)" style="fill:#333"/><path d="M84.16,58.85Z" transform="translate(0 0.03)" style="fill:#333"/><path d="M88.19,69Z" transform="translate(0 0.03)" style="fill:#333"/><polygon points="79.78 81.78 79.77 81.77 79.77 81.77 79.78 81.78" style="fill:#333"/><path d="M80.77,68.39Z" transform="translate(0 0.03)" style="fill:#333"/><path d="M86.6,65.35Z" transform="translate(0 0.03)" style="fill:#333"/><polygon points="114.22 53.23 114.22 53.23 114.21 53.26 114.22 53.23" style="fill:#333"/><path d="M120.35,60.88a4.45,4.45,0,0,0,.59-.56l.27-.34.27-.37c.15-.21.29-.43.43-.64l.5-.72.88-1.17.43-.6c.14-.2.23-.35.38-.6s.29-.51.41-.76.22-.51.33-.77c.19-.53.35-1.07.49-1.62.07-.12,0-.23.07-.37a.79.79,0,0,0,.08-.42l.06-.45V47.67h0v-.23c0-.34,0-.67.08-1s.08-.67.13-1h0v0h0v-.1h0v-.08h0a5.09,5.09,0,0,1,.16-.75A1.08,1.08,0,0,0,126,44c.13-.35.26-.68.37-1a7.48,7.48,0,0,0,.29-1c.08-.39.16-.78.22-1.18s.12-.8.19-1.2h0v-.19h0c.06-.36.12-.75.19-1.08s.15-.66.23-1l.24-.94c.08-.37.15-.73.21-1.1A14.35,14.35,0,0,0,128,33.7V32h0v-.11c.1-.33.2-.66.29-1l.33-1.12h0c.11-.36.23-.71.35-1.06a15.68,15.68,0,0,1,.72-1.87c.34-.55.67-1.11,1-1.66l1-1.64.52-.77v4.79c0,.31,0,.61,0,.92s.07.61.07.92v1.13c0,.34-.06.67-.11,1s-.09.71-.14,1-.12.57-.18.88a5.19,5.19,0,0,0-.14,1v1.82a3.93,3.93,0,0,0,.06.48,2.81,2.81,0,0,0,.16.49,1.84,1.84,0,0,0,.5.7,1.52,1.52,0,0,0,.93.38,1.43,1.43,0,0,0,1-.37,1.79,1.79,0,0,0,.38-.56,4.68,4.68,0,0,0,.18-.48,3.55,3.55,0,0,0,.09-.47,3.15,3.15,0,0,0-.07-.92c-.07-.31-.16-.63-.26-.93a4.93,4.93,0,0,0-.41-.83,4.26,4.26,0,0,0-.57-.77,5,5,0,0,0-.41-.39,3.57,3.57,0,0,0-.38-.3v-.06l.12-.89a1.14,1.14,0,0,0,.06-.45v-.49a16.75,16.75,0,0,0-.11-1.87v-.94c0-.28,0-.57,0-.85s0-.56-.07-.83a7.42,7.42,0,0,1-.1-.79l-.17-.79a5.3,5.3,0,0,1-.1-.8v-.84s0,.09,0-.08a3.21,3.21,0,0,0,.11-.52l.08-.12.41-.54c.77-1,1.51-2,2.4-2.92s1.8-1.88,2.7-2.82a7,7,0,0,1,.76-.79c.32-.24.64-.48,1-.73l1.26-.92,1.32-.9A21.06,21.06,0,0,0,145.15,10l1.2-1.15c.39-.38.78-.75,1.14-1.14h0l.11-.09c.72-.54,1.45-1.06,2.17-1.62.4-.3.83-.57,1.26-.83l1.28-.8c.47-.29.95-.55,1.41-.85a7.44,7.44,0,0,0,.73-.52,3.05,3.05,0,0,0,.8-1,1.4,1.4,0,0,0-.07-1.4l-.07-.13a1.62,1.62,0,0,0-.92-.52,2.21,2.21,0,0,0-1.49.3c-.48.28-.95.58-1.4.9a10.67,10.67,0,0,0-1.39,1.1l-.41.53c-.72.73-1.43,1.46-2.1,2.22-.29.31-.51.68-.85,1s-.67.66-1,1c-.6.59-1.24,1.06-1.84,1.62a20.61,20.61,0,0,1-1.85,1.63c-.76.57-1.55,1.08-2.31,1.65l-1.82,1.42-.12.05c-.63.24-1.28.46-1.89.67s-1.23.44-1.81.67-1.14.51-1.71.75l-1.85.74-.84.36c-.27.11-.52.24-.78.36h-.1a.45.45,0,0,0-.14-.1.48.48,0,0,0-.17,0h-1l-.4-.06c-.56-.11-1.12-.23-1.67-.38-.25-.07-.51-.11-.76-.17l-.78-.21-.69-.24c-.23-.08-.45-.18-.68-.28h0l-.34-.36-.35-.45c-.17-.24-.34-.48-.5-.75s-.33-.54-.48-.81l-.21-.4c-.07-.16-.14-.32-.2-.48-.17-.46-.35-.93-.5-1.4l-.27-.84c-.07-.24-.15-.48-.24-.71h0L119,8.86h0c-.06-.16-.13-.31-.19-.45l-.15-.33-.24-.5a8.66,8.66,0,0,0-.7-1l-.12-.15a4.49,4.49,0,0,0-.76-.75,5.41,5.41,0,0,0-.76-.48L115.7,5l-.5-.22-.4-.17-.69-.26A7.77,7.77,0,0,0,111.67,4c-.59,0-1.22,0-1.8,0H109a5.43,5.43,0,0,1-.9,0l-.9.06-.93.06a16.52,16.52,0,0,1-1.86.07H103a4.47,4.47,0,0,0-.82.07,2.25,2.25,0,0,0-.44.14.57.57,0,0,0-.18.12l-.08.1a.24.24,0,0,0,0,.12.36.36,0,0,0,.12.38l.18.13.52.4.32.27.36.32.5.52c.16.17.3.34.45.52a15.23,15.23,0,0,0,1,1.15h0l.48.49h0l.07.13h0c.41.42.79.86,1.17,1.3l1.2,1.4c.39.44.78.89,1.16,1.35.19.22.38.44.59.65l.18.18.17.15.17.13.17.14c.26.17.52.33.79.48a6.52,6.52,0,0,0,.84.41l.43.17a1.55,1.55,0,0,0,.47.12,6.54,6.54,0,0,0,.88.18,16.8,16.8,0,0,0,1.74.17H118a3.21,3.21,0,0,1,.63-.06h.46l1.28-.11h0l1,.46c.32.15.65.3,1,.43l.58.19a2.85,2.85,0,0,0,.5.14c.36.08.71.14,1.08.19l.74.08.78.12h0l1.3.2h.39l-.41.17c-.45.2-1,.38-1.45.56-.76.25-1.54.46-2.32.67l-1.16.17c-.38.09-.77.16-1.16.24h0c-.8.15-1.61.29-2.41.45h0c-1.13.22-2.28.4-3.41.59l-1.76.27a14.14,14.14,0,0,1-1.71.17c-.77.07-1.53,0-2.32.07s-1.57.11-2.36.16h-5l-1.66.11c-.58,0-1.34,0-1.76,0s-1,.11-1.42.11l-.51-.06-.78-.09h-.51l-.15-.1h0a1.23,1.23,0,0,0-.32-.07l-.23-.19h0l-.06-.11-.14-.35a1.6,1.6,0,0,1-.11-.43v-.6c0-.3,0-.53.09-.88a5.71,5.71,0,0,0,.06-1,11.41,11.41,0,0,0-.06-1.85,11.35,11.35,0,0,0-.47-1.89,5.08,5.08,0,0,0-.4-.85,8.33,8.33,0,0,0-.51-.8V12l-.18-.19a2.44,2.44,0,0,0-.4-.32,6.12,6.12,0,0,0-.56-.31c-.18-.09-.34-.2-.52-.3l-.54-.27c-.25-.14-.48-.3-.72-.45a4.79,4.79,0,0,0-.78-.4,4,4,0,0,0-.45-.15A9.23,9.23,0,0,0,88,9.38L87.35,9A4,4,0,0,0,86,8.41a6.05,6.05,0,0,0-.83-.1H85l-1.23-.07h-.17a6.61,6.61,0,0,0-.89,0l-.91.08H80.6a2.12,2.12,0,0,0-.75.18,2.15,2.15,0,0,0-.91.75,5.69,5.69,0,0,0-.61,1,2.83,2.83,0,0,0-.23.57,2.58,2.58,0,0,0-.08.83,2.29,2.29,0,0,0,.14.78,2.5,2.5,0,0,0,.36.71,4,4,0,0,0,.48.61c.17.17.36.33.54.49l.35.34c.17.21.33.42.49.64l.13.23c.06.12.1.24.15.37a1.15,1.15,0,0,0,.59.56l-.66.21a3.7,3.7,0,0,0-.79.41,4.16,4.16,0,0,0-.71.61c-.19.2-.37.41-.56.62-.4.46-.8.92-1.19,1.39a6.46,6.46,0,0,0-.54.75,3.31,3.31,0,0,0-.39.83h0a4.6,4.6,0,0,0-.24,1.27,4.55,4.55,0,0,0,.16,1.37,8.61,8.61,0,0,0,.4,1.31,7.23,7.23,0,0,0,.7,1.12c.16.24.29.49.47.72a3.09,3.09,0,0,0,.67.63,2.88,2.88,0,0,0,.73.4,1.88,1.88,0,0,0,.42.14,2.66,2.66,0,0,0,.49.1,4.82,4.82,0,0,0,.93,0,6.84,6.84,0,0,0,.9-.08h.1l-.1.07a3.72,3.72,0,0,0-.33.45l-.28.41-.55,1a2.42,2.42,0,0,0-.23.58,1.89,1.89,0,0,0-.06.67,2,2,0,0,0,.55,1.13,4.57,4.57,0,0,0,1,.8,6.47,6.47,0,0,0,.91.55,2.63,2.63,0,0,0,1.06.29A3.34,3.34,0,0,0,85.28,34l1.11-.35a4.5,4.5,0,0,0,.9-.46l.13-.09h0c.57-.36,1.15-.7,1.71-1.08l.84-.59c.27-.19.54-.39.8-.6a8.61,8.61,0,0,0,.82-.78,4.31,4.31,0,0,0,.56-.89h0a1.18,1.18,0,0,0,.19-.11l.15-.18.15-.18c.17-.22.35-.44.51-.67A9.81,9.81,0,0,0,94,26.4c.11-.29.22-.58.31-.87a7.51,7.51,0,0,0,.21-.94c.06-.36.15-.83.15-1a4.34,4.34,0,0,1,0-.51,5,5,0,0,0,.08-.54v-.1h0l.29-.07.38-.09.29-.06h.53l.43.05c.6.05,1.2.05,1.8.05h.43l.78.06h-.07a7,7,0,0,0,1,.05h2.73c1.23,0,2.46,0,3.68-.11.63-.06,1.28-.16,1.87-.24s1.18-.13,1.77-.18l.94-.08c.37,0,.68-.11,1-.11.63-.09,1.25-.2,1.87-.3l3.67-.64c.61-.1,1.19-.22,1.82-.33s1.26-.22,1.89-.35l.9-.19,1-.26c.6-.17,1.2-.33,1.8-.52s1.18-.4,1.76-.64,1.17-.46,1.71-.72,1.09-.51,1.65-.73l1.82-.73c.6-.25,1.25-.55,1.77-.77s1.05-.4,1.58-.58c-.43.31-.77.6-1.3.92a17.57,17.57,0,0,0-1.53,1c-.46.35-.91.68-1.37,1-1,.66-2,1.36-3,2s-2.09,1.3-3.09,2c-1.48,1-2.84,2.2-4.26,3.3-.7.49-1.48,1.08-2.11,1.49s-1.26.82-1.88,1.24l-1.15.25a3.47,3.47,0,0,1-.7.14l-.81.26a8.22,8.22,0,0,1-1.09.11h-1.17l-2.3-.06h-1.74l-.54.06c-.77.09-1.51.23-2.27.37s-1.52.29-2.28.42l-1.06.16-1.09.14-1.24.16-.51.09-.5.07c-.21.05-.43.09-.64.16l-.63.19-.41.14-.52.19L96,31c-.2.08-.38.17-.57.26a18.1,18.1,0,0,0-2,1.05l-.5.3-.54.35c-.27.17-.55.35-.81.54l-1,.71-1,.79c-.39.32-.77.66-1.15,1l-.66.44c-.4.26-.82.55-1.22.76s-.81.39-1.22.56l-1.46.53c-.44.16-1,.32-1.44.45l-.74.26-.75.18c-.45.17-1,.34-1.45.47s-.87.25-1.31.35l-1.46.3-.74.13a3.59,3.59,0,0,1-.72.11H75c-.51.07-1,0-1.51.07a14.44,14.44,0,0,1-1.61.06h-1a2.32,2.32,0,0,0-.63-.15H69.8a1.37,1.37,0,0,0-.35.08h-1c-.45,0-.9-.05-1.35-.11a7.72,7.72,0,0,1-.83-.2L65.37,40a5.78,5.78,0,0,0-.92-.19H64a2.49,2.49,0,0,0-.72.14,3.38,3.38,0,0,0-1,.51,1.56,1.56,0,0,0-.37.4,1.23,1.23,0,0,0-.1,1.1,2.22,2.22,0,0,0,1.16,1.25,3.39,3.39,0,0,0,.48.17,2.32,2.32,0,0,0,.46.07h.48a3.56,3.56,0,0,0,.91-.17h.11a8.35,8.35,0,0,0,.89-.46l.84-.51.17-.09.23-.11.26-.11.35-.13h0l1.54-.53.31-.11h.53c.31,0,.61.08.92.08a7.06,7.06,0,0,0,.92,0l1.83-.15c.62-.06,1.24-.15,1.86-.23l1-.12c.29,0,.59-.07.88-.12.64-.11,1.26-.27,1.88-.44l1.87-.47h0l.5-.12h0l.39-.09c.29-.07.58-.15.86-.24l.93-.32.21-.07.25-.08.2-.13.38-.24.89-.56.13-.08h.08l-.2.2c-.55.53-1.14,1.08-1.61,1.62s-1,1.09-1.47,1.69-.91,1.26-1.35,1.85S81,44.44,80.53,45c-.28.4-.57.79-.86,1.18h0c-.44.58-.89,1.15-1.35,1.72l-.47.58-2.23.87-1.77.7c-.6.23-1.26.43-1.81.61s-1.12.33-1.69.49c-.4.1-.8.23-1.2.35H66.21l-.08-.08a.82.82,0,0,0-.2-.12,3.52,3.52,0,0,0-.4-.18L65.15,51h0l-.35,0-.49-.23-.93-.49L61.6,49.4l-1.08-.54c-.34-.17-.72-.36-1-.53s-.56-.34-.83-.52l-.87-.56c-.58-.36-1.15-.73-1.72-1.1L55,45.48l-1-.57-.27-.16c-.28-.18-.56-.36-.83-.55l-.82-.62c-.28-.21-.58-.38-.87-.57l-.8-.53h0a1.39,1.39,0,0,0,.14-.45,4,4,0,0,0,0-.49,6.74,6.74,0,0,0-.08-1,1.19,1.19,0,0,1-.07-.49c0-.18-.1-.36-.16-.54a9.11,9.11,0,0,0-.47-1c-.16-.28-.34-.55-.51-.85s-.35-.62-.52-.9-.46-.65-.57-.81-.27-.37-.36-.48a2.56,2.56,0,0,0-.28-.32c-.13-.12-.25-.24-.38-.34l-.43-.34a6.64,6.64,0,0,0-.92-.56,7.76,7.76,0,0,0-.91-.4c-.36-.13-.68-.25-1-.35L43.39,33a2.87,2.87,0,0,0-.5-.07h-.7a1.4,1.4,0,0,0-.29,0l-.31.09h0l-.59.15-.77.18-.81.21a8.83,8.83,0,0,0-1,.3l-.48.18-.22.09-.11.05a.22.22,0,0,0-.09.07.15.15,0,0,0-.07.13h-.72a3.56,3.56,0,0,0-.47.1,3,3,0,0,0-1.11.51h0a5.48,5.48,0,0,0-.75.6c-.25.23-.48.47-.7.71a4.24,4.24,0,0,0-.67.92,1.74,1.74,0,0,0-.19.54,2.81,2.81,0,0,0-.07.65v.64a3.09,3.09,0,0,0,0,.43V40l.06.57a5.53,5.53,0,0,0,.1.84,2.4,2.4,0,0,1,.07.52,2.77,2.77,0,0,1,.1.5,3.29,3.29,0,0,0,.42,1.13,4.27,4.27,0,0,0,.3.51,6.4,6.4,0,0,0,1,1.13l.37.34.23.2a2.75,2.75,0,0,0,.53.36,6,6,0,0,0,.81.38l.46.16c.31.1.62.18.94.26a3.5,3.5,0,0,0,.79.11h.15c.2.06.4.12.6.2l.38.12a3.15,3.15,0,0,0,.69.16l.74.06h1.48c.27,0,.53-.09.79-.15a7.89,7.89,0,0,0,.94-.3,5.74,5.74,0,0,0,.93-.46,3.24,3.24,0,0,0,.66-.51l.28-.26a9.44,9.44,0,0,0,1-1l.63-.72.33-.38.2-.2.18-.18h0l.22-.2h0a.3.3,0,0,1,.08-.08.06.06,0,0,0,0-.06l.1-.05.24-.12.69.46.82.52c.29.17.57.37.85.57l.85.62c.19.14.4.27.6.39h.12l1.27.73c.46.29,1,.59,1.46.9s1,.6,1.48.89l.88.54.94.54c.29.16.59.3.89.44l.87.41,1.82.92,1,.48c.29.14.59.26.89.39l.41.17h0l.13.06h0l.27.13h0a.42.42,0,0,0,.21.16.66.66,0,0,0,.28,0h1l-1,.31c-.74.23-1.35.44-2.22.67s-1.76.45-2.63.69h-.32l-.3.08h-.11c-.46.13-.92.29-1.37.43l-1.52.47c-.43.12-.85.26-1.28.37a1.22,1.22,0,0,0-.27,0,1,1,0,0,0-.33.14l-.11.06-.77.21h-.2l-.36.07h-2a10.5,10.5,0,0,1-1.54-.07c-.64-.09-1.27-.18-1.91-.24l-.56-.08-.58-.13c-.41-.11-.82-.23-1.23-.32L46,54.73l-.69-.08a8.69,8.69,0,0,0-1.25,0H42.8c-.61,0-1.22.06-1.82.12a11.13,11.13,0,0,0-1.81.35,11.25,11.25,0,0,0-1.72.59,4.06,4.06,0,0,0-.75.38,4,4,0,0,0-.47.34l-.57.45c-.31.25-.59.54-.88.82-.65.64-1.33,1.31-1.92,1.94s-1.15,1.28-1.71,1.93A15.8,15.8,0,0,0,30,63.08c-.37.55-.71,1.11-1.09,1.65-.11.15-.23.29-.36.44l-.2.17c-.21.15-.42.29-.63.45a.77.77,0,0,0-.23.21.44.44,0,0,0-.19.07.45.45,0,0,0,0,.23c.1.31.48.36.76.42l.73.2.83.27.78.27.7.26h0l.64.25.43.19h-.07l-.37.13-.34.12c-.13,0-.25.12-.37.18l-.55.28-.93.48-1,.52c-.34.18-.68.37-1,.57l-.56.35h-.1l-.28.06h-.25l-.28.07-.57.16h0l-.45.1-.45.08h-2c-.46,0-.91-.07-1.37-.13-.23,0-.46-.07-.69-.13h0a.82.82,0,0,1-.24-.41l-.06-.12L20,70.1a3.12,3.12,0,0,0-.15-.43,7.43,7.43,0,0,0-.37-.81c-.14-.28-.29-.55-.46-.82l-.51-.74c-.16-.22-.31-.45-.48-.66L18,66.55c-.22-.25-.46-.5-.68-.71s-.45-.41-.68-.61l-.73-.58-.69-.54-.39-.3c-.12-.09-.25-.17-.38-.25l-.87-.48a8.67,8.67,0,0,0-.82-.38l-.63-.2-.42-.12-.39-.1L10.18,62a13.27,13.27,0,0,0-1.76-.32H7.14l-1.76-.08-.94-.07-.82-.09H3.09l-.53-.08L1.9,61.3H1.39a2.49,2.49,0,0,0-.82.08.34.34,0,0,0-.21.14.27.27,0,0,0,0,.3A.91.91,0,0,0,.54,62l.43.42c.3.36.59.67.85,1a2.75,2.75,0,0,1,.19.28,3.45,3.45,0,0,1,.2.32h0c.29.53.55,1.09.81,1.64l.43.83c.07.13.14.27.22.4l.29.42.13.15a.18.18,0,0,0,0,.07l.1.12a1.82,1.82,0,0,0,.31.34c.24.21.47.43.71.63.47.4.94.78,1.47,1.17s1,.77,1.53,1.13c.26.19.53.36.79.53l.2.12.23.14.39.21.44.2.47.19c.29.11.58.2.87.29a8.46,8.46,0,0,0,1.8.37,9.36,9.36,0,0,0,1.08.16c.33,0,.67-.11,1-.11l.72-.07H17a7.49,7.49,0,0,0,1.48-.24h0l.43-.11h0l1.31-.35.52-.15.39-.11h0a3,3,0,0,0,.84.12l.94.1h1.13a.88.88,0,0,0,.23,0h.24l.29-.07c.23-.06.46-.14.68-.22l-.65.44c-.64.41-1.31.81-1.92,1.23s-1.19.88-1.78,1.32l-1.76,1.34-.44.37c-.13.12-.25.22-.39.36l-.42.42c-.13.12-.25.25-.37.38-.46.46-.93,1-1.4,1.46a.28.28,0,0,0-.28,0l-.38.18H13.13c-.65,0-1.33.13-1.94.18s-1.22.08-1.82.18a8.92,8.92,0,0,0-1.83.53,5.77,5.77,0,0,0-1.62,1L5.21,82l-.35.31-.39.37-.62.66c-.11.11-.22.23-.32.35l-.35.42c-.2.24-.47.56-.6.73s-.26.34-.38.52a4.48,4.48,0,0,0-.35.6c-.12.24-.25.54-.34.74s-.18.41-.26.62-.2.49-.25.64-.09.29-.14.43l-.09.27-.19.73h0a.33.33,0,0,0,0,.14.77.77,0,0,0-.07.34,2.66,2.66,0,0,0-.07.39l-.09.57a1.17,1.17,0,0,0-.07.49v1.83c0,.34,0,.66,0,1s-.05.73-.07,1,0,.5-.09.81a7.69,7.69,0,0,0-.1,1v.89H0V98H0v.15H0v.08H0v.32a1,1,0,0,0,0,.39,1.1,1.1,0,0,1,.05.39v.33h0c.06.46.1,1,.17,1.4a7.61,7.61,0,0,1,.07,1.26v.7a.26.26,0,0,0,.07.19.3.3,0,0,0,.17.12.45.45,0,0,0,.36,0,4.27,4.27,0,0,0,.44-.3l.34-.26.35-.25.32-.21.3-.19.38-.21.5-.25L4,101.4l.45-.17.38-.12c.28-.09.56-.16.85-.24h0l.57-.15h0l.93-.27.44-.16.46-.2.39-.2.28-.17.3-.21.41-.32c.12-.09.23-.2.35-.3s.23-.21.34-.32l.19-.18.32-.34.28-.3c.22-.25.43-.49.64-.75a9.43,9.43,0,0,0,.74-1.12l.24-.47c.14-.27.26-.55.39-.83l.2-.45.15-.36c.08-.19.16-.42.22-.56s.1-.28.15-.41l.12-.38.15-.5c.08-.37.16-.69.23-1a.29.29,0,0,0,.05-.19v-.06h0l.06-.23h0v-.18h0v-.08h0c.1-.32.19-.63.3-.94l.27-.85c.18-.6.34-1.21.47-1.82.07-.34.13-.67.2-1l.12-.51a2.46,2.46,0,0,0,.13-.5l.51-1.73c.09-.34.19-.67.27-1a6.91,6.91,0,0,0,.15-.91l.06-.46h0v-.25l.06-.23.09-.26c.07-.15.15-.29.23-.43h0a1.47,1.47,0,0,0,.1-.22l.8-.78.66-.65a6.31,6.31,0,0,1,.64-.6c.28-.22.56-.44.85-.65l.91-.67c.6-.43,1.18-.88,1.77-1.31l.74-.52,1-.59c.3-.19.61-.37.9-.57.63-.41,1.23-.87,1.84-1.3l.45-.32.36-.24c.15-.08.28-.17.42-.26l.49-.29.15-.09-.31.32-.61.69-.3.38a3.27,3.27,0,0,0-.28.37c-.08.13-.17.25-.26.38l-.26.43c-.17.28-.34.57-.49.85s-.29.56-.43.85c-.27.57-.54,1.19-.79,1.74s-.5,1.05-.8,1.62-.61,1.18-.86,1.73-.45,1.11-.66,1.67a1,1,0,0,0-.11.31c-.39.44-.74.94-1.2,1.44s-1,1-1.4,1.5l-.66.8c-.22.27-.43.51-.65.81s-.44.63-.62.92-.35.58-.51.88a32.66,32.66,0,0,0-1.81,4,14.19,14.19,0,0,0-.66,2,5.65,5.65,0,0,0-.17,1v.32a1.13,1.13,0,0,0,0,.26v.57a7.89,7.89,0,0,0,.11,1.09c0,.18.06.36.09.54a3.33,3.33,0,0,1,.11.53c.08.31.18.68.28,1s.19.66.29,1l.21.73.06.19a3,3,0,0,0,.1.32,1,1,0,0,0,.17.24A.79.79,0,0,0,17,102l-.32.23a.37.37,0,1,0,.4.62h0l.1-.08h0l.29-.21h0l1.08-.82h0l.36-.25.31-.14.35-.13A2.64,2.64,0,0,0,20,101a5.18,5.18,0,0,0,.84-.64q.38-.33.72-.69c.46-.5.88-1,1.29-1.5h0l.1-.12.26-.33h0l.14-.18v0c.22-.28.43-.55.64-.84s.42-.59.62-.89L25.2,95a7.65,7.65,0,0,0,.56-.91,7,7,0,0,0,.37-1,9.61,9.61,0,0,0,.26-1,3.9,3.9,0,0,0,.08-.57V89.87a6.43,6.43,0,0,0-.2-1.08c-.11-.33-.23-.67-.36-1a19.09,19.09,0,0,0-1-1.9c-.19-.36-.36-.73-.52-1.11a1.58,1.58,0,0,1-.18-.5,4,4,0,0,1-.15-.49,3.41,3.41,0,0,0-.1-.46,1.12,1.12,0,0,1-.06-.44h0a9.83,9.83,0,0,1-.08-1.21,1.31,1.31,0,0,0,0-.28v-.08h0l.06-.14c.1-.28.21-.55.33-.82s.25-.53.39-.81.3-.55.45-.82l.47-.86c.15-.27.29-.55.43-.82.28-.54.51-1.09.76-1.63.13-.3.28-.6.41-.89s.25-.47.42-.84.35-.68.53-1l.31-.51.2-.31.22-.32c.24-.33.5-.66.76-1h0c.07-.1.15-.19.23-.29L30,70l.17-.19h0l.75-.47h0l.31-.21a8,8,0,0,1,1-.6l.24-.12h0l.14-.06c.44.2.89.39,1.34.55a1.74,1.74,0,0,0,.56.18l.63.16a1.29,1.29,0,0,0,.58.09h1.73l.81-.09.69-.07.51-.06h.28l1.37-.19c.4-.06.79-.16,1.19-.25a7,7,0,0,0,1.07-.34,9.48,9.48,0,0,0,1-.52,8,8,0,0,0,1.07-.67h0l.11-.09h.06a8,8,0,0,0,1-.93,10,10,0,0,0,.83-1c.26-.35.5-.71.74-1.07l.36-.54c.12-.18.26-.35.39-.53v-.06a12,12,0,0,1,.84-1l.86-.9c.6-.64,1.2-1.28,1.82-1.91l1.4-1.56h0a8,8,0,0,1,.6-.56l.21-.11,1-.31a8.27,8.27,0,0,0,1.08-.41,7.56,7.56,0,0,0,1.07-.61l.13-.09,2.13-.59h0l.74-.19-.5.34-.48.34-1.33.93c-.15.11-.31.21-.47.31l-.44.38-.61.53-1.11,1a11.8,11.8,0,0,0-1,1c-.67.71-1.31,1.44-2,2.13l-1.1,1.07c-.32.35-.67.7-1,1.06-.64.7-1.25,1.42-1.92,2.09-.37.37-.73.75-1.1,1.13l-.18.11-.35.4c-.15.16-.28.33-.42.5l-.34.44-.38.32c-.24.21-.49.4-.74.59h0l-.42.31c-1,.71-2,1.47-3,2.14q-.31.21-.63.39l-.63.37-1.2.62c-.4.19-.81.36-1.22.52h0l-.28.11h0l-.42.16c-.36.14-.72.28-1.07.44l-1.13.46c-.45.17-1,.35-1.45.49l-.75.2c-.27.08-.54.15-.8.25h.06l-.25.1h0c-.21.08-.42.19-.62.29l-.35.2a1.55,1.55,0,0,0-.6.59,1.12,1.12,0,0,0-.14.4,1.24,1.24,0,0,0,0,.47,1.5,1.5,0,0,0,.46.83,1.55,1.55,0,0,0,.65.3,1.67,1.67,0,0,0,.63,0h.06a3.22,3.22,0,0,0,1.16-.41,3,3,0,0,0,.43-.29c.12-.11.24-.23.35-.35s.44-.54.65-.81c.37-.45.77-.88,1.17-1.31l.57-.57,1-.44c.57-.24,1.15-.48,1.72-.75.36-.17.72-.36,1.08-.56h.09l.1-.06h.15c.55-.34,1-.65,1.55-1s1-.73,1.5-1.11l1.49-1.17.12-.12c-.09.14-.2.28-.3.42l-.91,1.27c-.3.41-.58.86-.85,1.26s-.53.81-.79,1.22-.52.8-.8,1.21-.56.82-.83,1.24-.5.86-.73,1.31c-.45.86-.89,1.74-1.31,2.62s-.89,1.93-1.32,2.91h0a3.25,3.25,0,0,1-.25.49c-.12.18-.24.34-.37.51h0l-.39.46-.4.4h0c-.32.37-.67.67-1,1l-.21.23a2.69,2.69,0,0,0-.27.32,3.12,3.12,0,0,0-.59,1.39,8.21,8.21,0,0,0-.15,1.4v.72A1.66,1.66,0,0,0,34,91a1.3,1.3,0,0,0,.42.54.82.82,0,0,0,.26.1.81.81,0,0,0,.31,0h.19l.14-.07a1.75,1.75,0,0,0,.33-.28,2.34,2.34,0,0,0,.33-.49l.2-.38c.1-.23.19-.47.27-.7s.15-.47.21-.71c.12-.47.22-1,.32-1.41s.2-.9.32-1.35.26-1,.38-1.45l.25-.36c.11-.2.22-.4.31-.61.2-.43.37-.86.56-1.3l.29-.68h0l.19-.42h0v-.06h0l.12-.28h0l.46-1c.14-.31.3-.62.45-.92l.45-1,.24-.48c.1-.17.18-.35.29-.53s.22-.36.34-.54l.4-.62c.28-.42.54-.8.82-1.26s.6-1,.86-1.36.54-.81.81-1.22c.4-.57.83-1.16,1.24-1.7s.82-1.09,1.24-1.63l.53-.63c.14-.17.29-.33.44-.5l.44-.46.53-.54.54-.53.54-.58c.32-.34.64-.68.94-1.06s.67-.75,1-1.11.65-.64,1-1L54,61.4c.36-.36.6-.66,1-1.1s.81-.87,1.24-1.29h0l.93-.86.46-.42.28-.26.14-.13.2-.2.17-.14.15-.25h0c.25-.17.49-.36.73-.54h0l1.13-.82.27-.19.54-.36c.22-.15.47-.28.7-.41h.09l2-.42.93-.19.45-.12.55-.14L67.84,53c1.18-.3,2.35-.58,3.54-.84a27.3,27.3,0,0,0,3.42-1L76,50.72l-.45.55c-.45.58-1,1.14-1.45,1.73l-.34.41c-.45.6-.9,1.21-1.34,1.82l-1.28,1.85c-.43.59-.85,1.18-1.27,1.78l-1.25,1.8c-.32.47-.66.94-1,1.4h-.09a.2.2,0,0,0-.09.09,2.62,2.62,0,0,0-.22.25l-.31.35-.15.17H66.7a2.38,2.38,0,0,0-.45.38,4,4,0,0,0-.32.4h0l-.43.21c-.46.19-1,.35-1.46.5l-.34.08-.37.07H60.54c-.37,0-.73.08-1.1.13l-1,.15H57.06q-.37,0-.75,0a9.13,9.13,0,0,0-1.06.27l-.23.08-.32.14a4.37,4.37,0,0,0-.49.23,1.18,1.18,0,0,0-.19.11l-.32.18c-.16.09-.31.2-.46.3l-.43.31c-.16.11-.31.24-.46.35l-.75.62-.46.42-.43.39c-.25.23-.49.46-.72.7l-.37.39c-.12.14-.25.28-.37.43l-.51.64c-.18.23-.38.51-.52.7s-.28.39-.41.59l-.48.69-.26.33a5.31,5.31,0,0,1-.35.41c-.21.23-.4.45-.65.7s-.5.5-.77.74l-.76.68-.42.39-.44.44A4.13,4.13,0,0,0,43,77c-.07.12-.13.25-.19.38l-.15.34a1.79,1.79,0,0,0-.13.32,2,2,0,0,0-.1.26,2.17,2.17,0,0,0-.11.42,4.55,4.55,0,0,0-.11.74h0v.16h0v.18h0l-.09.74h0c0,.1.08.18,0,.3s0,.21-.08.35a4.17,4.17,0,0,1-.13.42c-.05.12-.11.23-.17.35a2.61,2.61,0,0,1-.17.28.92.92,0,0,0-.16.31.36.36,0,0,0,.12.34.36.36,0,0,0,.4,0l.41-.23.42-.22.4-.19h0l.22-.09a2.83,2.83,0,0,1,.41-.14,2.4,2.4,0,0,1,.58-.12h3l.33-.06.46-.1.56-.14,1.41-.4c.31-.09.67-.17,1-.24a4.88,4.88,0,0,1,1-.18,5.25,5.25,0,0,0,.55-.09h.23l.31-.08.25-.07.29-.08.53-.19c.18-.06.35-.14.52-.21l.49-.22c.3-.14.51-.28.88-.46s.84-.45,1-.55.32-.19.48-.3l.46-.32c.29-.2.56-.41.85-.63s.57-.45.85-.69l.41-.38.21-.21.18-.19.33-.38.39-.47c.24-.29.47-.6.69-.9a6.8,6.8,0,0,0,.73-1.25A5.25,5.25,0,0,0,63.1,72a2.87,2.87,0,0,0,.11-.57,3.35,3.35,0,0,1,.11-.55,4.31,4.31,0,0,1,.19-.61h0c.08-.17.15-.34.23-.5l.24-.46.37-.65h0l.16-.28h0a.09.09,0,0,1,0-.07h0V68.2h0l.16-.28h0c.15-.26.36-.65.43-.8s.14-.3.2-.45l.18-.42h0a.17.17,0,0,1,0-.1h0v-.08h0c.18-.44.37-.89.59-1.31l.22-.36c.06-.1.13-.19.2-.29l.28-.34.06-.08.28-.25c.24-.24.46-.46.72-.75s.51-.59.76-.9c.46-.56.84-1,1.35-1.72s1-1.35,1.51-2l-.11.17c-.07.2-.11.34-.18.59a3,3,0,0,0-.17.76l-.18.74h0v.11h0v.11h0c-.14.45-.29,1-.4,1.45a8.28,8.28,0,0,0-.13,1h0l-.64,1-.58.66c-.09.15-.19.29-.28.45h0v.07h0v.07h0v.12h0c-.13.22-.25.46-.36.67s-.22.43-.32.65c-.22.48-.43,1-.63,1.48a8.63,8.63,0,0,0-.28.86,4.34,4.34,0,0,0-.14.6,5.17,5.17,0,0,0-.08.63c0,.18,0,.37,0,.55a1.49,1.49,0,0,0-.07.55h0a3,3,0,0,1-.1.72,2.2,2.2,0,0,0-.09.76,5.48,5.48,0,0,0,0,.81v.76A9.31,9.31,0,0,0,67,75.89c.14.46.31,1,.46,1.46A12.23,12.23,0,0,0,68,78.76c.21.46.44.89.68,1.35s.5.9.75,1.34l.39.64.37.59c.18.28.37.6.52.84s.29.48.43.72h0a1.28,1.28,0,0,0,.11.2v.07h0c.23.44.46.88.66,1.34.1.23.19.48.29.7s.19.44.3.65a4.06,4.06,0,0,0,.38.63.26.26,0,0,0,.26.13.38.38,0,0,0,.29-.23,1.6,1.6,0,0,0,.1-.23l.06-.17c.16-.47.37-1,.5-1.4s.25-.76.39-1.14c.07-.2.14-.38.22-.59s.16-.41.25-.61h0l.12-.28h0a.62.62,0,0,0,.11-.25h0l.27-.65c.08-.22.15-.44.22-.67.13-.48.24-1,.34-1.48,0-.22.09-.43.14-.68a3.93,3.93,0,0,0,.13-.75,7.59,7.59,0,0,0,.08-1.07v-.71h0a2.55,2.55,0,0,1,0-.73,2.62,2.62,0,0,0,.07-.74,9.52,9.52,0,0,0,0-1.51,5,5,0,0,0-.32-1.39c-.08-.22-.19-.45-.27-.66s-.17-.41-.26-.61c-.34-.9-.55-1.85-.9-2.75v-.12l-.06-.14h0c-.18-.45-.38-.9-.59-1.35s-.41-.89-.64-1.35a13.57,13.57,0,0,0-.74-1.35c-.28-.43-.57-.85-.84-1.27l-.2-.3-.09-.12-.06-.07a.72.72,0,0,0-.24-.14.41.41,0,0,0-.22,0v-.11l.06-.27a.4.4,0,0,0,.08-.29h0c.15-.46.31-.92.44-1.39s.24-1,.36-1.47a2.46,2.46,0,0,0,.11-.45h0c.07-.26.19-.63.23-.77a1.66,1.66,0,0,0,.14-.41l.12-.29.21-.48L73,56l.46-.62c.37-.52.72-1,1.1-1.52.09-.13.18-.25.28-.37h0l1.37-1.56c.43-.53.85-1.07,1.28-1.61l.56-.21c.56-.19,1.12-.39,1.69-.56L81.49,49c.53-.16,1-.33,1.53-.55a7.76,7.76,0,0,0,1.56-.72c.56-.36,1.12-.67,1.68-1L87.57,46c.55-.29,1-.57,1.55-.83l1.68-.82c1.08-.56,2.19-1.06,3.25-1.56s2.15-.93,3.21-1.44,2.08-1,3.14-1.51,2.08-1.15,3.15-1.73l3.23-1.73c1.06-.57,2.06-1.16,3.06-1.73l1.61-.88,1.61-.87a16.42,16.42,0,0,0,1.6-.94c.47-.34,1-.66,1.47-1,1-.7,2-1.4,3-2.07l1.55-1c.48-.33,1-.69,1.48-1.05s1-.75,1.44-1.14L125,24.57l.12-.1a15.68,15.68,0,0,1,1.32-.95c.54-.33,1-.67,1.54-1,1-.67,2-1.33,3-2s1.88-1.38,2.88-2.05l.41-.27c-.78.77-1.49,1.61-2.19,2.45-.42.5-.83,1-1.22,1.55s-.74,1.08-1.09,1.63-.68,1.1-1,1.66-.7,1.1-1,1.66a14.78,14.78,0,0,1-1,1.56l-1.11,1.55-1.08,1.49-.2.27,0-.07c-.33.41-.66.79-1,1.16a.16.16,0,0,0-.1.08h0l-.2.15a5.88,5.88,0,0,1-.56.37,1,1,0,0,1-.39.16c-.51.18-1,.34-1.51.49s-1,.3-1.53.42H119l-.76.13a4.29,4.29,0,0,0-.71.16,5.54,5.54,0,0,0-.68.25h-.15l-.39-.1h.06c-.35-.11-.69-.21-1.06-.3s-.74-.17-1.12-.23a7.46,7.46,0,0,0-1.15-.11,4.48,4.48,0,0,0-.82.1c-.23.06-.44.14-.66.22a4.91,4.91,0,0,0-.5.28,2.07,2.07,0,0,0-.44.34,2.14,2.14,0,0,0-.43.56,1.64,1.64,0,0,0-.21.61,1.39,1.39,0,0,0,.08.61,2.18,2.18,0,0,0,.43.79,1.27,1.27,0,0,0,.53.38,1.84,1.84,0,0,0,.66.12,2.48,2.48,0,0,0,.76-.1,7.59,7.59,0,0,0,1-.38,7.77,7.77,0,0,0,1-.5,8.91,8.91,0,0,0,1-.62l.9-.61.2-.14h.11a2.7,2.7,0,0,0,1.24-.3h0l.17-.07c.53-.2,1.08-.32,1.63-.48s1.09-.36,1.62-.56h0l.27-.11h0l.45-.18-.93.91A23.2,23.2,0,0,1,119.36,37l-.91.66h0l-.09.05h0c-.44.31-.82.62-1.29,1s-.94.76-1.4,1.15L114.29,41c-.41.36-1,.83-1.26,1.06s-.6.43-.91.64l-.94.69-.46.32h0l-.16.06c-.21.08-.43.14-.65.2l-.24.16h0l-.25,0c-.23-.06-.45-.12-.68-.2l-.5-.19h0c-.32-.14-.66-.28-1-.4a11.12,11.12,0,0,0-1.08-.33,22.21,22.21,0,0,0-2.26-.49,15.91,15.91,0,0,0-2.18-.1,7.14,7.14,0,0,0-1.13-.06,8.78,8.78,0,0,0-3.34.43l-1.07.33-.55.18c-.19.06-.38.15-.58.22a11.13,11.13,0,0,0-1.08.57,9.23,9.23,0,0,0-.89.6,6.76,6.76,0,0,0-.8.71c-.26.25-.52.5-.76.77-.45.53-1,1.07-1.45,1.62l-.48.56-.49.56c-.17.19-.34.38-.52.56s-.36.36-.53.55l-.73.65-.9.82c-.57.47-1.16,1-1.74,1.47-.27.22-.53.44-.79.68a6.75,6.75,0,0,0-1,1,5.76,5.76,0,0,0-.67,1.15c-.16.35-.3.68-.45,1-.26.59-.51,1.18-.76,1.78a8.25,8.25,0,0,1-.37.8.41.41,0,0,0-.08.24.23.23,0,0,0,.13.21.39.39,0,0,0,.3,0l.22-.06c.3-.08.6-.14.9-.2l.81-.19,1-.23c.28-.06.42,0,.84-.14A5.85,5.85,0,0,1,86,58.89a5.21,5.21,0,0,1,.79,0c.46.06.91.17,1.36.26l1.1.21c.74.12,1.48.28,2.22.41l.54.07a5,5,0,0,0,1.45,0,5.91,5.91,0,0,0,2.69-1.23c.59-.42,1.31-1,1.75-1.42s1-.78,1.44-1.15l.41-.32h0l.18-.14h0l.15-.12h.06c.61-.48,1.2-1,1.78-1.48.28-.25.53-.48.81-.76s.56-.59.82-.87.5-.57.75-.85l.74-.84c.23-.27.47-.51.71-.8s.49-.58.74-.86l.8-1,.76-.75c.26-.25.53-.49.8-.73l.8-.75.4-.38c.26-.15.53-.29.79-.45.5-.29,1-.63,1.5-1a17.37,17.37,0,0,0,1.54-1.09c.45-.39,1-.8,1.45-1.2s.95-.8,1.43-1.18l1.2-.93h-.06l.17-.14h.12l1.49-1.13c.26-.2.51-.39.76-.6s.49-.43.73-.65c.45-.41.88-.85,1.32-1.27l1.37-1.32c.42-.43.8-.82,1.23-1.33s.82-1,1.22-1.58c.63-.86,1.26-1.71,1.88-2.57l-.13.43c-.11.3-.2.61-.3.92l-.22.71c0,.15-.1.33-.14.45a1.3,1.3,0,0,0-.13.36,1,1,0,0,0,0,.24.67.67,0,0,0,0,.2v.55c0,.4-.07.8-.07,1.2,0,.18,0,.37,0,.56a1.81,1.81,0,0,0-.06.56h0l-.06.36c-.07.35-.14.68-.22,1l-.27,1.06a20.2,20.2,0,0,0-.41,2l-.24,1.59c0,.23-.11.53-.14.7a3,3,0,0,0-.12.5l-.11.12c0,.06-.11.11-.17.17h0l-.18.16a1.56,1.56,0,0,1-.2.16l-.3.2-.37.25c-.23.15-.47.29-.71.43l-1.41.84-1.43.85-1.37.84-.72.45c-.24.14-.47.29-.69.44a11.39,11.39,0,0,0-1.27,1.13c-.31.29-.62.58-.9.9a7.7,7.7,0,0,0-.78,1.09h0l-.06.1h0c-.28.46-.53.94-.78,1.46s-.45,1-.69,1.52a15.26,15.26,0,0,0-.71,1.54c-.18.52-.32,1.05-.47,1.59l-.24.84-.21.78a6.67,6.67,0,0,0-.19.8,6.47,6.47,0,0,0-.11.87,15.69,15.69,0,0,0,0,1.68,13.27,13.27,0,0,0,.13,1.67l.12.83a4.91,4.91,0,0,1,.13.75.31.31,0,0,0,.09.22.25.25,0,0,0,.16.1.3.3,0,0,0,.23,0l.36-.17.72-.36,1.49-.78.69-.37.75-.38.43-.22h0c.48-.27,1-.55,1.48-.83s1-.56,1.44-.86Zm-11-16.21-.09.06h0l-.68.39-.65.35c-.25.14-.53.27-.76.39s-.48.23-.72.33l-.83.33c-.3.11-.6.21-.91.3l-.32.09-.32.1c-.37.1-.76.22-1.14.34-.67.21-1.33.45-1.88.65l-.6.19a12,12,0,0,0-1.17.42c-.43.19-1,.39-1.43.63-.2.11-.45.23-.67.37s-.46.31-.73.52c.31-.07.66-.15,1-.21h.11l.85-.14a14,14,0,0,0,1.81-.42c.49-.15,1-.33,1.49-.51l.35-.12c.6-.22,1.19-.41,1.75-.57l.54-.15c.42-.12.82-.24,1.27-.39s.87-.31,1.27-.48l.4-.16.13-.06h0c-.54.5-1,1-1.48,1.42l-.49.52-.33.32-.72.75-.1.1c-.37.38-.75.79-1.13,1.2l-.13.13-.38.41-.35.37-.24.24c-.52.55-1.24,1.13-1.67,1.55s-1,.83-1.43,1.24l-.27.23-1.06.93c-.69.61-1.4,1.23-2.13,1.81-.17.13-.32.23-.46.32H95l-.11.06h0a5.77,5.77,0,0,1-.56.27,4.44,4.44,0,0,1-.61.22h0a5.17,5.17,0,0,1-.54.11H92l-1.11-.18-.77-.14-.38-.06-.67-.11-.36-.06-.61-.1-.51-.09h-.15l-.4-.06a7.06,7.06,0,0,0-1.3,0l-.84.09h-.45l-.31.1-.23.05-.34.09h-.12l-.71.16-.29.08L82,59h0l-.67.17-.23.06h0v-.09c.09-.16.16-.32.24-.48l.31-.64.18-.38c.27-.53.61-1.24,1-1.93h0c.12-.2.24-.4.38-.59a3.07,3.07,0,0,1,.29-.34,25.71,25.71,0,0,1,2.34-1.69c.4-.33.82-.66,1.22-1l.91-.76.25-.23.07-.05.13-.12.27-.24h0c.27-.25.53-.51.79-.78l.11-.13.26-.27.23-.26.23-.26.39-.44c.36-.42.73-.84,1.1-1.25l.87-.93a9.84,9.84,0,0,1,.82-.76,10.18,10.18,0,0,1,.94-.62l.14-.08.27-.15h0l.14-.06.33-.16h.08l.49-.19.66-.2c.39-.13.86-.27,1.31-.4a2.53,2.53,0,0,1,.53-.12,3.11,3.11,0,0,1,.44-.08h.1l.53-.06a3.53,3.53,0,0,1,.46,0h3.75c.52.07,1,.17,1.46.26l.58.13h.21l.31.07.31.07h0c.45.11.9.25,1.34.38H108l.62.17.27.06h.43Zm6.38-8.77-.61.4-.65.43-.61.36a9,9,0,0,1-1,.45,2.81,2.81,0,0,1-.49.16h-.92l-.1-.16h-.06l-.07-.06-.07-.09h0a.64.64,0,0,1-.08-.14,1.26,1.26,0,0,1-.13-.26l0-.17v-.17h0a.14.14,0,0,1,0-.09c0-.06,0,0,0-.06l.08-.14a.94.94,0,0,1,.12-.18,1.07,1.07,0,0,1,.14-.16l.16-.13.25-.16h0l.3-.14.4-.12.33-.06h.51l.48.06a19.79,19.79,0,0,1,2,.43h.07ZM70.39,63.55h0c0,.5-.09,1-.15,1.5h0a2.21,2.21,0,0,0-.06.64c0,.24,0,.43,0,.81s.07.77.07,1.14V68a7.83,7.83,0,0,1,.08,1.42v1.44a5.29,5.29,0,0,0,.09.8,6.33,6.33,0,0,1,.12.76l.09.44c0,.2.11.5.11.59v.3a5.08,5.08,0,0,1,.13.81v.89l.06.6v.09c0,.22,0,.37.08.64a6.06,6.06,0,0,1,.13.76l.09.38a.81.81,0,0,0,0,.22v-.33h0v-2.5a3.76,3.76,0,0,0,0-.75,4.09,4.09,0,0,1,0-.78c0-.46-.11-.93-.18-1.37a6.53,6.53,0,0,1-.13-.87V70c0-.44-.07-.91-.07-1.44l-.06-.79v-.33a7.8,7.8,0,0,1-.06-1.12V64.93c0-.51.13-1,.13-1.51v-.15h0l.19.3.42.62.44.65.32.55v.07c.23.43.49.94.67,1.31s.42.87.65,1.37c.15.3.29.59.45,1s.32.85.48,1.34l.06.21.06.17c.11.3.23.65.37,1l.2.45c.08.19.16.36.24.57a1.82,1.82,0,0,1,.19.57,4.59,4.59,0,0,1,.1.51v.71a5.6,5.6,0,0,0-.06,1V78.5a4,4,0,0,0-.11.58v.15c0,.25-.13.58-.17.74a2,2,0,0,0-.11.47v.43a4.7,4.7,0,0,1-.12.51v.2l-.23.68c-.1.23-.19.47-.29.71l-.28.7-.27.76-.31,1c0,.15-.11.33-.14.45s-.09.24-.12.35a1.46,1.46,0,0,0-.1.32l-.09.27h0l-.06.2h0a1.69,1.69,0,0,1-.13-.31v-.07h0l-.21-.57c-.1-.28-.21-.56-.32-.84-.19-.45-.4-.9-.64-1.39l-.4-.74h0c-.23-.42-.54-.92-.79-1.29s-.49-.76-.73-1.14l-.09-.14-.49-.78h0c-.13-.22-.27-.45-.39-.68V79h0l-.25-.47c-.08-.15-.14-.31-.21-.46-.12-.33-.24-.67-.34-1a1.2,1.2,0,0,1-.13-.39v-.11c-.07-.19-.13-.39-.19-.58l-.22-.72a2,2,0,0,0-.1-.47.76.76,0,0,1-.06-.36V73a2.75,2.75,0,0,1,0-.5c0-.23.06-.43.1-.68a4.85,4.85,0,0,0,.11-.75v-.24h0v-.06a1.21,1.21,0,0,0,.07-.5v-.23a2.32,2.32,0,0,1,.06-.38c0-.11,0-.23.07-.34v0h0a5.76,5.76,0,0,1,.18-.59h0c.08-.22.17-.45.26-.67l.11-.27c.15-.38.31-.77.47-1.15l.09-.22v-.11h0v-.14a1.08,1.08,0,0,0,.08-.19l.06-.12c0-.08.1-.15.1-.23v-.07a1,1,0,0,1,.07-.15v-.13l.12-.24.1-.16.31-.59.36-.71h.17ZM64.26,65l.47,0h0c-.27.24-.58.51-.92.78l-.77.55h0c-.25.16-.48.34-.72.51h-.06c-.29.21-.59.45-.82.64s-.5.41-.76.65l-1.51,1.42c-.47.45-1,.89-1.54,1.35l-.18.14-.35.24h0c-.27.21-.52.38-.78.56s-.55.35-.78.49l-.6.32-.87.48-.78.46-.71.43h0l-1.76,1-.16.08a5.84,5.84,0,0,0-.76.45,5.53,5.53,0,0,0-.7.58h0a7.27,7.27,0,0,0,.91-.17,3.39,3.39,0,0,0,.53-.2l.34-.17.1-.06c.62-.35,1.23-.68,1.84-1l.86-.48.94-.52c.17-.1.35-.18.53-.27l.35-.17c.29-.15.59-.32.89-.5a18.35,18.35,0,0,0,1.71-1.22h0c.25-.21.51-.41.75-.63l.74-.69c.41-.39.81-.77,1.22-1.14l.39-.35.59-.51c.17-.15.35-.29.53-.43l.08-.07h0a1.12,1.12,0,0,0-.17.41l.06-.08c.17-.22.35-.45.56-.69h0l.31-.23.37-.28A6.88,6.88,0,0,0,64.4,66c.12-.12.23-.24.35-.35l.09-.09h0l-.11.25h0l0,.12h0V66h0c-.1.25-.18.44-.3.68s-.25.48-.35.65l-.31.54-.31.53c-.16.26-.34.55-.47.78s-.25.45-.34.65a4.6,4.6,0,0,0-.25.61,8.56,8.56,0,0,0-.24,1v.32a.61.61,0,0,0-.07.35c-.06.2-.13.4-.2.59a8.08,8.08,0,0,1-.37.79c-.1.16-.2.32-.31.47a5.15,5.15,0,0,1-.32.45l-.06.08-.07.09-.45.57v.06l-.21.26-.13.14-.22.26-.1.1a2.09,2.09,0,0,1-.22.2h0l-.3.28-.12.09-.28.25-.23.18-.35.54-.46.36-.5.37-.48.33a8.69,8.69,0,0,1-1,.65h-.07l-.75.39-.17.08-.3.13-.31.14-.16.06h0l-.18.06-.21.08h-.23l-.21.06-.25.06-.26.06h-.49L51,80.53c-.65.12-1.29.3-1.9.47h-.64l0-.39-.46.12-.48.09H44.44a3.2,3.2,0,0,0-.62.09,3.86,3.86,0,0,0-.58.17,3.47,3.47,0,0,0-.55.26h0a.6.6,0,0,0,.06-.19c0-.17.07-.44.13-.57a.93.93,0,0,0,.06-.4v-.59A3.47,3.47,0,0,0,43,79l.09-.54v-.06a1.53,1.53,0,0,0,.12-.38c.14-.3.3-.66.48-1a2.66,2.66,0,0,1,.29-.45,5.88,5.88,0,0,1,.53-.59l.28-.28.48-.46.38-.36.09-.08.3-.29.1-.1.13-.14a.8.8,0,0,1,.13-.13l.4-.46c.26-.29.47-.53.65-.76.31-.4.6-.81.84-1.15l.43-.62.38-.52h0a1,1,0,0,1,.13-.16l.19-.26.11-.13.26-.32c.07-.09.15-.17.22-.25h0v-.06l.12-.13.3-.3.15-.16h0l.17-.16c.28-.26.56-.53.86-.79l.31-.27.31-.27.16-.12.07-.07.12-.09.15-.12h0l.08-.06.08-.06.32-.24.16-.12.25-.18.16-.1.11-.07H54l.13-.09h0l.19-.1.18-.11h.07l.15-.07h.17l.18-.08.18-.07h.06l.55-.18a2.09,2.09,0,0,1,.53-.11h3.4l.72-.06h2.16l.55-.08h.49l.53-.2ZM36.37,85.57h0c-.1.36-.18.74-.26,1.11v.17c-.09.41-.18.81-.26,1.22v.18a9.84,9.84,0,0,1-.24,1l-.11.35-.09.24v.1a6.54,6.54,0,0,1-.3.59,1.07,1.07,0,0,1-.15.22l-.12.13h-.32v0h0l-.06-.1h0a.14.14,0,0,1,0-.09h0v-.2a3.23,3.23,0,0,1,0-.44h0v-.18h0c0-.31.1-.65.1-1v-.29a.29.29,0,0,1,0-.13v-.06a5,5,0,0,1,.2-.62c0-.08.13-.16.13-.24l.1-.14.09-.13c.13-.15.26-.29.4-.43l.48-.43.18-.16.36-.31Zm-3-8a1.09,1.09,0,0,1-.25,0l-.29.18a3.26,3.26,0,0,1-.38.18l-.18.06h-.6L31.52,78h-.07l0-.28a.19.19,0,0,1,0-.13h0v-.1a.09.09,0,0,1,0-.07h0v-.15h0l.1-.09.14-.09h0a6.56,6.56,0,0,1,.76-.35l.37-.13.43-.12.91-.26c.21-.06.43-.13.66-.22h0l-.16.12c-.12.11-.24.22-.35.34l-.3.35-.28.33c-.1.11-.2.23-.32.35l-.1.1h0ZM22.63,82.88h0l-.06.18c-.05.15-.08.31-.12.44a1.46,1.46,0,0,0-.11.41V84a6.79,6.79,0,0,0-.16.79,8.1,8.1,0,0,0-.15,1v.06c0,.27-.11.66-.14.82a2.89,2.89,0,0,0-.11.47l-.06.26v.16h0c-.06.23-.14.53-.2.69s-.16.46-.19.52a.5.5,0,0,0-.08.2h0l-.43.51h0c-.05.12-.1.22-.16.35s-.07.15-.19.38-.23.48-.38.8c-.06.14-.13.28-.19.43l-.15.32-.09.19c-.09.2-.18.4-.26.6h0l-.09.21h0l-.06.13h0l-.12.31v.1a1.28,1.28,0,0,0-.14.4l-.15.47c0,.17-.06.24-.13.52s-.13.58-.18.86h0c-.05.28-.11.57-.17.85v.24c-.05.22-.08.36-.14.67a5.11,5.11,0,0,0-.15.94v.47h0v.39a1.09,1.09,0,0,0,.21.7,1.44,1.44,0,0,0,.22-.67c0-.3.09-.59.09-.89h0v-.22c0-.27.1-.57.16-.9a1.67,1.67,0,0,0,.1-.43l.09-.43c0-.17.08-.37.11-.51a2,2,0,0,0,.08-.4c.07-.34.14-.66.23-1v-.11l.06-.21V94a2.25,2.25,0,0,1,.08-.24v-.11l.09-.25.15-.36c.25-.59.53-1.17.76-1.66l.05-.11c.12-.26.24-.51.37-.77l.14-.27c.09-.17.18-.34.26-.52A11.68,11.68,0,0,0,22,87.93c.08-.28.16-.61.22-.89a4.22,4.22,0,0,0,.15-.91v-.3c.05-.31.09-.6.16-1a11.37,11.37,0,0,1,.29-1.3c.13-.43.27-.87.42-1.31h0v.37c.05.32.13.82.17,1a4.58,4.58,0,0,0,.14.53l.17.49c.06.18.13.35.2.51a3.76,3.76,0,0,0,.2.46c.14.31.29.59.44.94s.35.77.44,1,.14.44.21.67.17.5.21.68.05.33.12.58a2.87,2.87,0,0,1,.07.77V91q0,.3,0,.6c0,.22-.08.44-.14.65v-.08c-.1.34-.21.67-.34,1-.07.16-.14.31-.22.46h0v.13c-.27.41-.58.82-.87,1.21L24,95l-.23.31c-.24.3-.47.61-.7.91l-.73.9-.63.77c-.09.11-.19.24-.31.37l-.35.42H21c-.18.21-.39.43-.65.69l-.27.27c-.16.16-.33.3-.5.44l-.22.15-.26.12a1.87,1.87,0,0,0-.32.15,2.65,2.65,0,0,0-.6.38l-.45.36c-.14.12-.28.24-.43.35h-.06v0h0l-.08-.12h0c-.06-.17-.1-.34-.15-.51v-.19a1.94,1.94,0,0,1-.11-.43c-.08-.36-.17-.68-.25-1l-.15-.59c-.07-.25-.13-.51-.18-.77l-.12-.64v-.14h0v-.1a2.32,2.32,0,0,1-.06-.64.21.21,0,0,1,0-.11.89.89,0,0,1,0-.23v-.83a1.22,1.22,0,0,1,0-.27v-.12h0l.09-.49a1.53,1.53,0,0,0,.07-.29,2.86,2.86,0,0,1,.07-.28c.07-.25.15-.49.22-.74l.21-.59.08-.2c.15-.4.32-.8.48-1.18V91l.05-.11h0c.17-.4.33-.75.48-1.07l.42-.89c.21-.41.43-.83.71-1.31l.3-.52h0c.11-.19.23-.37.34-.53s.22-.32.33-.46l.77-1h0c.21-.25.43-.52.68-.78l.47-.48c.08-.08.17-.16.25-.25h0l.52-.55Zm-3-12.06h-.18L18,70.37l-.42-.16L17,70l-.46-.18h0l-1-.48-.15-.07-1-.46h-.13c-.27-.12-.5-.23-.72-.35l-.24-.13c-.14-.07-.29-.16-.44-.22a1.71,1.71,0,0,0-.38-.13,1.92,1.92,0,0,0-.41,0,2.8,2.8,0,0,0-.41,0l-.42.07a1.23,1.23,0,0,0,.43.15l.55.19.12.06h0l.17.08.39.2.19.1.36.18c.31.15.63.28.94.4l.28.11c.28.13.58.27.9.44l.82.39c.57.25,1.07.46,1.81.73s1.31.46,1.85.62h.2l-.85.19h-.14l-.78.17-.8.43H16.29l-.71,0-.67.09h-.05l-.52.06h-.53l-.72-.06-.52-.09-.39-.1h-.13l-.38-.12-.42-.14c-.25-.08-.64-.23-.84-.32l-.57-.28c-.18-.09-.25-.14-.52-.3s-.53-.34-.8-.51l-.67-.47-.11-.08c-.51-.34-1-.72-1.51-1.12l-.55-.42-.15-.12-.12-.1L5,68.09,5,68l-.17-.15-.14-.14-.07-.08h0l-.22-.27h0l-.12-.16v-.13a1,1,0,0,1-.11-.17l-.08-.13L4,66.63c-.14-.26-.35-.69-.42-.83s-.13-.27-.19-.41L3.15,65v-.12c-.11-.24-.23-.5-.37-.74l-.24-.41c-.08-.13-.17-.25-.25-.36h0l-.14-.18-.48-.55-.27-.29-.06,0h.12c.25,0,.49.06.74.06l.62.1L4,62.61H5.9l1.18,0H8.9l.63.1.59.12.42.1h.21L11,63h.15l.34.08.34.09.32.08h.11a4.25,4.25,0,0,1,.69.23c.31.14.61.31.89.47l.14.07.1.06.26.16h.06a.38.38,0,0,1,.13.09l.09.07.09.07.59.51.74.63.31.26c.32.32.7.65,1.05,1l.31.35.07.08a2,2,0,0,1,.17.23h0l.55.78a8.28,8.28,0,0,1,.52.79h0a10.34,10.34,0,0,1,.48,1,1.16,1.16,0,0,1,.12.34v.11a1,1,0,0,1,.05.16ZM15.24,80h.35l-.41.4-.45.46-.15.16c-.45.45-.9.92-1.37,1.36l-.31.27c-.43.4-.88.81-1.3,1.24l-.37.38h0c-.14.14-.26.29-.4.45l-.25.32-.1.12c-.07.1-.15.19-.22.28l-.11.14c-.21.26-.43.53-.66.79l-.72.83c-.38.42-.76.84-1.13,1.27l-.21.24,0,.06L7.24,89a1,1,0,0,0-.11.17,2,2,0,0,0-.26.78,2.64,2.64,0,0,0,.44-.23l.26-.2a2.44,2.44,0,0,0,.27-.29l.48-.53.21-.24c.13-.13.25-.27.38-.41L9,87.92c.09-.1.19-.2.28-.31.25-.26.57-.62.75-.83s.31-.35.54-.64.47-.58.69-.88l.21-.26.09-.11.21-.23.1-.11h0l.81-.83.27-.25.14-.13.36-.34-.34-.06c.38-.36.89-.88,1.26-1.25s.75-.74,1.11-1.08h0V81a1,1,0,0,0-.05.37v.29c0,.14-.06.3-.08.41a2.09,2.09,0,0,0-.08.34h0v.18c-.1.34-.19.67-.29,1-.05.17-.09.26-.16.51s-.15.5-.22.76h0l-.06.21v.2h0a1.75,1.75,0,0,0-.1.44v.17a.7.7,0,0,0-.09.41v.19c-.09.46-.22,1-.3,1.29s-.2.68-.27.91-.14.46-.22.69v.17h0v.06c-.09.25-.17.5-.24.76l-.13.5a.54.54,0,0,0-.09.36v.37a2.33,2.33,0,0,0-.08.36h0V92h0V92h0v.08h0v.23h0a2.25,2.25,0,0,0-.08.24v.18a2,2,0,0,1-.08.22,1.14,1.14,0,0,0-.13.35l-.13.33-.09.23-.15.33c-.07.17-.15.34-.23.51L12,95l-.13.26-.06.12-.27.49c-.16.26-.33.5-.51.74l-.22.27-.52.6-.22.23-.23.23a3.7,3.7,0,0,1-.28.28l-.12.11-.14.94-.15.11-.07.06-.23.18a4.45,4.45,0,0,1-.51.33l-.12.08h0l-.43.22H7.33l-.61.2-.76.23-.49.14H4.88l-.23.08-.37.14-.15.06-.22.1h-.1l-.21.1-.41.21-.2.11H2.83l-.2.11c-.12.09-.2.13-.38.25s-.36.25-.55.4h0l-.12.08-.23.18-.16.1h0v-.25a2.94,2.94,0,0,0,0-.42,4.51,4.51,0,0,0,0-.52v-.46a7,7,0,0,1-.13-.92C1,100,1,100,1,99.78a4.17,4.17,0,0,1-.08-.59v-.28h0v-.67a.54.54,0,0,1,0-.18V96.29l0-.54a17.63,17.63,0,0,0,.15-1.82V91.14l.07-.48.06-.34v-.18a2.88,2.88,0,0,0,.11-.49l.09-.41.11-.38.05-.19.14-.42v-.18l.12-.33L2,87.36l.09-.2.15-.35.08-.17a8.38,8.38,0,0,1,.5-1,4.53,4.53,0,0,1,.3-.46l.1-.12h0c.27-.35.55-.68.83-1l.23-.28.33-.35.17-.19s.1-.15.15-.15l.15-.15.15-.16.17-.15.21-.2.1-.08.31-.28.47-.4L7,81.31l.27-.19.3-.17a2.31,2.31,0,0,1,.35-.18l.36-.15h0l.36-.12h0l.29-.08H9l.39-.08.39-.07h0l.86-.08h1l1.08-.09.76-.08,1.16-.08h.65ZM53.7,56.47h0l-.18.05h-.17c-.75.21-1.49.44-2.2.7a19.58,19.58,0,0,0-2.24,1c-.72.35-1.37.74-2,1.12l-.88.53-.87.47-.52.28c-.53.27-1,.56-1.53.86l-.38.22-.13.08c-.23.13-.46.26-.7.38l-.55.28-.24.11-.28.13-.16.07-.31.13h-.08l-.76.32h-.07l-.42.26-.18.07-.59.19c-.33.08-.68.15-1.13.23H36.9l-1,.17H34l-.32.09-.23.06-.19,0h-.08l-.33.09-.17.07-.12.09a.35.35,0,0,0-.08.42v.06a.34.34,0,0,0,.34.12h.1l.11,0h0c.27-.11.56-.19.83-.27l.17,0,.35-.1.29-.08H36.3l.43-.07.62-.12h.16A8.67,8.67,0,0,0,39.07,64l.68-.29.43-.19.58-.25.58-.24,1.12-.52c.29-.14.57-.3.85-.45l.21-.11,1.06-.57.57-.29.42-.21.19-.1c.29-.15.58-.3.86-.46l1.09-.64.58-.34.3-.17h.07c.3-.16.64-.34,1-.51l1-.43,1.3-.49.74-.24h.1c-.25.22-.37.32-.73.68l-1,1c-.31.31-.61.63-.9.94l-.8.9h0l-.39.48a6.12,6.12,0,0,0-.4.49l-.13.17-.25.36-.39.59-.21.34-.12.2-.08.15c-.08.13-.15.26-.24.38l-.33.48c-.16.22-.34.45-.52.67l-.08.1-.19.21a2.39,2.39,0,0,1-.22.23l-.1.11-.42.37-.29.21-.26.15h0l-.71.37-.75.35-.46.15h-.07c-.29.08-.59.13-.88.19h-.24l-.45.08h-.28L39.67,68c-.58,0-1.15.12-1.74.18h-3l-.26-.07-.31-.1h-.1c-.23-.07-.45-.16-.67-.25h-.08l-.64-.25c-.36-.15-.83-.31-1.15-.43s-.66-.22-1-.32h-.05l-.35-.11-.79-.24-.81-.23H28.6A2,2,0,0,0,29,65.9a4.19,4.19,0,0,0,.39-.45,4.07,4.07,0,0,0,.33-.48c.19-.29.38-.6.56-.9V64a11.32,11.32,0,0,1,.65-1L31,62.8l.14-.18.22-.27.12-.15c.18-.22.38-.44.56-.65l.16-.18c.42-.48.77-.87,1.1-1.22l.32-.33c.37-.38.78-.77,1.28-1.26l.3-.29.37-.35L36,57.6l.26-.21.07-.06h0l.17-.13c.24-.18.48-.37.74-.53a2.68,2.68,0,0,1,.42-.19c.27-.11.52-.21.77-.29l.24-.08L39,56l.28-.08h0l.39-.1.76-.16.36-.06h.43l.85-.06h3.66l.54.11c.38.1.75.21,1.15.35h.07A5,5,0,0,0,48,56l.65.15.82.12.41.06H50a11.71,11.71,0,0,0,1.19.14,5.61,5.61,0,0,0,.82,0h.72a5.39,5.39,0,0,0,.79-.12h.29Zm-4.19-14.8h0a9.75,9.75,0,0,0-1.37-.59,8.56,8.56,0,0,0-1-.24,4.2,4.2,0,0,0-1-.06h-.27l.54.2.36.17.42.21h0l.14.08.56.3.56.26.26-.06.27.13h0l-.23.12-.29.17-.24.13h-.06a1.35,1.35,0,0,0-.26.15l-.1.06-.14.1c-.16.1-.3.2-.45.28h0l-.3.14c-.25.09-.44.16-.63.21l-.35.07h-1l-.15,0h-.08a.06.06,0,0,0-.06,0h0v-.17a.61.61,0,0,1,0-.19,1.13,1.13,0,0,1,0-.26.74.74,0,0,1,0-.21.74.74,0,0,1,0-.21.62.62,0,0,1,.07-.19.21.21,0,0,1,0-.11,3.46,3.46,0,0,1,.22-.31l.12-.15h0a1.33,1.33,0,0,0,.14-.19.89.89,0,0,0,0-.23,1.31,1.31,0,0,0-.06-.27,1.19,1.19,0,0,1-.08-.2l-.16-.41a1.46,1.46,0,0,1-.11-.36,3.29,3.29,0,0,1-.09-.43v-.38a1.41,1.41,0,0,1,0-.29.4.4,0,0,0,0-.23h0v0a1.09,1.09,0,0,1,.08-.15l.07-.11h0l.11-.09.1-.06.24-.12.16-.08a1,1,0,0,0,.35-.16l.21-.18h.54l.19.07.22.08.3.16a3.9,3.9,0,0,1,.36.25l.24.22.21.25h0l.11.14h0q.27.36.51.75c.13.25.25.5.36.76a5.53,5.53,0,0,1,.2.66v.06a1.55,1.55,0,0,0,.07.23l.13.33h0ZM40,46.53h0l.25-.14h0l.33-.21.1-.06L40.9,46l1.22-.88c.36-.27.72-.53,1.09-.77l.27-.17h0l.23-.16h0l.06.09a1.06,1.06,0,0,0,.33.26l.25.1.25.07a4.43,4.43,0,0,0,.51.06h.8a5.23,5.23,0,0,0,.77-.23l.38-.16a2,2,0,0,0,.39-.24l.34-.28.33-.27c.12-.08.24-.16.37-.23h0l-.32.29-.07.07-.1.09c-.22.2-.43.39-.65.61l-.16.15h0c0,.05-.16.1-.16.16h0l-.07.07h0c-.16.16-.34.32-.51.47l-.31.28-.39.33-.43.27a6.11,6.11,0,0,1-.58.27h0a6.75,6.75,0,0,1-.76.25,3.08,3.08,0,0,1-.71.14h-.09l-.45.07H40.77l-.42-.09-.22-.07ZM36.88,35.09h1.73l.61.07h0l.52.11.37.09h.09c.27.07.54.17.81.27l.77.31h.09c.56.24,1.14.47,1.74.68l.87.32.36.11h.1l.19.06.23.07h0l-.1.06-.24.11-.17.07-.22.13a1.22,1.22,0,0,0-.34.3,1.7,1.7,0,0,0-.34.67,2.09,2.09,0,0,0-.08.5A4.19,4.19,0,0,0,44,40a4.91,4.91,0,0,0,.15.51c.05.16.11.32.17.49v.1h0a3.55,3.55,0,0,0-.23.31,2.16,2.16,0,0,0-.26.47,1.46,1.46,0,0,0-.12.5,2.44,2.44,0,0,0,0,.54,2.9,2.9,0,0,0,.06.41h0a1.2,1.2,0,0,0-.33.13c-.28.16-.52.32-.76.47l-.77.52-.83.55-.44.29-.39.23-.27.13-.27.13-.22.07h-.76l-.34-.07-.28-.07H38l-.41-.11-.49-.15-.43-.16a5.39,5.39,0,0,1-.48-.25,3.28,3.28,0,0,1-.38-.27l-.15-.12-.15-.13-.19-.19-.1-.09c-.17-.18-.34-.36-.5-.56a.64.64,0,0,1-.1-.13h0a3.84,3.84,0,0,1-.32-.5l-.09-.15h0a4.66,4.66,0,0,1-.22-.45,1.7,1.7,0,0,1-.1-.32,2.36,2.36,0,0,1-.13-.63v-.44a.67.67,0,0,1,0-.2l-.07-.56-.06-.56V37.69a.61.61,0,0,1,0-.19l.06-.16c0-.08.12-.16.12-.24l.19-.27v0h0c.18-.22.38-.42.57-.62h0L34.7,36h0l0-.06h0a5,5,0,0,1,.5-.41l.24-.16a1.43,1.43,0,0,1,.24-.16l.14-.07L36,35.1l.3-.1Zm12.66,6.22h0a1.63,1.63,0,0,1-.11-.23,1.39,1.39,0,0,1-.14-.42l-.18-.52c-.13-.32-.26-.6-.4-.88s-.31-.55-.51-.87a2.43,2.43,0,0,0-.24-.32L47.91,38a3,3,0,0,0-.35-.36l-.42-.32-.4-.21h0a1.92,1.92,0,0,0-1-.15h-.17a7.46,7.46,0,0,1-.83-.31l-.8-.34c-.67-.28-1.17-.53-1.67-.77l-.89-.41L41,35h0a1.21,1.21,0,0,0-.39-.14l-.49-.15-.49-.14h0l-.37-.08-.52-.07h-.35c.28-.1.53-.18.78-.25.44-.11.9-.19,1.44-.28L42,33.62h1l.52.11a18.74,18.74,0,0,1,2,.66l.56.27.34.22.38.28c.13.1.26.22.38.33a3.17,3.17,0,0,1,.3.34h0c.13.17.26.33.37.5v.06h0c.18.25.34.51.5.78l.07.14.3.54.16.27c.07.13.15.26.23.39.14.28.32.66.37.79a2.7,2.7,0,0,0,.14.4.7.7,0,0,1,.07.37c0,.33.06.67.07,1v.13Zm17.94,0a5.45,5.45,0,0,0-.55.25,4.17,4.17,0,0,0-.46.26h0l-.49.3-.48.29-.41.06-.33.1h-.94l-.23,0-.27-.1-.14-.07L63,42.3l-.11-.1-.09-.11h0a1.37,1.37,0,0,1-.13-.2,2,2,0,0,1-.1-.21v-.21a.06.06,0,0,1,0-.06v-.15h0l.06-.09.08-.08.1-.09a1.51,1.51,0,0,1,.26-.18l.13-.07.29-.13h1a6.14,6.14,0,0,1,.85.19l.48.14.43.12.43.11.49.08h.35Zm17.33-2.81-.13.08h0l-.28.07-.2.07-.33.1-.3.09c.3-.1.59-.18.88-.29Zm30-9.19c.21,0,.43-.1.64-.16l-.48.24a20.75,20.75,0,0,1-2,1.28c-1.06.57-2.15,1.13-3.21,1.66s-2,1.05-3.06,1.62-2.18,1.1-3.3,1.66-2.23,1.15-3.34,1.73c-2.07,1.08-4.23,1.93-6.33,2.93-1.09.51-2.15,1-3.21,1.6l-1.64.89-1.61,1c-.6.38-1.2.81-1.76,1.19s-1.13.73-1.72,1.07L83,46.5c-.26.14-.55.25-.82.38l-.71.29-.75.26-1.3.43c.31-.43.67-.85,1-1.29.73-.94,1.44-1.89,2.18-2.82.39-.48.8-1,1.18-1.43s.78-.89,1.18-1.32l.64-.63c.27-.27.55-.53.83-.79.44-.44.89-.86,1.44-1.32s1.13-1,1.67-1.46,1-.83,1.54-1.23,1.09-.8,1.66-1.17l.88-.56.79-.47c.33-.18.66-.36,1-.53l1.13-.52c.35-.14.7-.28,1.06-.4l.47-.17.59-.17.56-.14.51-.1,1.12-.17c1.12-.13,2.24-.27,3.34-.49l1.67-.32.9-.18.86-.15a9.53,9.53,0,0,1,1-.11l.68-.06h.57a21,21,0,0,1,2.24-.08,16.09,16.09,0,0,0,2.18-.3l.58-.13ZM92.62,27.43h0v-.29a2.69,2.69,0,0,0,.07-.61c0-.26.08-.66.11-.79a2.54,2.54,0,0,1,.11-.38c.06-.16.15-.36.19-.47s.08-.2.13-.32.09-.24.14-.37a1.27,1.27,0,0,0,.15-.44,3.3,3.3,0,0,1,.19-.43l.1-.18c.07-.1.15-.19.22-.28l.2-.21.09-.09h0v.1a.86.86,0,0,0-.06.23c0,.08,0,0,0,.24s-.14.49-.18.64a1.84,1.84,0,0,0-.13.44v.14l-.12.42c0,.19-.11.36-.17.54A16.83,16.83,0,0,1,93,26.89c-.09.16-.18.31-.28.46Zm-9.41.9a2,2,0,0,0,.24-.33h0l.27-.08.53-.15.9-.29.4-.16q.44-.18.84-.39c.27-.14.56-.31.78-.45s.43-.3.64-.46l.1-.09.42-.33.28-.22c.49-.38,1-.8,1.4-1.18l.09-.09.58-.5a3.15,3.15,0,0,1,.57-.45l.88-.49c.37-.21.69-.38,1-.53a3.45,3.45,0,0,1,.48-.2L94,22h.08l-.1.09h0l-.12.1h0l-.08.06-.14.11a3.35,3.35,0,0,0-.43.41,3.16,3.16,0,0,0-.44.64l-.12.26-.06.13-.06.14-.26.54-.21.45a4.65,4.65,0,0,0-.32,1.42v.16c0,.34-.1.67-.16,1h0v.23c0,.22-.07.46-.12.67s-.1.41-.16.6l-.26.43a3.21,3.21,0,0,1-.19.31,4,4,0,0,1-.26.32,11.64,11.64,0,0,1-.88.84l-.37.32h0c-.22.19-.46.37-.69.55h0l-.7.49h0l-.3.19-.55.36h0l-.3.19-.25.1q-.37.16-.75.3h0a8.78,8.78,0,0,1-1,.29l-.38.05h-.6l-.21-.06-.26-.11a3.34,3.34,0,0,1-.4-.25l-.14-.1a10.86,10.86,0,0,1-1-.75,2.73,2.73,0,0,1-.23-.25h0c-.06-.07-.16-.15-.16-.22l0-.24-.06-.15v-.54a1.21,1.21,0,0,1,0-.18,1.6,1.6,0,0,1,.1-.23c.15-.27.32-.54.49-.79v-.06l.09-.14h0l.15-.22.16-.23.08-.11c.07-.09.14-.2.22-.29l.08-.07.16-.12.11-.08a2.09,2.09,0,0,0,.22-.2ZM79.79,17.6l.25-.18.43-.25c.17-.08.36-.15.58-.23a9.13,9.13,0,0,1,1.06-.27l.4-.07h.41a4.68,4.68,0,0,1,.53,0l.43.12c.26.06.52.13.77.21h0l.24.09.34.16.48.3c.24.17.47.34.69.52l.33.25.45.38.24.2.4.32.59.51.06.06h0c.1.09.21.19.33.28l.22.27a3.79,3.79,0,0,0,.34.2,3.55,3.55,0,0,0,.44.21l.28.13c.45.2.91.41,1.37.59a8.09,8.09,0,0,0,.83.28l.3.08h0l-.83.44c-.26.14-.5.26-.72.4a5.64,5.64,0,0,0-.63.46l-.7.54h0c-.45.39-.9.77-1.37,1.13L88,25l-.35.26c-.25.2-.51.39-.77.57a9.81,9.81,0,0,1-1,.56l-.68.3-.76.28c-.9.27-1.7.48-2.45.63a5.91,5.91,0,0,1-.89.1h-.74l-.49-.07-.33-.1a2.65,2.65,0,0,1-.42-.18l-.26-.16c-.12-.08-.23-.17-.34-.26a2.37,2.37,0,0,1-.27-.28,1,1,0,0,1-.15-.2L78,26.27l-.26-.4c-.06-.09-.13-.17-.2-.26l-.2-.28-.22-.39L77,24.61c-.11-.35-.21-.73-.31-1.16v-.14h0v-.39a4.86,4.86,0,0,1,0-.54,3.09,3.09,0,0,1,.08-.59c.06-.21.12-.41.18-.59l.16-.36.32-.51c.26-.34.54-.68.82-1l.14-.17.24-.29c.24-.29.49-.59.75-.87A4.4,4.4,0,0,1,79.79,17.6Zm7.66-7.68.7.53.44.45v0c.18.21.34.43.5.65l.25.34c.1.13.19.26.29.38l.51.68.06.11.07.1.09.17v.16l0,.11a1.46,1.46,0,0,1,.07.19h0c.17.56.32,1.15.46,1.81l.15.88v.41c0,.18.06.38.1.56a2.74,2.74,0,0,1,.13.55,4.1,4.1,0,0,0,.2.59c.08.21.19.44.29.65s.19.39.29.56.2.32.3.46l.22.3a3.64,3.64,0,0,0,.51.53h0a.34.34,0,0,0-.33.1h0a5.47,5.47,0,0,1-1-.28l-1-.42-.38-.16c-.24-.09-.48-.2-.72-.31l-.43-.25c-.24-.18-.48-.37-.7-.56l-.71-.55-.63-.49-.39-.33-.3-.26c-.19-.16-.38-.29-.58-.43l-.14-.11c-.13-.09-.26-.16-.4-.24a3,3,0,0,0-.41-.19l-.45-.16a3.45,3.45,0,0,0-.43-.12h-.07a4.94,4.94,0,0,0-.93-.12,5.08,5.08,0,0,0-.87,0H82l-.07-.06a1.17,1.17,0,0,0-.34-.2l-.1-.05-.29-.2h0l-.06-.06h0L81,15.56a.18.18,0,0,1-.07-.17,3.18,3.18,0,0,0-.16-.32l-.39-.56v-.07l-.12-.16c-.16-.19-.33-.37-.51-.55l-.33-.35L79.16,13c-.06-.12-.13-.23-.2-.37a2.56,2.56,0,0,1-.11-.24h0v-.13h0a.47.47,0,0,1-.08-.32h0a3.23,3.23,0,0,1,0-.44V10.9a2.17,2.17,0,0,1,.07-.24v-.17a5.34,5.34,0,0,1,.25-.57c.07-.12.14-.25.23-.38l.13-.17.15-.15h0a1.27,1.27,0,0,1,.15-.11L79.87,9,80.11,9h1.14q.3,0,.6,0h1.51L83.9,9h.55l.4,0c.32,0,.65.08,1,.14a5.36,5.36,0,0,1,.54.14l.28.12A7.94,7.94,0,0,1,87.45,9.92ZM94.37,21h0l-.29-.19-.19-.16-.14-.14v-.06a3.18,3.18,0,0,1-.27-.37c-.13-.21-.24-.41-.34-.61a13.4,13.4,0,0,1-.56-1.36,7.17,7.17,0,0,1-.3-1.1c-.08-.41-.18-.81-.27-1.22s-.19-.77-.29-1.1v-.05c-.11-.39-.23-.79-.37-1.18-.09-.22-.19-.43-.27-.59a5,5,0,0,0-.35-.54l-.12-.16L90.45,12l0,0a3.33,3.33,0,0,0-.25-.28l-.14-.17-.38-.46h0l-.38-.46L89,10.2l-.07-.07h0l.25.07h.07c.23.08.43.16.65.26l.45.26.3.19.49.25.25.12h0l.43.25.1.06.12.07.11.06.32.2a1.33,1.33,0,0,1,.19.14l.17.17.17.24a8,8,0,0,1,.42.77,3,3,0,0,1,.28.68c.09.35.17.66.24,1,0,.1,0,.19.07.29h0a1,1,0,0,1,.08.48v.46a5.65,5.65,0,0,1,0,.92A5.93,5.93,0,0,0,94,18c0,.14.07.14,0,.42a3.61,3.61,0,0,0-.07.87,2.3,2.3,0,0,0,.25,1.15c0,.11.1.22.16.33s.11.2.17.29h0Zm26.49-6.12h0l-.64-.26c-.26-.1-.53-.18-.77-.25h0l-.57-.16-.44-.12a3.75,3.75,0,0,1-.47-.17c-.2-.1-.4-.22-.59-.33l-.39-.24-.55-.3-.52-.28-.47-.29L115,12h0l-.9-.6-.94-.6-.17-.1c-.27-.17-.54-.35-.82-.51a5.06,5.06,0,0,0-1.35-.53l-1-.18h-.22l.45.19h.06l.58.27a6,6,0,0,1,.56.3c.25.15.49.32.73.48l.31.22.29.19.66.45c.25.17.58.4.9.64l.28.2.32.24.32.24c.36.26.75.5,1.13.73.22.14.45.27.67.42l.23.15a5.73,5.73,0,0,0,.75.45,5.61,5.61,0,0,0,1,.34h.59l.22.07h-3.37l-.66-.08h-.52l-1.18-.16h0a6.18,6.18,0,0,1-.62-.12c-.19,0-.39-.09-.62-.16h0l-.3-.11-.34-.14-.5-.25-.36-.2-.14-.08-.31-.21-.32-.23a3.89,3.89,0,0,1-.43-.38h0l-.07-.07h0l-.39-.42-.17-.2-.61-.67-.57-.63-.62-.69-.49-.56-.14-.16-.58-.65-.1-.1-.28-.3h0l-.21-.22-.17-.17h0L105.5,8h0l-.64-.69L104.56,7l-.31-.36c-.22-.25-.43-.46-.63-.66l-.37-.39-.31-.26h0L102.5,5h0l.19-.38h4.24l1.22-.11h4c.33,0,.67,0,1,.08s.49.1.72.17h0l.34.12c.11,0,.23.07.34.12h.12l.34.11c.43.19.86.4,1.27.63.15.1.3.2.45.32l.32.29c.1.11.2.22.29.34l.12.16h0a5.74,5.74,0,0,1,.32.53l.1.17h0c.12.21.23.43.33.65s.23.5.35.8a2.09,2.09,0,0,0,.24.28l.07.21v.06l.08.23V9.9c.07.21.13.42.19.64v.13l.15.53.37,1.27.1.28a.21.21,0,0,0,0,.11,3,3,0,0,0,.17.42c.13.27.28.55.44.82l.25.39.25.39h0ZM133,32.4h0a3.74,3.74,0,0,0,.33.92q.12.23.27.45l.06.08c.09.14.19.3.29.48v.06c.05.09.14.19.14.28v.19c.06.18.14.44.17.58a2.21,2.21,0,0,1,.1.5v.71l-.11.3-.11.21-.1.15-.08.09h-.7l-.09,0-.09-.06-.08-.08-.08-.08h0l-.09-.13a.87.87,0,0,1-.07-.17.81.81,0,0,1-.07-.22.5.5,0,0,1-.05-.26v-1.9l.06-.5V33.8l.06-.28v-.15l.06-.27a3.75,3.75,0,0,0,.13-.77ZM120.08,60.29a4.47,4.47,0,0,1-.43.44l-.07.05-.25.18-.38.23-.7.42-1.45.83h-.1l-.09.05h0l-.85.45-.61.31-.22.12L113.7,64l-.42.24-.42.2-.19.09-.19.09h-.12a.14.14,0,0,1,0-.09v-.65a6.61,6.61,0,0,1-.11-.88h0v-.38a14.71,14.71,0,0,1-.06-1.88h0c0-.22,0-.42,0-.66a2.7,2.7,0,0,1,.09-.75c.08-.15,0-.28.08-.41a.61.61,0,0,0,.08-.36l.21-.74v-.07c.16-.54.32-1.09.47-1.63.06-.2.12-.43.17-.61s.12-.37.19-.56a5,5,0,0,1,.24-.63c.17-.42.34-.81.5-1.2h0V53c.06-.14.1-.22.19-.41s.14-.28.3-.58.32-.6.49-.89l.09-.16h0c.1-.15.18-.29.27-.42l.08-.11.12-.17.1-.13h0l.33-.38.36-.36.51-.47.3-.27.1-.09c.11-.1.2-.16.34-.29s.3-.25.46-.38l.88-.56.49-.3.62-.39.79-.51c.21-.13.42-.26.62-.4l.63-.4.71-.48c.22-.15.42-.29.6-.43h.07a15.07,15.07,0,0,0,1.27-1l.24-.23h0a4.79,4.79,0,0,1-.16.46,1,1,0,0,0-.14.34,2,2,0,0,1-.08.22l-.18.46c-.23.6-.44,1.22-.66,1.91,0,.17-.13.4-.16.5l-.1.31c-.08.24-.17.47-.26.7h0v.06l-.21.44L123,49v.09c-.16.27-.36.56-.58.87l-.27.37-.33.46c-.22.3-.42.61-.58.88h0l-.52.84c-.09.15-.18.31-.28.46l-.22.43-.1.16c-.24.39-.46.8-.68,1.19l-.25.42.52-.59c.41-.43.83-.93,1.23-1.43l.13-.18c.17-.22.33-.44.48-.67l.15-.23.15-.23c.08-.13.16-.26.25-.39s.38-.55.6-.84l.08-.1.57-.78c.1-.13.18-.28.27-.42s.15-.23.26-.43.23-.43.35-.68l.12-.27c.07-.16.13-.32.19-.47v-.06h0V52l-.1.32-.13.4v.33a3.19,3.19,0,0,0-.15.59h0c-.07.21-.14.45-.21.64s-.16.39-.27.66a9.4,9.4,0,0,1-.51,1h0l-.12.2v.07h0l-.07.12-.15.21c-.08.13-.17.25-.26.37l-.39.53-.12.17c-.33.44-.65.89-.94,1.33l-.36.53-.31.43c-.12.15-.25.29-.38.43Z" transform="translate(0 0.03)" style="fill:#efefef"/><path d="M72.88,39.65Z" transform="translate(0 0.03)" style="fill:#333"/></svg>