<svg id="Layer_1" data-name="Layer 1" xmlns="http://www.w3.org/2000/svg" viewBox="0 0 155.37 103.36"><defs><style>.cls-1{fill:#333;}</style></defs><path class="cls-1" d="M10,2.75h0l0,0Z" transform="translate(-4.05)"/><path class="cls-1" d="M85.63,53.37l0,0h0Z" transform="translate(-4.05)"/><path class="cls-1" d="M97.64,74.45v0l0,0Z" transform="translate(-4.05)"/><path class="cls-1" d="M59.4,55.42h0l0,0Z" transform="translate(-4.05)"/><path class="cls-1" d="M119.72,69.11h0Z" transform="translate(-4.05)"/><polygon class="cls-1" points="59.93 21.17 59.92 21.17 59.92 21.17 59.93 21.17"/><path class="cls-1" d="M74.53,8.38h0Z" transform="translate(-4.05)"/><polygon class="cls-1" points="146.04 87.56 146.04 87.57 146.04 87.56 146.04 87.56 146.04 87.56"/><path class="cls-1" d="M149.09,98.43h0l0,0Z" transform="translate(-4.05)"/><path class="cls-1" d="M133,89.87v0Z" transform="translate(-4.05)"/><path class="cls-1" d="M109.67,38.29v0h0Z" transform="translate(-4.05)"/><path class="cls-1" d="M88.21,58.85h0v0Z" transform="translate(-4.05)"/><path class="cls-1" d="M92.24,69v0Z" transform="translate(-4.05)"/><polygon class="cls-1" points="79.77 81.75 79.76 81.74 79.76 81.74 79.77 81.75"/><path class="cls-1" d="M84.82,68.39v0Z" transform="translate(-4.05)"/><path class="cls-1" d="M90.65,65.35h0Z" transform="translate(-4.05)"/><polygon class="cls-1" points="41.19 53.23 41.18 53.2 41.18 53.2 41.19 53.23"/><path class="cls-1" d="M39.71,61.2c.47.3,1,.58,1.44.86s1,.56,1.48.83h0l.43.22.75.38.69.37,1.49.78.72.36a4,4,0,0,0,.36.17.36.36,0,0,0,.23,0,.25.25,0,0,0,.16-.1.36.36,0,0,0,.09-.22c0-.25.09-.5.13-.75l.12-.83a13.27,13.27,0,0,0,.13-1.67,15.7,15.7,0,0,0,0-1.68c0-.29-.07-.58-.11-.87s-.12-.53-.19-.8-.14-.52-.21-.78l-.24-.84c-.15-.54-.29-1.07-.47-1.59S46.24,54,46,53.5s-.44-1-.69-1.52-.5-1-.78-1.46h0l0,0h0v0l-.06-.1,0,0a7.7,7.7,0,0,0-.78-1.09c-.28-.32-.59-.61-.9-.9a12.35,12.35,0,0,0-1.27-1.13c-.22-.15-.45-.3-.69-.44l-.72-.45-1.37-.84-1.43-.85-1.41-.84c-.24-.14-.48-.28-.71-.43l-.37-.25L34.52,43a1.56,1.56,0,0,1-.2-.16l-.18-.16,0,0c-.06-.06-.12-.11-.17-.17l-.11-.12c0-.17-.09-.33-.12-.5s-.1-.47-.14-.7l-.24-1.59c-.11-.68-.24-1.37-.41-2l-.27-1.06c-.08-.32-.15-.65-.22-1l-.06-.36v0c0-.18,0-.37-.06-.56s0-.38-.05-.56c0-.4-.06-.8-.07-1.2,0-.18,0-.36,0-.55a1.23,1.23,0,0,0,0-.2,1,1,0,0,0,0-.24c0-.12-.09-.24-.13-.36s-.09-.3-.14-.45l-.22-.71c-.1-.31-.19-.62-.3-.92L31.3,29c.62.86,1.25,1.71,1.88,2.57.4.53.79,1.07,1.22,1.58s.81.9,1.23,1.33L37,35.8c.44.42.87.86,1.32,1.27.24.22.48.44.73.65s.5.4.76.6l1.49,1.13h0l.06,0h0l.06,0,0,0,.17.14-.06,0,0,0,0,0,1.2.93c.48.38,1,.78,1.43,1.18s1,.81,1.45,1.2,1,.72,1.54,1.09,1,.71,1.5,1c.26.16.53.3.79.45l.4.38.8.75c.27.24.54.48.8.73l.76.75L53,49c.25.28.5.57.74.86s.48.53.71.8l.74.84c.25.28.49.57.75.85s.54.59.82.87.53.51.81.76c.58.51,1.17,1,1.78,1.48l.06,0,.15.12h0l.18.14h0l0,0,.41.32c.49.37,1,.76,1.44,1.15s1.16,1,1.75,1.42a5.86,5.86,0,0,0,2.69,1.23,4.7,4.7,0,0,0,1.45,0l.54-.07c.74-.13,1.48-.29,2.22-.41l1.1-.21c.45-.09.9-.2,1.36-.26a6.85,6.85,0,0,1,.79,0c.42,0,.83,0,1.25.09s.56.08.84.14l1,.23.81.19c.3.06.6.12.9.2l.22.06a.44.44,0,0,0,.3,0,.25.25,0,0,0,.13-.21.41.41,0,0,0-.08-.24,8.25,8.25,0,0,1-.37-.8c-.25-.6-.5-1.19-.76-1.78-.15-.32-.29-.65-.45-1a6.28,6.28,0,0,0-.67-1.15,7.28,7.28,0,0,0-1-1c-.26-.24-.52-.46-.79-.68-.58-.49-1.17-1-1.74-1.47l-.9-.82L71.45,50c-.17-.19-.35-.37-.53-.55s-.35-.37-.52-.56-.33-.37-.49-.56l-.48-.56c-.48-.55-1-1.09-1.45-1.62-.24-.27-.5-.52-.76-.77a7.66,7.66,0,0,0-.8-.71,10.66,10.66,0,0,0-.89-.6,11.13,11.13,0,0,0-1.08-.57c-.2-.07-.39-.16-.58-.22s-.37-.12-.55-.18l-1.07-.33a11.26,11.26,0,0,0-2.2-.43,8.68,8.68,0,0,0-1.14,0c-.38,0-.75,0-1.13.06a15.84,15.84,0,0,0-2.18.1,22.21,22.21,0,0,0-2.26.49,10.33,10.33,0,0,0-1.08.33c-.34.12-.68.26-1,.4h0l-.5.19c-.23.08-.45.14-.68.2l-.25.05h0L49.59,44c-.22-.06-.44-.12-.65-.2l-.16-.06h-.05l-.46-.32-.94-.69c-.31-.21-.61-.41-.91-.64s-.85-.7-1.26-1.06l-1.38-1.17c-.46-.39-.93-.77-1.4-1.15s-.85-.69-1.29-1h0L41,37.66l0,0,0,0L40.09,37c-.61-.49-1.18-1-1.74-1.55l-.93-.91.45.18,0,0,.27.11h0c.53.2,1.07.4,1.62.56s1.1.28,1.63.48l.17.07h0a2.7,2.7,0,0,0,1.24.3l.11,0,.2.14.9.61c.32.22.63.43,1,.62a7.93,7.93,0,0,0,1,.5,7.6,7.6,0,0,0,1,.38,2.48,2.48,0,0,0,.76.1,1.84,1.84,0,0,0,.66-.12,1.44,1.44,0,0,0,.53-.38,2.34,2.34,0,0,0,.43-.79,1.41,1.41,0,0,0,.08-.61,1.64,1.64,0,0,0-.21-.61,2.38,2.38,0,0,0-.43-.56,2.07,2.07,0,0,0-.44-.34,4.91,4.91,0,0,0-.5-.28c-.22-.08-.43-.16-.66-.22a4.48,4.48,0,0,0-.82-.1,7.34,7.34,0,0,0-1.15.11c-.38.06-.75.14-1.12.23s-.71.19-1.06.3l.06,0-.39.1h-.07l-.08,0a5.54,5.54,0,0,0-.68-.25,4.29,4.29,0,0,0-.71-.16l-.76-.13h0l.08,0-.24,0c-.51-.12-1-.27-1.53-.42s-1-.31-1.51-.49c-.13,0-.27-.1-.39-.16s-.38-.24-.56-.37l-.2-.15h0a.2.2,0,0,0-.1-.08c-.34-.37-.67-.75-1-1.16l.05.07-.2-.27-1.08-1.49-1.11-1.55c-.36-.51-.7-1-1-1.56s-.68-1.1-1-1.66-.65-1.11-1-1.66-.7-1.1-1.09-1.63-.8-1.05-1.22-1.55c-.7-.84-1.41-1.68-2.19-2.45l.41.27c1,.67,1.91,1.38,2.88,2.05s2,1.33,3,2c.52.33,1,.67,1.54,1s.89.63,1.32.95l.12.1,1.42,1.13c.48.39.95.78,1.44,1.14s1,.72,1.48,1.05l1.55,1c1,.67,2,1.37,3,2.07.48.34,1,.66,1.47,1s1.06.64,1.6.94,1.07.58,1.61.87,1.07.58,1.61.88c1,.57,2,1.16,3.06,1.73s2.16,1.15,3.23,1.73,2.09,1.17,3.15,1.73,2.08,1,3.14,1.51,2.15.94,3.21,1.44,2.17,1,3.25,1.56l1.68.82c.52.26,1,.54,1.55.83l1.31.77c.56.33,1.12.64,1.68,1s1,.5,1.56.72,1,.39,1.53.55l1.74.52c.57.17,1.13.37,1.69.56l.56.21c.43.54.85,1.08,1.28,1.61L84.6,53.5h0v0h0c.1.12.19.24.28.37.38.5.73,1,1.1,1.52l.46.62.24.51.21.48.12.29c0,.14.1.27.14.41s.16.51.23.77v0c0,.15.08.3.11.45.12.49.23,1,.36,1.47s.29.93.44,1.39v0c0,.1,0,.19.08.29l.06.27s0,.07,0,.11a.4.4,0,0,0-.22,0,.72.72,0,0,0-.24.14l-.06.07-.09.12-.2.3c-.27.42-.56.84-.84,1.27s-.51.89-.74,1.35-.43.9-.64,1.35-.41.9-.59,1.35v0l-.06.14,0,.12c-.35.9-.56,1.85-.9,2.75-.09.2-.18.4-.26.61s-.19.44-.27.66A4.68,4.68,0,0,0,83,74.07a9.53,9.53,0,0,0,0,1.51c0,.25,0,.5.07.74s0,.49,0,.73h0v.71a7.59,7.59,0,0,0,.08,1.07c0,.25.08.5.13.75s.09.46.14.68c.1.5.21,1,.34,1.48.07.23.14.45.22.67l.27.65,0,0c0,.09.07.17.11.25v0l.12.28,0,0c.09.2.17.4.25.61s.15.39.22.59c.14.38.26.76.39,1.14s.34.93.5,1.4l.06.17a1.15,1.15,0,0,0,.1.23.38.38,0,0,0,.29.23.29.29,0,0,0,.26-.13,4.06,4.06,0,0,0,.38-.63c.11-.21.2-.43.3-.65s.19-.47.29-.7c.2-.46.43-.9.66-1.34h0l0-.07a2,2,0,0,0,.11-.2v0c.14-.24.28-.48.43-.72s.34-.56.52-.84l.37-.59.39-.64c.25-.44.51-.88.75-1.34s.47-.89.68-1.35A13.41,13.41,0,0,0,92,77.35c.15-.49.32-1,.46-1.46a9.07,9.07,0,0,0,.33-1.48c0-.25,0-.51,0-.76a7.3,7.3,0,0,0,0-.81c0-.25,0-.51-.09-.76s-.07-.48-.1-.72h0v0c0-.18,0-.37-.07-.55s0-.37-.05-.55,0-.42-.08-.63a4,4,0,0,0-.14-.6,8.63,8.63,0,0,0-.28-.86c-.2-.5-.41-1-.63-1.48-.1-.22-.21-.44-.32-.65s-.23-.45-.36-.67l0,0,0-.06,0-.06h0l0,0h0l0-.07h0l0-.07h0c-.09-.16-.19-.3-.28-.45L89.81,64l-.64-1h0a9,9,0,0,0-.13-1c-.11-.49-.26-1-.4-1.45h0l0-.11h0l0-.11v0h0l-.18-.74c0-.25-.1-.51-.17-.76s-.11-.39-.18-.59L88,58.07c.5.65,1,1.31,1.51,2s.89,1.16,1.35,1.72c.25.31.5.61.76.9s.48.51.72.75l.28.25.06.08.28.34c.07.1.14.19.2.29s.15.24.22.36c.22.42.41.87.59,1.31h0l0,.08v0a.42.42,0,0,1,0,.1v0h0l.18.42c.06.15.13.3.2.45s.28.54.43.8h0l.16.28h0l0,0,0,0,0,.08,0,0h0l0,0h0a.16.16,0,0,1,0,.07h0l.16.28h0l.37.65.24.46c.08.16.15.33.23.5h0a6.17,6.17,0,0,1,.19.61,4.86,4.86,0,0,1,.11.55c0,.19.07.38.11.57a5.25,5.25,0,0,0,.38,1.16,6.49,6.49,0,0,0,.73,1.25c.22.3.45.61.69.9l.39.47.33.38a1.62,1.62,0,0,0,.18.19l.21.21.41.38c.28.24.56.47.85.69s.56.43.85.63l.46.32c.16.11.32.2.48.3s.63.37,1,.55.58.32.88.46l.49.22c.17.07.34.15.52.21l.53.19.29.08.25.07.31.08.23,0a5.25,5.25,0,0,0,.55.09c.34,0,.67.11,1,.18s.69.15,1,.24l1.41.4.56.14.46.1.33.06.29,0,.49,0,1.09,0,.54,0,.58,0c.19,0,.39.07.58.12a2.83,2.83,0,0,1,.41.14l.22.09h0l.4.19.42.22.41.23a.35.35,0,0,0,.4,0,.37.37,0,0,0,.12-.34.92.92,0,0,0-.16-.31,2.61,2.61,0,0,1-.17-.28c-.06-.12-.12-.23-.17-.35s-.09-.28-.13-.42,0-.23-.08-.35,0-.2,0-.3h0v0h0l-.09-.74v0a.19.19,0,0,1,0-.08.31.31,0,0,1,0-.1v0c0-.05,0-.11,0-.16v0h0v0h0c0-.25-.07-.5-.11-.74a2,2,0,0,0-.11-.42,2.77,2.77,0,0,0-.1-.26,3.05,3.05,0,0,0-.13-.32l-.15-.34c-.06-.13-.12-.26-.19-.38a4.44,4.44,0,0,0-.71-.95l-.44-.44-.42-.39-.76-.68c-.27-.24-.52-.49-.77-.74s-.44-.47-.65-.7-.24-.27-.35-.41l-.26-.33-.48-.69c-.13-.2-.27-.4-.41-.59s-.34-.47-.52-.7l-.51-.64c-.12-.15-.25-.29-.37-.43l-.37-.39c-.23-.24-.47-.47-.72-.7l-.43-.39-.46-.42-.75-.62c-.15-.11-.3-.24-.46-.35l-.43-.31c-.15-.1-.3-.21-.46-.3l-.32-.18a1.18,1.18,0,0,0-.19-.11,4.37,4.37,0,0,0-.49-.23l-.32-.14-.23-.08a7.84,7.84,0,0,0-1.06-.27,6.28,6.28,0,0,0-.75,0h-.64l-.5,0-.24,0-1-.15c-.37-.05-.73-.1-1.1-.13l-.55,0h-.57l-1,0-.37,0-.3,0-.37-.07-.34-.08c-.49-.15-1-.31-1.46-.5l-.43-.21,0,0a4,4,0,0,0-.32-.4,2.74,2.74,0,0,0-.45-.38l-.09,0-.15-.17-.31-.35a2.62,2.62,0,0,0-.22-.25.26.26,0,0,0-.09-.09s-.06,0-.09,0c-.34-.46-.68-.93-1-1.4l-1.25-1.8c-.42-.6-.84-1.19-1.27-1.78L87,55.23c-.44-.61-.89-1.22-1.34-1.82L85.32,53c-.46-.59-1-1.15-1.45-1.73l-.45-.55,1.23.48a27.48,27.48,0,0,0,3.42,1c1.19.26,2.36.54,3.54.84l1.85.52.55.14a3.74,3.74,0,0,0,.45.12l.93.19c.66.13,1.32.28,2,.42l.09,0c.23.13.48.26.7.41l.54.36.27.19,1.13.82,0,0c.24.18.48.37.73.54l0,0L101,57l.17.14c.07.06.13.14.2.2l.14.13.28.26.46.42.93.86h0v0h0c.43.42.84.85,1.24,1.29s.64.74,1,1.1.71.72,1.06,1.08.67.64,1,1,.7.73,1,1.11.62.72.94,1.06l.54.58.54.53.53.54.44.46c.15.17.3.33.44.5l.53.63c.42.54.83,1.09,1.24,1.63s.84,1.13,1.24,1.7c.27.41.55.81.81,1.22s.58.9.86,1.36.54.84.82,1.26l.4.62c.12.18.23.36.34.54s.19.36.29.53l.24.48.45.95c.15.3.31.61.45.92s.31.68.46,1l0,0,.12.28h0l0,.06h0l.19.42,0,0,.29.68c.19.44.36.87.56,1.3a5,5,0,0,0,.31.61l.25.36c.12.48.26,1,.38,1.45s.22.9.32,1.35.2.94.32,1.41c.06.24.13.48.21.71s.17.47.27.7l.2.38a2.22,2.22,0,0,0,.33.49,1.48,1.48,0,0,0,.33.28l.14.07.19,0a.81.81,0,0,0,.31,0,.82.82,0,0,0,.26-.1,1.32,1.32,0,0,0,.42-.54,1.86,1.86,0,0,0,.11-.58c0-.24,0-.48,0-.72a9.36,9.36,0,0,0-.15-1.4,3.19,3.19,0,0,0-.59-1.39,4.15,4.15,0,0,0-.27-.32l-.21-.23c-.33-.33-.68-.63-1-1h0c-.14-.13-.27-.27-.4-.4l-.39-.46,0,0c-.13-.17-.25-.33-.37-.51s-.17-.32-.25-.49h0v0q-.65-1.47-1.32-2.91c-.42-.88-.86-1.76-1.31-2.62-.23-.45-.46-.89-.73-1.31s-.55-.83-.83-1.24-.54-.8-.8-1.21-.52-.82-.79-1.22-.55-.85-.85-1.26l-.91-1.27c-.1-.14-.21-.28-.3-.42l.12.12,1.49,1.17c.49.38,1,.76,1.5,1.11s1,.66,1.55,1h0l.08,0h0l.07,0,0,0,.1.06h0l.09,0,0,0c.36.2.72.39,1.08.56.57.27,1.15.51,1.72.75.33.14.64.29,1,.44l.57.57c.4.43.8.86,1.17,1.31.21.27.42.55.65.81a3.85,3.85,0,0,0,.35.35,2.49,2.49,0,0,0,.43.29,3.22,3.22,0,0,0,1.16.41h.06a1.9,1.9,0,0,0,.63,0,1.55,1.55,0,0,0,.65-.3,1.5,1.5,0,0,0,.46-.83,1.23,1.23,0,0,0,0-.47,1.19,1.19,0,0,0-.14-.4,1.55,1.55,0,0,0-.6-.59l-.35-.2c-.2-.1-.41-.21-.62-.29h0l-.25-.1.06,0c-.26-.1-.53-.17-.8-.25l-.75-.2c-.49-.14-1-.32-1.45-.49l-1.13-.46c-.35-.16-.71-.3-1.07-.44l-.42-.16,0,0-.28-.11h0c-.41-.16-.82-.33-1.22-.52l-1.2-.62-.63-.37q-.32-.18-.63-.39c-1-.67-2-1.43-3-2.14l-.42-.31,0,0c-.25-.19-.5-.38-.74-.59l-.38-.32-.34-.44c-.14-.17-.27-.34-.42-.5l-.35-.4L111.7,67c-.37-.38-.73-.76-1.1-1.13-.67-.67-1.28-1.39-1.92-2.09-.33-.36-.68-.71-1-1.06l-1.1-1.07c-.69-.69-1.33-1.42-2-2.13a12.67,12.67,0,0,0-1-1c-.37-.34-.74-.66-1.11-1l-.61-.53-.44-.38c-.16-.1-.32-.2-.47-.31l-1.33-.93-.48-.34-.5-.34.74.19h0l2.13.59.13.09a7.56,7.56,0,0,0,1.07.61,8.85,8.85,0,0,0,1.08.41l1,.31L105,57a8,8,0,0,1,.6.56l0,0L107,59.12c.62.63,1.22,1.27,1.82,1.91l.86.9c.3.31.56.64.84,1l0,.06c.13.18.27.35.39.53l.36.54c.24.36.48.72.74,1.07s.53.69.83,1a7.11,7.11,0,0,0,1,.93l0,0,.06,0,.11.09v0a8,8,0,0,0,1.07.67,9.33,9.33,0,0,0,1,.52,6.35,6.35,0,0,0,1.07.34c.4.09.79.19,1.19.25l1.37.19a2.66,2.66,0,0,0,.28,0l.51.06.69.07.81.09.32,0,.4,0h.74l.27,0c.2,0,.39,0,.58-.09l.63-.16c.19,0,.37-.11.56-.18.45-.16.9-.35,1.34-.55l.14.06h0l.24.12c.36.18.7.39,1,.6l.31.21h0l0,0,.75.47h0l.17.19.21.25c.08.1.16.19.23.29h0c.26.34.52.67.76,1l.22.32.2.31.31.51c.18.32.36.63.53,1s.29.55.42.84.28.59.41.89c.25.54.48,1.09.76,1.63.14.27.28.55.43.82l.47.86c.15.27.31.54.45.82s.27.54.39.81.23.54.33.82l.06.14,0,0a.2.2,0,0,0,0,.08.86.86,0,0,0,0,.28,9.83,9.83,0,0,1-.08,1.21h0c0,.15,0,.29-.06.44s-.06.3-.1.46a4.58,4.58,0,0,1-.15.49c0,.17-.12.34-.18.5-.16.38-.33.75-.52,1.11a19.8,19.8,0,0,0-1,1.9c-.13.33-.25.67-.36,1a6.43,6.43,0,0,0-.2,1.08c0,.19,0,.38,0,.57s0,.35,0,.52,0,.36,0,.54.05.38.08.57c.07.36.17.71.26,1a7.17,7.17,0,0,0,.37,1,7.65,7.65,0,0,0,.56.91l.61.87c.2.3.41.6.62.89s.42.56.64.84l0-.05.14.18h0l0,0h0l.26.33.1.12h0l0,0,0,0h0c.41.52.83,1,1.29,1.5q.34.36.72.69a4.78,4.78,0,0,0,.84.64,2.22,2.22,0,0,0,.38.18l.35.13.31.14.36.25,0,0,1.08.82h0l0,0h0l.29.21h0l.1.08h0l0,0a.37.37,0,0,0,.51-.11.38.38,0,0,0-.11-.51l-.32-.23a.81.81,0,0,0,.21-.24,1.46,1.46,0,0,0,.17-.24,3,3,0,0,0,.1-.32l.06-.19.21-.73c.1-.34.19-.68.29-1s.2-.69.28-1c0-.18.08-.35.11-.53s.07-.36.09-.54a9.81,9.81,0,0,0,.11-1.09c0-.19,0-.38,0-.57a2.17,2.17,0,0,0,0-.26l0-.32a6.4,6.4,0,0,0-.17-1,14.28,14.28,0,0,0-.66-2,33.67,33.67,0,0,0-1.81-4c-.16-.3-.33-.59-.51-.88s-.4-.62-.62-.92-.43-.54-.65-.81l-.66-.8c-.44-.52-.94-1-1.4-1.5s-.81-1-1.2-1.44c0-.1-.07-.21-.11-.31-.21-.56-.41-1.12-.66-1.67s-.56-1.16-.86-1.73-.55-1.07-.8-1.62-.52-1.17-.79-1.74c-.14-.29-.28-.57-.43-.85s-.32-.57-.49-.85l-.26-.43c-.09-.13-.18-.25-.26-.38s-.18-.25-.28-.37-.19-.25-.3-.38-.4-.46-.61-.69l-.31-.32.15.09.49.29c.14.09.27.18.42.26l.36.24.45.32c.61.43,1.21.89,1.84,1.3.29.2.6.38.9.57l1,.59.74.52c.59.43,1.17.88,1.77,1.31l.91.67c.29.21.57.43.85.65s.43.39.64.6.44.43.66.65l.8.78a1.47,1.47,0,0,0,.1.22h0c.08.14.16.28.23.43l.09.26.06.23,0,.25v0h0l.06.46a5.4,5.4,0,0,0,.15.91c.08.33.18.66.27,1l.51,1.73c0,.16.09.33.13.5s.08.34.12.51c.07.33.13.66.2,1a18.68,18.68,0,0,0,.47,1.82l.27.85c.11.31.2.62.3.94h0v0h0l0,.08h0v0h0v0h0c0,.06,0,.12,0,.18v0l.06.23v0s0,0,0,.06,0,.12.05.19c.07.31.15.63.23,1l.15.5.12.38c.05.13.09.27.15.41s.14.37.22.56.1.24.15.36l.2.45c.13.28.25.56.39.83l.24.47a8.34,8.34,0,0,0,.74,1.12c.21.26.42.5.64.75l.28.3.32.34.19.18c.11.11.22.22.34.32s.23.21.35.3l.41.32.3.21.28.17.39.2.46.2.44.16.93.27h0l.57.15h0c.29.08.57.15.85.24l.38.12.45.17.48.21.5.25.38.21.3.19.32.21.35.25.34.26a4.27,4.27,0,0,0,.44.3.46.46,0,0,0,.36,0,.38.38,0,0,0,.17-.12.32.32,0,0,0,.07-.19c0-.11,0-.22,0-.32s0-.25,0-.38c0-.42,0-.84.07-1.26s.11-.94.17-1.4h0c0-.11,0-.22,0-.33s0-.26.05-.39,0-.26,0-.39l0-.32h0v0h0V98.1h0v0h0v0h0a.76.76,0,0,1,0-.15h0v0h0v-.14h0v0c0-.17,0-.33,0-.5l0-.39c0-.35-.06-.69-.1-1s-.07-.54-.09-.81-.06-.66-.07-1,0-.66,0-1l0-1c0-.13,0-.25,0-.38l0-.45c0-.17,0-.33-.07-.49l-.09-.57c0-.13-.05-.26-.07-.39s0-.23-.07-.34a.89.89,0,0,0,0-.14v0l-.19-.73-.09-.27c-.05-.14-.09-.28-.14-.43s-.17-.43-.25-.64-.17-.42-.26-.62-.22-.5-.34-.74a5.88,5.88,0,0,0-.35-.6c-.12-.18-.25-.35-.38-.52s-.4-.49-.6-.73l-.35-.42c-.1-.12-.21-.24-.32-.35s-.41-.44-.62-.66l-.39-.37-.35-.31-.71-.62a5.85,5.85,0,0,0-1.62-1,9.11,9.11,0,0,0-1.83-.53c-.6-.1-1.21-.13-1.82-.18s-1.29-.13-1.94-.18c-.3,0-.6,0-.9,0h-.5a4.75,4.75,0,0,1-.65,0h0l-.13,0h0l-.27,0-.12,0h0l-.38-.18a.28.28,0,0,0-.28,0c-.47-.48-.94-1-1.4-1.46-.12-.13-.24-.26-.37-.38s-.28-.28-.42-.42-.26-.24-.39-.36l-.44-.37-1.76-1.34c-.59-.44-1.17-.9-1.78-1.32s-1.28-.82-1.92-1.23l-.65-.44c.22.08.45.16.68.22l.29.07a2,2,0,0,0,.24,0,.91.91,0,0,0,.23,0l.26,0H136l.53,0,.94-.1q.42,0,.84-.12h0l.39.11.52.15,1.31.35h0l.43.11h0a7.49,7.49,0,0,0,1.48.24c.26,0,.51,0,.76,0l.72.07c.33,0,.67.09,1,.11A9.55,9.55,0,0,0,146,73a8.59,8.59,0,0,0,1.8-.37c.29-.09.58-.18.87-.29l.47-.19.44-.2.39-.21.23-.14.2-.12c.26-.17.53-.34.79-.53.52-.36,1-.74,1.53-1.13s1-.77,1.47-1.17c.24-.2.47-.42.71-.63s.21-.23.31-.34l.1-.12a.18.18,0,0,0,.05-.07l.13-.15.29-.42c.08-.13.15-.27.22-.4s.29-.55.43-.83c.26-.55.52-1.11.81-1.64h0a3.45,3.45,0,0,1,.2-.32,2.75,2.75,0,0,1,.19-.28c.26-.33.55-.64.85-1l.43-.42a.91.91,0,0,0,.18-.21.3.3,0,0,0,0-.3.39.39,0,0,0-.21-.14,2.52,2.52,0,0,0-.82-.08,4.38,4.38,0,0,0-.51,0l-.66.08-.53.08h0l-.32,0h0l-.15,0h-.06l-.82.09-.94.07-1.76.08h-.74l-.54,0a13.27,13.27,0,0,0-1.76.32l-1.13.26-.39.1-.42.12-.63.2a6.73,6.73,0,0,0-.82.38l-.87.48c-.13.08-.26.16-.38.25l-.39.3-.69.54-.73.58c-.23.2-.46.4-.68.61s-.46.46-.68.71l-.07.09c-.17.21-.32.44-.48.66l-.51.74c-.17.27-.32.54-.46.82a7.43,7.43,0,0,0-.37.81,3.12,3.12,0,0,0-.15.43l-.12.37-.06.12A.91.91,0,0,1,139,71l0,0h0c-.23.06-.46.09-.69.13-.46.06-.91.1-1.37.13l-.72,0-.68,0h-.33l-.32,0-.45-.08-.45-.1h0l-.57-.16-.28-.07h-.25l-.28-.06h-.1l-.56-.35q-.49-.3-1-.57c-.33-.18-.67-.35-1-.52l-.93-.48-.55-.28c-.12-.06-.24-.13-.37-.18s-.23-.08-.34-.12l-.37-.13-.07,0,.43-.19.64-.25,0,0,.7-.26.78-.27.83-.27.73-.2c.28-.06.66-.11.76-.42a.58.58,0,0,0,0-.23A.46.46,0,0,0,132,66a.77.77,0,0,0-.23-.21c-.21-.16-.42-.3-.63-.45l-.2-.17c-.13-.15-.25-.29-.36-.44-.38-.54-.72-1.1-1.09-1.65a17.15,17.15,0,0,0-1.19-1.51c-.56-.65-1.12-1.3-1.71-1.93s-1.27-1.3-1.92-1.94c-.29-.28-.57-.57-.88-.82s-.38-.3-.57-.45a5.09,5.09,0,0,0-.47-.34,4.06,4.06,0,0,0-.75-.38,11.64,11.64,0,0,0-1.72-.59,10.93,10.93,0,0,0-1.81-.35c-.6-.06-1.21-.09-1.82-.12l-1.29,0a10.4,10.4,0,0,0-1.25,0l-.69.08-.62.11c-.41.09-.82.21-1.23.32l-.58.13-.56.08c-.64.06-1.27.15-1.91.24s-1,.06-1.54.07h-.41l-.4,0-.89,0-.29,0-.36-.07h0l-.06,0a.32.32,0,0,0-.14,0l-.77-.21-.11-.06a1.06,1.06,0,0,0-.33-.14,1.22,1.22,0,0,0-.27,0c-.43-.11-.85-.25-1.28-.37l-1.52-.47c-.45-.14-.91-.3-1.37-.43h0l-.11,0h0l-.3-.08-.17,0-.06,0-.09,0c-.87-.24-1.76-.46-2.63-.69s-1.48-.44-2.22-.67l-1-.31h1a.66.66,0,0,0,.28,0,.47.47,0,0,0,.21-.16l0,0,.27-.13h0l.13-.06h0l.41-.17c.3-.13.6-.25.89-.39l1-.48,1.82-.92.87-.41c.3-.14.6-.28.89-.44l.94-.54.88-.54c.5-.29,1-.58,1.48-.89s1-.61,1.46-.9l1.27-.73h0l0,0h0l.06,0h0l0,0h0l.06,0h0c.2-.12.41-.25.6-.39s.57-.41.85-.62a9.69,9.69,0,0,1,.85-.57l.82-.52.69-.46.24.12.1.05a.06.06,0,0,0,0,.06.6.6,0,0,1,.08.08h0l.22.2h0l.18.18.2.2.33.38.63.72c.31.35.64.7,1,1l.28.26a3,3,0,0,0,.66.51,5.36,5.36,0,0,0,.93.46,7.35,7.35,0,0,0,.94.3c.26.06.52.11.79.15l.35,0,.36,0h.39l.38,0,.74-.06a3.44,3.44,0,0,0,.69-.16l.38-.12c.2-.08.4-.14.6-.2h.15a3.5,3.5,0,0,0,.79-.11c.32-.08.63-.16.94-.26l.46-.16a6,6,0,0,0,.81-.38,2.75,2.75,0,0,0,.53-.36l.23-.2.37-.34a6.93,6.93,0,0,0,.95-1.13,4.27,4.27,0,0,0,.3-.51,3.59,3.59,0,0,0,.42-1.13c0-.17.07-.34.1-.5s0-.35.07-.52.06-.56.1-.84l.06-.57c0-.16,0-.32,0-.48a3.17,3.17,0,0,0,0-.43v-.28c0-.12,0-.24,0-.36a3.5,3.5,0,0,0-.07-.65,2,2,0,0,0-.19-.54,4.34,4.34,0,0,0-.67-.92c-.22-.24-.45-.48-.7-.71a7.3,7.3,0,0,0-.75-.6l0,0a3,3,0,0,0-1.11-.51,3.94,3.94,0,0,0-.47-.1,2.85,2.85,0,0,0-.29,0l-.26,0H122a.15.15,0,0,0-.07-.13.28.28,0,0,0-.09-.07l-.11-.05-.22-.09-.48-.18a9.75,9.75,0,0,0-1-.3l-.81-.21-.77-.18-.59-.15h0l-.31-.09a1.43,1.43,0,0,0-.29,0H117l-.44,0a2.74,2.74,0,0,0-.5.07l-.54.14c-.32.1-.64.22-1,.35s-.61.25-.91.4a5.8,5.8,0,0,0-.92.56l-.43.34c-.13.1-.25.22-.38.34s-.19.21-.28.32-.25.32-.36.48-.4.53-.57.81-.35.6-.52.9-.35.57-.51.85a8.81,8.81,0,0,0-.47,1,5.52,5.52,0,0,0-.16.54c0,.16,0,.33-.07.49a6.37,6.37,0,0,0-.08,1,2.63,2.63,0,0,0,0,.49,1.47,1.47,0,0,0,.14.45h0l0,0-.8.53c-.29.19-.59.36-.87.57l-.82.62c-.27.19-.55.37-.83.55l-.27.16-1,.57-1.06.67c-.57.37-1.14.74-1.72,1.1l-.87.56c-.27.18-.55.35-.83.52s-.66.36-1,.53l-1.08.54-1.78.92-.93.49-.49.23L94.3,51h0l-.38.16a3.52,3.52,0,0,0-.4.18.82.82,0,0,0-.2.12l-.08.08-.42,0h-.47l-.84,0q-.4,0-.81,0h-.4c-.4-.12-.8-.25-1.2-.35-.57-.16-1.14-.31-1.69-.49s-1.21-.38-1.81-.61l-1.77-.7-2.23-.87-.47-.58c-.46-.57-.91-1.14-1.35-1.72h0c-.29-.39-.58-.78-.86-1.18-.43-.6-.86-1.2-1.3-1.79S76.73,42,76.27,41.4s-1-1.15-1.47-1.69-1.06-1.09-1.61-1.62l-.2-.2.08,0,.13.08.89.56.38.24a2.26,2.26,0,0,0,.2.13l.25.08.21.07.93.32c.28.09.57.17.86.24l.39.09h0l.5.12h0l0,0,1.87.47c.62.17,1.24.33,1.88.44a8.85,8.85,0,0,0,.88.12l1,.12c.62.08,1.24.17,1.86.23s1.22.11,1.83.15a7,7,0,0,0,.92,0c.31,0,.61-.07.92-.08h.53l.31.11,1.54.53h0l.35.13.26.11.23.11.17.09.84.51a7.49,7.49,0,0,0,.89.46l.11,0a3.49,3.49,0,0,0,.91.17l.48,0a2.44,2.44,0,0,0,.46-.07,4.59,4.59,0,0,0,.48-.17A2.23,2.23,0,0,0,97.69,42a1.39,1.39,0,0,0,.08-.57,1.24,1.24,0,0,0-.18-.53,1.56,1.56,0,0,0-.37-.4,3.49,3.49,0,0,0-1-.51,2.55,2.55,0,0,0-.72-.14,2.79,2.79,0,0,0-.5,0,6,6,0,0,0-.92.19l-.91.25a8.34,8.34,0,0,1-.83.2c-.45.06-.9.08-1.35.11H90a1.37,1.37,0,0,0-.35-.08l-.27,0h-.21a2.23,2.23,0,0,0-.63.15h-.11l-.44,0h-.4c-.54,0-1.07,0-1.61-.06s-1,0-1.51-.07l-.15,0h-.15c-.24,0-.48-.06-.72-.11l-.74-.13L81.25,40c-.44-.1-.88-.22-1.31-.35s-1-.3-1.45-.47L77.74,39,77,38.74c-.49-.13-1-.29-1.44-.45l-1.46-.53c-.41-.17-.82-.35-1.22-.56s-.82-.5-1.22-.76L71,36c-.38-.34-.76-.68-1.15-1l-1-.79-1-.71c-.26-.19-.54-.37-.81-.54l-.54-.35L66,32.31a18.74,18.74,0,0,0-2-1.05c-.19-.09-.37-.18-.57-.26l-.63-.25-.52-.19-.41-.14-.63-.19c-.21-.07-.43-.11-.64-.16L60.1,30l-.51-.09-1.24-.16-1.09-.14-1.06-.16c-.76-.13-1.52-.28-2.28-.42s-1.5-.28-2.27-.37l-.54-.06-.68,0H49.37l-2.3.06h-.62l-.55,0c-.36,0-.72-.06-1.09-.11L44,28.29c-.23,0-.47-.09-.7-.14l-1.15-.25c-.62-.42-1.25-.83-1.88-1.24s-1.41-1-2.11-1.49c-1.42-1.1-2.78-2.28-4.26-3.3-1-.7-2.06-1.36-3.09-2s-2-1.34-3-2c-.46-.32-.91-.65-1.37-1s-1-.68-1.53-1-.87-.61-1.3-.92c.53.18,1.06.36,1.58.58s1.17.52,1.77.77l1.82.73c.56.22,1.11.47,1.65.73s1.14.49,1.71.72a18.5,18.5,0,0,0,1.76.64c.6.19,1.2.35,1.8.52l1,.26.9.19c.63.13,1.26.24,1.89.35s1.21.23,1.82.33l3.67.64c.62.1,1.24.21,1.87.3.32,0,.63.09,1,.11l.94.08c.59.05,1.18.1,1.77.18s1.24.18,1.87.24c1.22.11,2.45.09,3.68.11.62,0,1.24,0,1.85,0,.3,0,.59,0,.88,0s.66,0,1-.05h-.07l.78-.06.43,0c.6,0,1.2,0,1.8-.05l.43-.05.43,0h.1l.29.06.38.09.29.07,0,0h0s0,0,0,0h0l0,.1c0,.18.06.36.08.54s0,.34,0,.51.09.64.15,1a7.51,7.51,0,0,0,.21.94c.09.29.2.58.31.87A9.53,9.53,0,0,0,66.3,28c.16.23.34.45.51.67l.15.18.15.18a.93.93,0,0,0,.19.11,0,0,0,0,1,0,0,3.92,3.92,0,0,0,.56.89,8.67,8.67,0,0,0,.82.78,9.81,9.81,0,0,0,.8.6l.84.59c.56.38,1.14.72,1.71,1.08h0l0,0h0l.13.09a4.24,4.24,0,0,0,.9.46l1.11.35a3.31,3.31,0,0,0,1.17.15,2.07,2.07,0,0,0,.65-.12,2.37,2.37,0,0,0,.41-.17,7.1,7.1,0,0,0,.91-.55,4.62,4.62,0,0,0,1-.8,2.11,2.11,0,0,0,.55-1.13,1.89,1.89,0,0,0-.06-.67,2.42,2.42,0,0,0-.23-.58c-.18-.33-.36-.65-.55-1l-.28-.41a3.72,3.72,0,0,0-.33-.45l-.1-.07h.1a6.84,6.84,0,0,0,.9.08,4.8,4.8,0,0,0,.93,0,2.66,2.66,0,0,0,.49-.1,2.3,2.3,0,0,0,.42-.14,2.88,2.88,0,0,0,.73-.4,3.09,3.09,0,0,0,.67-.63c.18-.23.31-.48.47-.72a7.23,7.23,0,0,0,.7-1.12,9.47,9.47,0,0,0,.4-1.31,4.55,4.55,0,0,0,.16-1.37,5,5,0,0,0-.24-1.27h0a3.7,3.7,0,0,0-.39-.83,6.46,6.46,0,0,0-.54-.75c-.39-.47-.79-.93-1.19-1.39-.19-.21-.37-.42-.56-.62a4.58,4.58,0,0,0-.71-.61,4,4,0,0,0-.79-.41c-.22-.08-.44-.14-.66-.21a1.11,1.11,0,0,0,.59-.56c.05-.13.09-.25.15-.37l.13-.23c.16-.22.32-.43.49-.64l.35-.34c.18-.16.37-.32.54-.49a4,4,0,0,0,.48-.61,2.79,2.79,0,0,0,.36-.71,2.62,2.62,0,0,0,.14-.78,2.58,2.58,0,0,0-.08-.83,3.09,3.09,0,0,0-.23-.57,5.94,5.94,0,0,0-.61-1,2.21,2.21,0,0,0-.91-.75,2.17,2.17,0,0,0-.75-.18,3.62,3.62,0,0,0-.57,0h-.6l-.91-.08a6.58,6.58,0,0,0-.89,0h-.17l-1.23.07h-.2c-.27,0-.55.06-.83.1A4,4,0,0,0,72.1,9l-.62.38c-.25,0-.5.08-.74.13a3.69,3.69,0,0,0-.45.11,4,4,0,0,0-.45.15,4.11,4.11,0,0,0-.78.4c-.24.15-.47.31-.72.45l-.54.27c-.18.1-.34.21-.52.3a6.12,6.12,0,0,0-.56.31,2,2,0,0,0-.4.32l-.18.19,0,.06a7.25,7.25,0,0,0-.51.8,5.08,5.08,0,0,0-.4.85,11.35,11.35,0,0,0-.47,1.89,10.41,10.41,0,0,0-.06,1.85c0,.33,0,.65.06,1s.06.58.09.88v.34l0,.26c0,.15-.07.29-.11.43l-.14.35-.06.11h0v0l-.23.19a1.14,1.14,0,0,0-.32.07h0l0,0h0l0,0,0,0-.15.1-.51,0-.78.09-.51.06c-.47,0-1-.1-1.42-.11s-1.18,0-1.76,0l-1.66-.11-1.66,0-1.66,0c-.56,0-1.12,0-1.68,0-.79-.05-1.57-.12-2.36-.16s-1.55,0-2.32-.07c-.57,0-1.14-.1-1.71-.17l-1.76-.27c-1.13-.19-2.28-.37-3.41-.59h0c-.8-.16-1.61-.3-2.41-.45h0c-.39-.08-.78-.15-1.16-.24L35.91,19c-.78-.21-1.56-.42-2.32-.67-.49-.18-1-.36-1.45-.56l-.41-.17.39,0,1.3-.2h0l.78-.12.74-.08c.37-.05.72-.11,1.08-.19a2.85,2.85,0,0,0,.5-.14l.58-.19c.35-.13.68-.28,1-.43l1-.46h0l1.28.11h.05l.41,0h0q.32,0,.63.06l.6,0c.3,0,.6,0,.9,0s.65,0,1,0a16.8,16.8,0,0,0,1.74-.17,8.57,8.57,0,0,0,.88-.18c.16,0,.32-.07.47-.12l.43-.17a6.52,6.52,0,0,0,.84-.41c.27-.15.53-.31.79-.48l.17-.14.17-.13.17-.15.18-.18c.21-.21.4-.43.59-.65.38-.46.77-.91,1.16-1.35l1.2-1.4c.38-.44.76-.88,1.17-1.3l0,0L54,9v0h0V9h0l.48-.49,0,0h0l0,0h0c.36-.37.69-.76,1-1.15.15-.18.29-.35.45-.52l.5-.52L56.79,6l.32-.27.52-.4.18-.13a.38.38,0,0,0,.12-.38.27.27,0,0,0,0-.12l-.08-.1a.71.71,0,0,0-.18-.12,2.25,2.25,0,0,0-.44-.14,4.54,4.54,0,0,0-.82-.07l-.45,0h-.88c-.62,0-1.24,0-1.86-.07l-.93-.06-.9-.06c-.3,0-.6,0-.9-.05l-.91,0C49,4,48.37,4,47.78,4a8,8,0,0,0-2.44.33l-.69.26-.4.17-.5.22-.41.21a4.89,4.89,0,0,0-.76.48,4.15,4.15,0,0,0-.76.75,1.58,1.58,0,0,0-.12.15A7.79,7.79,0,0,0,41,7.58l-.24.5-.15.33c-.06.14-.13.29-.19.45v0h0v0h0l-.18.47h0c-.09.23-.17.47-.24.71l-.27.84c-.15.47-.33.94-.5,1.4-.06.16-.13.32-.2.48l-.21.4c-.15.27-.32.54-.48.81s-.33.51-.5.75l-.35.45-.34.36,0,0h0c-.23.1-.45.2-.68.28l-.69.24-.78.21c-.25.06-.51.1-.76.17-.55.15-1.11.27-1.67.38l-.4.06-.29,0-.44,0h-.31a.47.47,0,0,0-.17,0,.39.39,0,0,0-.14.1h0l-.1,0c-.26-.12-.51-.25-.78-.36l-.84-.36-1.85-.74c-.57-.24-1.13-.52-1.71-.75s-1.2-.46-1.81-.67-1.26-.43-1.89-.67l-.12-.05-1.82-1.42c-.76-.57-1.55-1.08-2.31-1.65s-1.25-1.07-1.85-1.63S14.5,7.64,13.9,7.05c-.33-.34-.66-.68-1-1s-.56-.69-.85-1c-.67-.76-1.38-1.49-2.1-2.22L9.54,2.3A10.67,10.67,0,0,0,8.15,1.2,15.85,15.85,0,0,0,6.75.3,2.21,2.21,0,0,0,5.26,0a1.58,1.58,0,0,0-.92.52L4.27.65a1.4,1.4,0,0,0-.07,1.4A3,3,0,0,0,5,3a6.41,6.41,0,0,0,.73.52c.46.3.94.56,1.41.85l1.28.8c.43.26.86.53,1.26.83.72.56,1.45,1.08,2.17,1.62l.11.09,0,0c.36.39.75.76,1.14,1.14L14.3,10a20.23,20.23,0,0,0,2.58,2.23c.44.3.88.59,1.32.9l1.26.92c.31.25.63.49.95.73s.5.53.76.79c.9.94,1.81,1.87,2.7,2.82s1.63,1.93,2.4,2.92l.41.54.08.12c0,.17.08.35.11.52s0,.06,0,.08c0,.17,0,.33,0,.5l0,.34c0,.27-.06.54-.1.8L26.6,25c0,.26-.07.52-.1.79s-.05.55-.07.83,0,.57,0,.85,0,.63,0,.94a16.61,16.61,0,0,0-.11,1.87c0,.16,0,.33,0,.49s0,.3.06.45l.12.89v.06a3.57,3.57,0,0,0-.38.3,5,5,0,0,0-.41.39,4.39,4.39,0,0,0-.57.77,4.93,4.93,0,0,0-.41.83,8.08,8.08,0,0,0-.26.93,3.18,3.18,0,0,0-.07.92,3.55,3.55,0,0,0,.09.47,4.68,4.68,0,0,0,.18.48,1.64,1.64,0,0,0,.38.56,1.43,1.43,0,0,0,1,.37,1.54,1.54,0,0,0,.93-.38,2,2,0,0,0,.5-.7,2.81,2.81,0,0,0,.16-.49,3.93,3.93,0,0,0,.06-.48c0-.29,0-.58,0-.88s0-.63,0-.94-.08-.64-.14-.95-.13-.59-.18-.88-.09-.69-.14-1a8.49,8.49,0,0,1-.11-1c0-.07,0-.14,0-.21s0-.3,0-.45,0-.32,0-.47c0-.31.05-.61.07-.92s0-.61,0-.92,0-.57,0-.86,0-.65,0-1c0-.6,0-1.2,0-1.8,0-.33,0-.65,0-1,0,0,0-.08,0-.13l.52.77c.34.55.67,1.09,1,1.64s.66,1.11,1,1.66a17.6,17.6,0,0,1,.72,1.87c.12.35.24.7.35,1.06h0v0h0l.33,1.12c.09.34.19.67.29,1l0,.11h0v0a2.06,2.06,0,0,0,0,.26c0,.1,0,.19,0,.29s0,.25,0,.38,0,.54,0,.81a12.33,12.33,0,0,0,.12,1.61c.06.37.13.73.21,1.1l.24.94c.08.34.16.67.23,1s.13.72.19,1.08v0l0,.19v0c.07.4.13.8.19,1.2s.14.79.22,1.18.18.68.29,1,.24.65.37,1c0,.15,0,.3.07.46s.11.5.16.75h0v.08h0v.1h0v.05h0v0h0v0c.05.33.09.67.13,1s.06.66.08,1v.23h0v0c0,.57,0,1.13,0,1.7,0,.28,0,.56,0,.84s0,.57,0,.85,0,.29,0,.43l.06.45c0,.14,0,.28.08.42s0,.25.07.37a15.12,15.12,0,0,0,.49,1.62c.11.26.21.52.33.77s.26.51.41.76.24.4.38.6l.43.6.88,1.17.5.72c.14.21.28.43.43.64l.27.37.27.34a3.91,3.91,0,0,0,.59.56ZM50.08,44.66h0l.12,0,.2,0,.13,0,.27-.06.62-.17.1,0,.11,0c.44-.13.89-.27,1.34-.38h0l.31-.07.31-.07.21,0,.58-.13c.43-.09.94-.19,1.46-.26h.09l.33,0,.52,0h.93c.3,0,.6,0,.89,0l.9,0h.09a3.55,3.55,0,0,1,.46,0l.53.06.1,0a3.11,3.11,0,0,1,.44.08c.18,0,.35.08.53.12.45.13.92.27,1.31.4l.66.2.49.19.08,0,.33.16.14.06h0l0,0h0l0,0,.27.15.14.08a10.87,10.87,0,0,1,.94.62,9.84,9.84,0,0,1,.82.76l.87.93c.37.41.74.83,1.1,1.25l.39.44.23.26.23.26.26.27.11.13c.26.27.52.53.79.78l0,0h0l.27.24.13.12.07.05.25.23.91.76c.4.34.82.67,1.22,1A25.77,25.77,0,0,1,76,54.81a3.07,3.07,0,0,1,.29.34c.14.19.26.39.38.59l0,0c.39.69.73,1.4,1,1.93l.18.38.31.64c.08.16.15.32.24.48l0,.09h0l-.23-.06-.67-.17h0l-.5-.14-.29-.08L76,58.65l-.12,0-.34-.09-.23-.05L75,58.41l-.32,0-.13,0-.84-.09a7.07,7.07,0,0,0-1.3,0l-.4.06-.15,0-.51.09-.61.1-.36.06-.67.11-.38.06-.77.14-1.11.18c-.23,0-.45,0-.65,0l-.52,0a5.17,5.17,0,0,1-.54-.11h0a4.84,4.84,0,0,1-.61-.22,4.15,4.15,0,0,1-.56-.27h0l-.11-.06-.06,0c-.14-.09-.29-.19-.46-.32-.73-.58-1.44-1.2-2.13-1.81l-1.06-.93-.27-.23c-.48-.41-1-.82-1.43-1.24s-1.15-1-1.67-1.55l-.24-.24-.35-.37-.38-.41-.13-.13c-.38-.41-.76-.82-1.13-1.2l-.1-.1-.72-.75L54,48.86l-.49-.52c-.45-.46-.94-.92-1.48-1.42h0l.13.06.4.16c.4.17.82.33,1.27.48s.85.27,1.27.39l.54.15c.56.16,1.15.35,1.75.57l.35.12c.48.18,1,.36,1.49.51a12.68,12.68,0,0,0,1.81.42l.85.14H62c.34.06.69.14,1,.21-.27-.21-.51-.38-.73-.52s-.47-.26-.67-.37c-.48-.24-1-.44-1.43-.63s-.78-.29-1.17-.42L58.4,48c-.55-.2-1.21-.44-1.88-.65-.38-.12-.77-.24-1.14-.34l-.32-.1-.32-.09c-.31-.09-.61-.19-.91-.3L53,46.19c-.24-.1-.49-.21-.72-.33s-.51-.25-.76-.39l-.65-.35-.68-.39h0l-.09-.06ZM43.79,35.9h0a19.79,19.79,0,0,1,2-.43l.48-.06h.51l.33.06.4.12.3.14h0l0,0h0l.25.16.16.13a1.07,1.07,0,0,1,.14.16,1.13,1.13,0,0,1,.12.18s.05.09.08.14,0,0,0,.06a.29.29,0,0,1,0,.09.11.11,0,0,0,0,0s0,.05,0,.07,0,.07,0,.1l-.05.17a2.1,2.1,0,0,1-.13.26,1,1,0,0,1-.08.14h0l-.07.09-.07.06-.06,0L48,37.7l-.08,0-.12,0-.18,0h-.19l-.17,0h-.1l-.08,0a3.13,3.13,0,0,1-.49-.16,8,8,0,0,1-1-.45l-.61-.36-.65-.43-.61-.4ZM89.23,63.54h0l.36.71.31.59L90,65l.12.24,0,.06,0,.07a1,1,0,0,1,.07.15l0,.07c0,.08.07.15.1.23l.06.12a1.54,1.54,0,0,0,.08.19l0,.09,0,.05h0l0,0,0,.11.09.22c.16.38.32.77.47,1.15l.11.27c.09.22.18.45.26.67v0a5.76,5.76,0,0,1,.18.59l0,0v.05a3.4,3.4,0,0,1,.07.34,2.5,2.5,0,0,1,.06.38l0,.23c0,.17,0,.34.07.5v.06h0v.24c0,.25.07.5.11.75s.07.45.1.68,0,.34,0,.5,0,.29,0,.44v.1c0,.11,0,.23,0,.35s0,.29,0,.43l0,.1c0,.12,0,.24-.06.36s-.07.31-.1.47l-.22.72c-.06.19-.12.39-.19.58l0,.11c0,.13-.08.26-.13.39-.1.33-.22.67-.34,1-.07.15-.13.31-.21.46l-.25.47h0l0,.08c-.12.23-.26.46-.39.68h0l-.49.78-.09.14c-.24.38-.48.77-.73,1.14s-.56.87-.79,1.29h0l0,0,0,0-.4.74c-.24.49-.45.94-.64,1.39-.11.28-.22.56-.32.84l-.21.57v0h0l0,.07a2.88,2.88,0,0,1-.13.31h0l0,0-.06-.2h0l-.09-.27c0-.1-.07-.21-.1-.32s-.09-.23-.12-.35-.1-.3-.14-.45c-.1-.32-.2-.64-.31-1l-.27-.76-.28-.7c-.1-.24-.19-.48-.29-.71l-.23-.68,0-.1,0-.1a4.7,4.7,0,0,1-.12-.51l0-.2,0-.23c0-.16-.07-.31-.11-.47s-.12-.49-.17-.74l0-.15c0-.19-.08-.39-.11-.58v-.1c0-.24,0-.49,0-.75v-.12c0-.12,0-.23,0-.34V76.9c0-.28,0-.53,0-.77l0-.46c0-.33,0-.67-.06-1,0-.14,0-.24,0-.36s0-.24,0-.35a3.52,3.52,0,0,1,.1-.51c0-.18.11-.36.19-.57s.16-.38.24-.57l.2-.45c.14-.35.26-.7.37-1l.06-.17.06-.21c.16-.49.32-.93.48-1.34s.3-.7.45-1c.23-.5.47-1,.65-1.37s.44-.88.67-1.31l0-.07.32-.55.44-.65.42-.62.19-.3,0,0h0l0,.15c0,.5.08,1,.13,1.51l0,.18c0,.17,0,.34,0,.51s0,.46,0,.72,0,.74-.06,1.12l0,.33-.06.79c0,.53-.06,1-.07,1.44l0,.77c0,.2,0,.4,0,.6v.11c0,.29-.09.58-.13.87-.07.44-.14.91-.18,1.37,0,.26,0,.52-.05.78s0,.5,0,.75,0,.37,0,.55v.19l0,.69c0,.19,0,.39,0,.58s0,.33,0,.49v0c0,.11,0,.22,0,.33a2.25,2.25,0,0,0,0-.22l.09-.38c0-.23.09-.49.13-.76s.06-.42.08-.64v-.09l.06-.6V75.2c0-.18,0-.35,0-.52l0-.16c0-.28.09-.56.13-.81,0-.1,0-.21,0-.3s.07-.39.11-.59l.09-.44c0-.26.09-.51.12-.76a7.77,7.77,0,0,0,.09-.8c0-.24,0-.49,0-.7s0-.5,0-.74c0-.53,0-1,.08-1.42l0-.32c0-.37.06-.76.07-1.14s0-.57,0-.81,0-.43-.06-.64v0c-.06-.48-.11-1-.15-1.5h0Zm6,1.49.53.2.2,0,.1,0,.19,0h0l.55.08h1l.91,0,.25,0,.72.06.44,0,.23,0,.22,0,.15,0c.25,0,.51,0,.77,0h1.25l.34,0c.17,0,.35.06.53.11s.37.12.55.18l.06,0,.18.07.18.08h0l.09,0,.08,0,0,0,.15.07h.07l.18.11.19.1h0l.13.09.07,0,.11.07.16.1.25.18.16.12.32.24.08.06.08.06h0l.15.12.12.09.07.07.16.12.31.27.31.27c.3.26.58.53.86.79l.17.16,0,0h0l.15.16.3.3.12.13,0,.06h0c.07.08.15.16.22.25s.17.21.26.32l.11.13.19.26a1,1,0,0,1,.13.16h0l0,0,.38.52.43.62c.24.34.53.75.84,1.15.18.23.39.47.65.76s.27.31.4.46a1.59,1.59,0,0,1,.13.13l.13.14.1.1.3.29.09.08.38.36.48.46.28.28a7.63,7.63,0,0,1,.53.59,4.3,4.3,0,0,1,.29.45c.18.34.34.7.48,1,0,.14.09.26.12.38l0,.06.09.54c0,.18.05.37.08.55l0,.23,0,.23,0,.13c0,.13,0,.27.06.4s.08.4.13.57a.7.7,0,0,0,.06.19h0l0,0h0l0,0a4.55,4.55,0,0,0-.55-.26,3.54,3.54,0,0,0-.58-.17,3.2,3.2,0,0,0-.62-.09h-.1l-.44,0h-2.13l-.44,0-.48-.09-.46-.12L111,81h-.09l-.06,0-.07,0-.18,0-.11,0-.13,0c-.61-.17-1.25-.35-1.9-.47l-1.08-.16h0l-.17,0h-.06l-.1,0a.9.9,0,0,1-.16,0l-.26-.06-.25-.06-.21-.06-.08,0-.15,0-.21-.08-.18-.06h0l-.16-.06-.31-.14-.3-.13-.17-.08-.75-.39-.07,0c-.38-.22-.72-.43-1-.65l-.48-.33-.5-.37-.46-.36L101,77l-.23-.18-.28-.25-.12-.09-.3-.28,0,0,0,0a2.09,2.09,0,0,1-.22-.2l-.1-.1-.22-.26-.13-.14-.21-.26,0-.06-.45-.57-.07-.09-.06-.08a5.15,5.15,0,0,1-.32-.45c-.11-.15-.21-.31-.31-.47a7.12,7.12,0,0,1-.37-.79,5.88,5.88,0,0,1-.2-.59c0-.12,0-.24-.07-.35v-.06a2.38,2.38,0,0,1,0-.26,8.4,8.4,0,0,0-.24-1,6,6,0,0,0-.25-.61c-.09-.2-.21-.42-.34-.65s-.31-.52-.47-.78l-.31-.53-.31-.54c-.1-.17-.23-.41-.35-.65s-.2-.43-.3-.68h0l0,0v0l0-.06,0-.06,0,0v0l-.05-.12h0l-.11-.25h0l.09.09c.12.11.23.23.35.35a6.58,6.58,0,0,0,.77.66l.37.28.31.23h0c.21.24.39.47.56.69l.06.08c0-.14-.11-.28-.17-.41h0l.08.07c.18.14.36.28.53.43l.59.51.39.35c.41.37.81.75,1.22,1.14l.74.69c.24.22.5.42.75.63l0,0a16.43,16.43,0,0,0,1.71,1.22c.3.18.6.35.89.5l.35.17c.18.09.36.17.53.27s.63.34.94.52l.86.48c.61.32,1.22.65,1.84,1l.1.06.34.17a2.77,2.77,0,0,0,.53.2,7,7,0,0,0,.91.17l0,0,0,0a5.67,5.67,0,0,0-.7-.58,7.23,7.23,0,0,0-.76-.45l-.16-.08-1.76-1,0,0-.71-.43-.78-.46-.87-.48-.6-.32c-.23-.14-.52-.31-.78-.49s-.51-.35-.78-.56h0l0,0L102,71l-.18-.14c-.57-.46-1.07-.9-1.54-1.35s-1-.94-1.51-1.42c-.26-.24-.53-.46-.76-.65s-.53-.43-.82-.64l-.06,0c-.24-.17-.47-.35-.72-.51l0,0-.77-.55c-.34-.27-.65-.54-.92-.78h0l0,0A5.11,5.11,0,0,0,95.19,65Zm27.72,20.85.36.31.18.16.48.43c.14.14.27.28.4.43l.09.13.1.14c0,.08.09.16.13.24a2.64,2.64,0,0,1,.13.37,2.33,2.33,0,0,1,.07.25v.06a.5.5,0,0,1,0,.13l0,.14,0,.15c0,.35.08.69.1,1h0V90h0v0a3.34,3.34,0,0,1,0,.44s0,.08,0,.12l0,.08h0v0a.36.36,0,0,1,0,.09h0l-.06.1,0,0a.1.1,0,0,0,0,.05l0,0,0,0,0,0h-.2l-.12,0h0l0,0,0,0,0,0-.12-.13a1.07,1.07,0,0,1-.15-.22,6.61,6.61,0,0,1-.3-.59l0-.1-.09-.24-.11-.35c-.09-.3-.17-.63-.24-1l0-.18c-.08-.41-.17-.81-.26-1.22l0-.17c-.08-.37-.16-.75-.26-1.11h0Zm3.15-8.28,0,0L126,77.5c-.12-.12-.22-.24-.32-.35l-.28-.33-.3-.35c-.11-.12-.23-.23-.35-.34l-.16-.12h0c.23.09.45.16.66.22l.91.26.43.12.37.13a7.09,7.09,0,0,1,.76.35l0,0,0,0,.14.09.1.09s0,0,.05,0l0,0,0,.05a.3.3,0,0,0,0,.1v0s0,0,0,0a.2.2,0,0,1,0,.07s0,.07,0,.1v0l0,0s0,.09-.05.13L128,78v0l0,0,0,0-.07,0-.17.06-.1,0h-.23l-.27,0-.18-.06a3.26,3.26,0,0,1-.38-.18l-.29-.18A.93.93,0,0,1,126.06,77.6ZM136.82,83l.52.55h0c.08.09.17.17.25.25l.47.48c.25.26.47.53.68.78l0,0h0l0,0,0,0,.77,1c.11.14.22.3.33.46s.23.34.34.53v0h0l.3.52c.28.48.5.9.71,1.31l.42.89c.15.32.31.67.48,1.07h0l.05.11,0,.13c.16.38.33.78.48,1.18l.08.2.21.59c.07.25.15.49.22.74a2.86,2.86,0,0,1,.07.28c0,.1.05.19.07.29s.06.33.09.49v0l0,.12a2.45,2.45,0,0,1,0,.27v.83a1.79,1.79,0,0,1,0,.23.45.45,0,0,1,0,.11c0,.21,0,.43-.06.64v.1h0v0l0,.14-.12.64c-.05.26-.11.52-.18.77l-.15.59c-.08.32-.17.64-.25,1,0,.13-.07.28-.11.43l0,.1,0,.09c-.05.17-.09.34-.15.51l0,0a.83.83,0,0,1-.08.12l0,0,0,0,0,0,0,0h0l0,0,0,.05h0l-.06,0c-.15-.11-.29-.23-.43-.35l-.45-.36a3,3,0,0,0-.6-.38,1.87,1.87,0,0,0-.32-.15l-.26-.12-.22-.15a6.57,6.57,0,0,1-.5-.44l-.27-.27c-.26-.26-.47-.48-.65-.69l-.05,0-.35-.42c-.12-.13-.22-.26-.31-.37l-.63-.77-.73-.9c-.23-.3-.46-.61-.7-.91l-.23-.31-.05-.06c-.29-.39-.6-.8-.87-1.21l0-.06,0-.07h0a4.69,4.69,0,0,1-.22-.46,9.78,9.78,0,0,1-.34-1V92.3l0-.08a5.27,5.27,0,0,1-.14-.65,5.32,5.32,0,0,1,0-.6c0-.24,0-.5,0-.75s0-.52.07-.77.08-.4.12-.58.14-.45.21-.68.12-.44.21-.67.29-.65.44-1,.3-.63.44-.94a4.89,4.89,0,0,0,.2-.46c.07-.16.14-.33.2-.51s.11-.32.17-.49.1-.35.14-.53.12-.68.17-1c0-.12,0-.25,0-.37h0c.15.44.29.88.42,1.31s.22.9.29,1.3.11.69.16,1l0,.3c0,.33.09.63.15.91s.14.61.22.89a11.85,11.85,0,0,0,.64,1.74c.08.18.17.35.26.52l.14.27c.13.26.25.51.37.77l.05.11c.23.49.51,1.07.76,1.66l.15.36.09.25,0,.11a2.25,2.25,0,0,1,.08.24l0,.11.06.21,0,.11c.09.34.16.66.23,1,0,.13.05.26.08.4s.07.34.11.51l.09.43c0,.14.06.29.1.43.06.33.12.63.16.9v.11l0,.11v0c0,.3.07.59.09.89a1.44,1.44,0,0,0,.22.67,1.14,1.14,0,0,0,.21-.7c0-.13,0-.26,0-.39v0c0-.16,0-.32,0-.47,0-.31-.09-.63-.15-.94s-.09-.45-.14-.67l0-.24c-.06-.28-.12-.57-.17-.85v0c-.05-.28-.11-.58-.18-.86s-.09-.35-.13-.52l-.15-.47c0-.13-.09-.27-.14-.4l0-.1-.12-.31,0,0-.06-.13v0l-.09-.21,0,0,0,0v0h0c-.08-.2-.17-.4-.26-.6l-.09-.19-.15-.32c-.06-.15-.13-.29-.19-.43-.15-.32-.26-.57-.38-.8s-.13-.25-.19-.38-.11-.23-.16-.35l0,0L138.2,89v0c0-.07-.05-.14-.08-.2s-.13-.36-.19-.52-.14-.46-.2-.69l0,0,0-.16-.06-.26c0-.15-.08-.31-.11-.47s-.1-.55-.14-.82v-.06c0-.32-.1-.63-.15-1s-.1-.53-.16-.79l0-.12c0-.14-.07-.28-.11-.41s-.07-.29-.12-.44l-.06-.18h0v0Zm3-12.26a1,1,0,0,1,.05-.16l0-.11c0-.11.08-.23.12-.34.15-.36.31-.69.48-1v0l0,0v0a8.77,8.77,0,0,1,.52-.79l.55-.78h0l0,0a2,2,0,0,1,.17-.23l.07-.08.31-.35c.35-.35.73-.68,1.05-1l.31-.26.74-.63.59-.51.09-.07.09-.07a.51.51,0,0,1,.13-.09l.06,0,.26-.16.1-.06.14-.07c.28-.16.58-.33.89-.47s.46-.16.69-.23l.06,0h.05l.32-.08.34-.09.34-.08.15,0,.21-.05.21,0,.42-.1.59-.12.63-.1h0a3.27,3.27,0,0,1,.45,0h1.37l1.18-.05h.2l.67,0,.29,0,.29,0,.3,0,.16,0,1.17-.17.62-.1c.25,0,.49-.05.74-.06h.12l-.06.05-.27.29-.48.55-.14.18,0,0c-.08.11-.17.23-.25.36l-.24.41c-.14.24-.26.5-.37.74l0,.06,0,.06-.2.41c-.06.14-.12.27-.19.41s-.28.57-.42.83l-.09.16-.08.13a1,1,0,0,1-.11.17l0,.07,0,.06-.12.16,0,0-.22.27h0l0,0h0l0,0-.07.08-.14.14-.17.15-.08.07-.37.31-.12.1-.15.12-.55.42c-.51.4-1,.78-1.51,1.12l-.11.08-.67.47c-.27.17-.53.35-.8.51s-.34.21-.52.3-.37.19-.57.28-.59.24-.84.32l-.42.14-.38.12-.13,0-.39.1-.52.09-.72.06-.53,0-.52-.06h-.05l-.67-.09-.71-.05-.35,0h-.3l-.71,0L141,72l-.78-.17-.14,0-.85-.19h0l.15,0h.05c.54-.16,1.11-.35,1.85-.62s1.24-.48,1.81-.73l.82-.39c.32-.17.62-.31.9-.44l.28-.11c.31-.12.63-.25.94-.4l.36-.18.19-.1.39-.2.17-.08h0l.12-.06.55-.19c.14,0,.29-.09.43-.15l-.42-.07a2.83,2.83,0,0,0-.41,0,1.84,1.84,0,0,0-.41.05,1.71,1.71,0,0,0-.38.13c-.15.06-.3.15-.44.22l-.24.13c-.22.12-.45.23-.72.35l-.13,0-1,.46-.15.07c-.33.16-.67.33-1,.48h0l-.46.18-.62.22-.42.16-1.42.45h0l-.09,0-.09,0h0Zm4.36,9.2.49,0h.16l1.16.08.76.08,1.08.09.55,0,.42,0,.86.08h0l.39.07.39.08h0l.11,0,.29.08h0l.36.12h0l.36.15a2.91,2.91,0,0,1,.35.18l.3.17.27.19.44.36.47.4.31.28.1.08.21.2.17.15.15.16.15.15c.05,0,.11.1.15.15l.17.19.33.35.23.28c.28.32.56.65.83,1h0l.1.12a4.53,4.53,0,0,1,.3.46c.16.27.31.56.5,1l.08.17.15.35.09.2.16.38.12.33,0,.13,0,.05.14.42.05.19.11.38.09.41c0,.16.08.33.11.49l0,.18.06.34.07.48,0,.14c0,.15,0,.3,0,.46l0,.72V93c0,.32,0,.63,0,.93,0,.62.09,1.24.15,1.82l.05.54,0,.31v.18c0,.23,0,.47,0,.71v.17c0,.08,0,.17,0,.25v.15a1.09,1.09,0,0,1,0,.18v.17l0,.5h0l0,.28c0,.19-.05.39-.08.59s0,.24-.05.36c0,.31-.09.62-.13.92v.08c0,.12,0,.25,0,.38a4.41,4.41,0,0,0,0,.52,2.94,2.94,0,0,0,0,.42v.25h0l0,0-.16-.1-.23-.18-.12-.08,0,0c-.19-.15-.37-.28-.55-.4s-.26-.16-.38-.25l-.2-.11-.09,0-.07,0-.2-.11-.41-.21-.21-.1,0,0-.1,0-.22-.1-.15-.06-.37-.14-.23-.08-.1,0-.09,0-.1,0-.1,0-.1,0-.1,0-.49-.14-.76-.23-.61-.2,0,0-.09,0-.09,0-.07,0-.13,0-.09,0-.43-.22h0l-.12-.08a4.37,4.37,0,0,1-.51-.33l-.23-.18-.07-.06-.15-.11L150,98.3l-.12-.11a3.7,3.7,0,0,1-.28-.28l-.23-.23-.22-.23-.52-.6-.22-.27a8.18,8.18,0,0,1-.51-.74l-.27-.49-.06-.12-.13-.26-.12-.24c-.08-.17-.16-.34-.23-.51l-.15-.33-.09-.23-.13-.33c0-.12-.09-.24-.13-.35a2,2,0,0,1-.08-.22l0-.11,0-.07a2.25,2.25,0,0,0-.08-.24v0h0v0a.56.56,0,0,1,0-.12l0-.11h0l0,0,0-.08h0v0l0-.06h0v-.07h0v0c0-.12-.06-.24-.08-.36a1.74,1.74,0,0,1,0-.22l0-.15c0-.12,0-.24-.09-.36l-.13-.5c-.07-.26-.15-.51-.24-.76v-.06l0,0,0-.11,0-.06c-.08-.23-.15-.46-.22-.69s-.19-.61-.27-.91-.21-.83-.3-1.29l0-.19c0-.13,0-.27-.09-.41l0-.17c0-.15-.06-.29-.1-.44h0l0-.09,0-.11-.06-.21v0c-.07-.26-.15-.51-.22-.76s-.11-.34-.16-.51c-.1-.33-.19-.66-.29-1l0-.18v0c0-.11-.06-.23-.08-.34s-.06-.27-.08-.41a2.54,2.54,0,0,1,0-.29c0-.12,0-.25-.05-.37v-.08c0-.09,0-.17,0-.26h0c.36.34.74.71,1.11,1.08s.88.89,1.26,1.25L146,83l.36.34.14.13.27.25.81.83,0,0h0l.1.11.21.23.09.11.21.26c.22.3.46.59.69.88s.36.43.54.64.5.57.75.83c.09.11.19.21.28.31l.09.09c.13.14.25.28.38.41l.21.24.48.53a2.32,2.32,0,0,0,.27.29,1.79,1.79,0,0,0,.26.2,2.3,2.3,0,0,0,.44.23,2.18,2.18,0,0,0-.26-.78,1.63,1.63,0,0,0-.11-.17l-.14-.18-.05-.06-.21-.24c-.37-.43-.75-.85-1.13-1.27l-.72-.83c-.23-.26-.45-.53-.66-.79l-.11-.14c-.07-.09-.15-.18-.22-.28l-.1-.12-.25-.32c-.14-.16-.26-.31-.4-.45l0,0-.37-.38c-.42-.43-.87-.84-1.3-1.24l-.31-.27c-.47-.44-.92-.91-1.37-1.36l-.15-.16-.45-.46-.41-.4h.14A1.88,1.88,0,0,0,144.21,80ZM105.67,56.36h0l.29,0a6.52,6.52,0,0,0,.79.12l.48,0h.24a7.22,7.22,0,0,0,.82,0,11.71,11.71,0,0,0,1.19-.14h.09l.41-.06.82-.12.65-.15A5.18,5.18,0,0,0,112,56l.07,0c.4-.14.77-.25,1.15-.35l.54-.11H114l.17,0h.06l.81,0h.73c.29,0,.57,0,.85,0H117l.42,0,.85.06.43,0,.36.06.76.16.39.1h0l.28.08.34.11.24.08c.25.08.5.18.77.29a2.76,2.76,0,0,1,.42.19c.26.16.5.35.74.53l.17.13h0l.07.06.26.21.34.32.37.35.3.29c.5.49.91.88,1.28,1.26l.32.33c.33.35.68.74,1.1,1.22l.16.18c.18.21.38.43.56.65l.12.15.22.27.14.18.14.19c.24.34.46.66.65,1l0,.08c.18.3.37.61.56.9a3.43,3.43,0,0,0,.33.48,4.51,4.51,0,0,0,.39.45,2,2,0,0,0,.37.28h0l-.09,0-.81.23-.79.24-.35.11-.05,0c-.34.1-.68.2-1,.32s-.79.28-1.15.43l-.64.25h0l-.08,0c-.22.09-.44.18-.67.25l-.1,0-.31.1-.26.07-.14,0-.12,0-.12,0-.08,0-.14,0-.41,0-.29,0h-.57l-.29,0h-.13l-.37,0-.37,0c-.59-.06-1.16-.13-1.74-.18l-1.24-.17-.28,0-.45-.08-.24,0c-.29-.06-.59-.11-.88-.19h0l-.07,0-.46-.15-.75-.35-.71-.37h0l0,0,0,0-.26-.15-.29-.21-.42-.37-.1-.11a2.39,2.39,0,0,1-.22-.23,1.9,1.9,0,0,1-.19-.21l-.08-.1c-.18-.22-.36-.45-.52-.67l-.33-.48c-.09-.12-.16-.25-.24-.38l-.08-.15a1.32,1.32,0,0,1-.12-.2l-.21-.34-.39-.59-.25-.36-.13-.17a6.12,6.12,0,0,0-.4-.49l-.39-.48,0,0-.8-.9c-.29-.31-.59-.63-.9-.94s-.64-.64-1-1-.48-.46-.73-.68h0l.1,0,.74.24,1.3.49,1,.43c.36.17.7.35,1,.51h0l0,0h0l.07,0,.3.17.58.34,1.09.64c.28.16.57.31.86.46l.19.1.42.21.57.29,1.06.57.21.11c.28.15.56.31.85.45l1.12.52.58.24.58.25.43.19.68.29a8.19,8.19,0,0,0,1.56.45l.16,0,.62.12.43.07h.07l.18,0,.4,0h.88l.09,0h0l.29.08.35.1.17.05c.27.08.56.16.83.27h0l.11.05.1,0a.34.34,0,0,0,.34-.12l0-.06a.35.35,0,0,0-.08-.42.94.94,0,0,0-.12-.09l-.17-.07-.33-.09-.08,0-.19-.05-.23-.06-.32-.09h0l-.16,0h0l-.09,0h0l-.13,0-.07,0-.17,0-.29,0h-.46a4.52,4.52,0,0,1-.52,0l-1-.17-.23,0c-.45-.08-.8-.15-1.13-.23l-.59-.19-.18-.07L120,63.2l0,0h0l-.07,0-.76-.32-.08,0-.31-.13-.16-.07-.28-.13-.24-.11-.55-.28c-.24-.12-.47-.25-.7-.38l-.13-.08-.38-.22c-.5-.3-1-.59-1.53-.86l-.52-.28-.87-.47-.88-.53c-.63-.38-1.28-.77-2-1.12a20.52,20.52,0,0,0-2.24-1c-.71-.26-1.45-.49-2.2-.7l-.17,0-.18-.05h0ZM110,41.62h0l.13-.33a1.55,1.55,0,0,0,.07-.23l0-.06a5.35,5.35,0,0,1,.2-.66,6.53,6.53,0,0,1,.36-.76,7.61,7.61,0,0,1,.51-.75v0l.11-.14h0l.21-.25.24-.22a2.6,2.6,0,0,1,.36-.25l.3-.16.22-.08.19-.07.2,0h.34l0,0c.07.06.14.13.21.18A1,1,0,0,0,114,38l.16.08.24.12.1.06.11.09,0,0,.07.11a1.09,1.09,0,0,1,.08.15l0,.05v0c0,.07,0,.15.05.23a2.81,2.81,0,0,1,0,.29c0,.13,0,.25,0,.38a4,4,0,0,1-.09.43c0,.11-.07.23-.11.36l-.16.41a1.67,1.67,0,0,1-.08.2.74.74,0,0,0-.06.27.59.59,0,0,0,0,.23,1.33,1.33,0,0,0,.14.19l0,0,.12.15a3.46,3.46,0,0,1,.22.31.37.37,0,0,1,0,.11,1.07,1.07,0,0,1,.07.19,1.55,1.55,0,0,1,0,.21,1.48,1.48,0,0,1,0,.21,2.17,2.17,0,0,1,0,.26,1.06,1.06,0,0,1,0,.19l0,.11,0,.06,0,0v0a.09.09,0,0,0-.06,0l-.08,0-.15.05-.12,0-.13,0-.28,0h0a4.17,4.17,0,0,1-.52,0h0l-.35-.07c-.19-.05-.38-.12-.63-.21l-.3-.14h0l0,0c-.15-.08-.29-.18-.45-.28l-.14-.1-.1-.06a1.35,1.35,0,0,0-.26-.15l-.06,0-.24-.13-.29-.17-.23-.12h0l0,0,.27-.13L111,42l.56-.26.56-.3.14-.08,0,0,.42-.21.36-.17.54-.2h-.27a4.77,4.77,0,0,0-1,.06,9.31,9.31,0,0,0-1,.24,9.43,9.43,0,0,0-1.37.59h0Zm9.32,4.9-.22.07-.42.09-.47,0h-.17c-.2,0-.4,0-.6,0H117l-.23,0-.45-.07h-.09c-.23,0-.47-.08-.71-.14a6.15,6.15,0,0,1-.76-.25h0a6.28,6.28,0,0,1-.58-.27l-.43-.27-.39-.33-.31-.28c-.17-.15-.35-.31-.51-.47l0,0-.07-.07,0,0,0,0h0c0-.06-.11-.11-.16-.16l0,0-.05,0h0l-.16-.15c-.22-.22-.43-.41-.65-.61l-.1-.09-.07-.07-.32-.29h0c.13.07.25.15.37.23l.33.27.34.28a2,2,0,0,0,.39.24l.38.16a5.11,5.11,0,0,0,.77.23l.38,0h.42a4.18,4.18,0,0,0,.51-.06l.25-.07.25-.1a1.15,1.15,0,0,0,.33-.26l.06-.09h0l0,0,.23.16,0,0,.27.17c.37.24.73.5,1.09.77l1.22.88.21.15.1.06.33.21h0l.25.14h0ZM123.15,35l.3.1.13.06a.61.61,0,0,1,.14.07,1.67,1.67,0,0,1,.24.16l.24.16a5.35,5.35,0,0,1,.5.41h0l0,0h0l.05.06h0l.14.14h0l0,0h0l0,0h0c.19.2.39.4.57.62h0l0,.05a2.78,2.78,0,0,1,.19.27c0,.08.09.16.12.24l.06.16a1.29,1.29,0,0,1,0,.19c0,.31,0,.62,0,.93v.08c0,.18,0,.35,0,.53s0,.35,0,.53l-.06.56-.07.56a1.36,1.36,0,0,1,0,.2c0,.12,0,.24,0,.37v.07c0,.21-.07.42-.13.63a2,2,0,0,1-.1.32,4.6,4.6,0,0,1-.22.45h0v0l-.09.15a4.78,4.78,0,0,1-.32.5h0v0h0a1.13,1.13,0,0,1-.1.13c-.16.2-.33.38-.5.56l-.1.09-.19.19-.15.13-.15.12a3.44,3.44,0,0,1-.38.27,5.39,5.39,0,0,1-.48.25l-.43.16-.49.15-.41.11-.13,0-.28.07-.34.07-.3,0h-.25l-.21,0-.22-.07-.27-.13-.27-.13-.39-.23-.44-.29-.83-.55-.77-.52c-.24-.15-.48-.31-.76-.47a1.13,1.13,0,0,0-.33-.13h0a2.9,2.9,0,0,0,.06-.41,2.4,2.4,0,0,0,0-.54,1.67,1.67,0,0,0-.12-.5,2.37,2.37,0,0,0-.26-.47,3.55,3.55,0,0,0-.23-.31l0,0v0l0-.1c.06-.17.12-.33.17-.49a3.8,3.8,0,0,0,.15-.51,5,5,0,0,0,.09-1,2.36,2.36,0,0,0-.08-.5,1.7,1.7,0,0,0-.34-.67,1.48,1.48,0,0,0-.34-.3l-.22-.13-.17-.07-.24-.11-.1-.06,0,0h0l.05,0,.23-.07.19-.06.1,0,.36-.11.87-.32c.6-.21,1.18-.44,1.74-.68l.09,0,.77-.31a7.69,7.69,0,0,1,.81-.27l.09,0,.37-.09.52-.11h0l.61-.07.73,0h.31l.17,0h.19l.33,0Zm-13.49,6.2a.53.53,0,0,1,0-.13,8.79,8.79,0,0,1,.07-1c0-.12,0-.25.07-.37s.09-.27.14-.4.23-.51.37-.79c.08-.13.16-.26.23-.39l.16-.27.3-.54.07-.14c.16-.27.32-.53.5-.78l0,0,0,0,0-.06c.11-.17.24-.33.37-.5l0,0a3.31,3.31,0,0,1,.3-.34c.12-.11.25-.23.38-.33s.25-.19.38-.28l.34-.22.56-.27c.55-.22,1.17-.43,2-.66l.52-.11.1,0h.11a1.84,1.84,0,0,1,.33,0l.39,0h.08l1.45.23c.54.09,1,.17,1.44.28.25.07.5.15.78.25h-.06l-.29,0-.52.07-.37.08h0l-.49.14-.49.15c-.14,0-.28.1-.39.14l0,0-.42.18-.89.41c-.5.24-1,.49-1.67.77l-.8.34a7,7,0,0,1-.83.31l-.17,0h0a1.91,1.91,0,0,0-1,.15l0,0h0l0,0,0,0h0l-.4.21a4.71,4.71,0,0,0-.42.32,2.34,2.34,0,0,0-.35.36l-.05.06a2.43,2.43,0,0,0-.24.32c-.2.32-.37.59-.51.87s-.27.56-.4.88l-.18.52c0,.14-.09.28-.14.42a1.63,1.63,0,0,1-.11.23h0Zm-17.72.06h0l.35,0,.49-.08.43-.11.43-.12.48-.14a6,6,0,0,1,.85-.19,1.36,1.36,0,0,1,.29,0h.29l.23,0,.18,0,.29.13.13.07a2.4,2.4,0,0,1,.26.18l.1.09.08.08.06.09,0,0s0,0,0,.06v.09a.13.13,0,0,1,0,.06s0,0,0,.08l0,.13a2,2,0,0,1-.1.21,1.37,1.37,0,0,1-.13.2l0,0-.09.11-.11.1-.13.09-.14.07-.27.1-.23.05c-.12,0-.23,0-.35,0h-.36l-.23,0-.33-.1L94,42.45l-.48-.29-.49-.3-.05,0a4.17,4.17,0,0,0-.46-.26,5.83,5.83,0,0,0-.55-.25ZM75,38.66c.29.11.58.19.88.29l-.3-.09-.33-.1-.2-.07-.28-.07,0,0-.13-.08Zm-30.4-9.31.58.13a14.65,14.65,0,0,0,2.18.3c.75,0,1.49,0,2.24.08a5.43,5.43,0,0,1,.57,0l.68.06c.32,0,.64.07,1,.11l.86.15c.3.05.6.12.9.18l1.67.32c1.1.22,2.22.36,3.34.49l1.12.17.51.1.56.14.59.17.47.17c.36.12.71.26,1.06.4l1.13.52c.34.17.67.35,1,.53l.79.47.88.56c.57.37,1.11.77,1.66,1.17s1,.8,1.54,1.23,1.12,1,1.67,1.46,1,.88,1.44,1.32c.28.26.56.52.83.79l.64.63c.4.43.8.87,1.18,1.32s.79.95,1.18,1.43c.74.93,1.45,1.88,2.18,2.82.33.44.69.86,1,1.29l-1.3-.43L78,47.17l-.71-.29c-.27-.13-.56-.24-.82-.38l-.81-.44c-.59-.34-1.16-.69-1.72-1.07s-1.16-.81-1.76-1.19-1.06-.66-1.61-1l-1.64-.89c-1.06-.55-2.12-1.09-3.21-1.6-2.1-1-4.26-1.85-6.33-2.93-1.11-.58-2.22-1.17-3.34-1.73s-2.21-1.09-3.3-1.66-2-1.09-3.06-1.62-2.15-1.09-3.21-1.66c-.7-.41-1.39-.82-2-1.28L44,29.19A6.06,6.06,0,0,0,44.64,29.35Zm22.14-2a5.11,5.11,0,0,1-.28-.46,15.41,15.41,0,0,1-.67-1.57c-.06-.18-.12-.35-.17-.54l-.12-.42,0-.14c0-.15-.09-.29-.13-.44s-.13-.43-.18-.64,0-.16,0-.24a.86.86,0,0,0-.06-.23l0-.1h0l0,0,.09.09.2.21c.07.09.15.18.22.28l.1.18a3.8,3.8,0,0,1,.19.43c0,.16.1.31.15.44s.09.25.14.37.09.21.13.32.13.31.19.47.08.25.11.38.08.53.11.79,0,.41.07.61l0,.29h0Zm9.46,1a1.28,1.28,0,0,0,.22.2l.11.08.16.12.08.07c.08.09.15.2.22.29l.08.11.16.23.15.22h0l.09.14,0,.06c.17.25.34.52.49.79a2.29,2.29,0,0,1,.1.23,1.21,1.21,0,0,1,.05.18l0,.15v.15s0,.08,0,.12l0,.12-.06.15L78,32c0,.07-.1.15-.16.22h0a2.73,2.73,0,0,1-.23.25c-.31.27-.65.51-1,.75l-.14.1a3.68,3.68,0,0,1-.4.25l-.26.11-.21.06-.25,0H75l-.38-.05a8.62,8.62,0,0,1-1-.29h0a7.81,7.81,0,0,1-.75-.3L72.62,33l-.3-.19h0l-.55-.36-.3-.19h0l0,0-.7-.49,0,0c-.23-.18-.47-.36-.69-.55l0,0,0,0,0,0-.37-.32a12,12,0,0,1-.88-.84,2.44,2.44,0,0,1-.26-.32,3.21,3.21,0,0,1-.19-.31L68.12,29c-.06-.19-.11-.39-.16-.6s-.08-.45-.12-.67l0-.23v0c-.06-.33-.12-.66-.16-1v-.16a5,5,0,0,0-.32-1.42l-.21-.45-.26-.54-.06-.14-.06-.13-.12-.26a3.18,3.18,0,0,0-.44-.64,4.17,4.17,0,0,0-.43-.41l-.14-.11-.08-.06h0l-.12-.1,0,0-.1-.09h.08l.42-.05a4.89,4.89,0,0,1,.48.2c.31.15.63.32,1,.53s.59.32.88.49.37.28.57.45l.58.5.09.09c.44.38.91.8,1.4,1.18l.28.22.42.33.1.09c.21.16.42.32.64.46s.51.31.78.45.55.27.84.39l.4.16.9.29.53.15L76,28h0A2.12,2.12,0,0,0,76.24,28.33ZM80.12,18c.26.28.51.58.75.87l.24.29.14.17c.28.32.56.66.82,1l.32.51.16.36c.06.18.12.38.18.59s.06.39.08.59a4.86,4.86,0,0,1,0,.54c0,.13,0,.26,0,.39v0l0,.07v.07c-.1.43-.2.81-.31,1.16l-.13.33-.22.39-.2.28c-.07.09-.14.17-.2.26l-.26.4-.11.18a1.3,1.3,0,0,1-.15.2,3.57,3.57,0,0,1-.27.28,3.35,3.35,0,0,1-.34.26l-.26.16a4.08,4.08,0,0,1-.42.18l-.33.1-.49.07c-.23,0-.47,0-.74,0s-.58-.05-.89-.1c-.75-.15-1.55-.36-2.45-.63l-.76-.28-.68-.3a10.26,10.26,0,0,1-1-.56c-.26-.18-.52-.37-.77-.57l-.35-.26-.36-.27c-.47-.36-.92-.74-1.37-1.13l-.05,0,0,0L69,23.06a5.46,5.46,0,0,0-.63-.46c-.22-.14-.46-.26-.72-.4l-.83-.44,0,0,0,0h0l.3-.08a7.28,7.28,0,0,0,.83-.28c.46-.18.92-.39,1.37-.59l.28-.13a4.39,4.39,0,0,0,.44-.21,3.79,3.79,0,0,0,.34-.2L70.6,20c.12-.09.23-.19.33-.28l0,0,.06-.06.59-.51.4-.32.24-.2.45-.38L73,18c.22-.18.45-.35.69-.52l.48-.3.34-.16.24-.09.05,0h0a7.12,7.12,0,0,1,.77-.21L76,16.6a4.69,4.69,0,0,1,.53,0h.07l.34,0,.4.07a8.65,8.65,0,0,1,1.06.27c.22.08.41.15.58.23l.43.25.25.18A5.54,5.54,0,0,1,80.12,18ZM72.78,9.42l.28-.12a5.36,5.36,0,0,1,.54-.14c.35-.06.68-.1,1-.14L75,9l.55,0,.54-.05.36,0a5.15,5.15,0,0,1,.57,0h.58a5.34,5.34,0,0,0,.6,0l.25,0,.32,0h.17a2,2,0,0,1,.32,0l.08,0,.24.09.12.07s.11.07.15.11h0l.15.15.13.17c.09.13.16.26.23.38s.18.39.25.57l0,.17a2.17,2.17,0,0,1,.07.24l0,.19,0,.18v.22a3.29,3.29,0,0,1,0,.44v0c0,.11,0,.22-.08.32v0l0,.08,0,.05h0v0h0v0a1.75,1.75,0,0,1-.11.24c-.07.14-.14.25-.2.37l-.29.39-.33.35c-.18.18-.35.36-.51.55l-.12.16,0,.07-.39.56a3.18,3.18,0,0,0-.16.32c0,.06,0,.11-.07.17l-.07.18,0,0h0l0,0-.06.06h0l0,0L78,16l-.1.05a1.17,1.17,0,0,0-.34.2l-.07.06h0l-.3,0a4.91,4.91,0,0,0-.87-.05,4.56,4.56,0,0,0-.93.12h-.07a3.45,3.45,0,0,0-.43.12l-.45.16a3,3,0,0,0-.41.19c-.14.08-.27.15-.4.24l-.14.11c-.2.14-.39.27-.58.43l-.3.26-.39.33-.63.49-.71.55c-.22.19-.46.38-.7.56l-.43.25c-.24.11-.48.22-.72.31l-.38.16c-.34.15-.69.29-1,.42s-.66.21-1,.28h0a.34.34,0,0,0-.33-.1h0a4.33,4.33,0,0,0,.51-.53l.22-.3c.1-.14.2-.29.3-.46s.19-.35.29-.56.21-.44.29-.65a5.14,5.14,0,0,0,.2-.59c0-.18.09-.37.13-.55s.07-.38.1-.56l0-.13,0-.28.15-.88c.14-.66.29-1.25.46-1.81v0a1.46,1.46,0,0,1,.07-.19l.05-.11,0-.11,0-.05.09-.17.07-.1.06-.11.51-.68c.1-.12.19-.25.29-.38l.25-.34c.16-.22.32-.44.5-.65l0-.05.44-.45L72,9.92A9.14,9.14,0,0,1,72.78,9.42ZM64.92,21.07v0c.06-.09.11-.18.17-.29s.11-.22.16-.33a2.37,2.37,0,0,0,.25-1.15c0-.29,0-.59-.07-.87s0-.28,0-.42c0-.31,0-.63-.05-.94s0-.6,0-.92c0-.14,0-.3,0-.46s0-.32.08-.48h0a2.46,2.46,0,0,1,.07-.29c.07-.34.15-.65.24-1s.17-.44.28-.68.29-.56.42-.77l.17-.24.17-.17a1.33,1.33,0,0,1,.19-.14l.32-.2.11-.06.12-.07.1-.06.43-.25h0l0,0,.25-.12.49-.25.3-.19.45-.26c.22-.1.42-.18.65-.26h0l.07,0,.25-.07h0a.46.46,0,0,1-.07.07l-.37.41-.38.46h0l-.38.46-.14.17a3.33,3.33,0,0,0-.25.28L69,12l-.16.19-.12.16a5,5,0,0,0-.35.54c-.08.16-.18.37-.27.59-.14.39-.26.79-.37,1.18v.05c-.1.33-.2.69-.29,1.1s-.19.81-.27,1.22a9.15,9.15,0,0,1-.3,1.1,14.42,14.42,0,0,1-.56,1.36c-.1.2-.21.4-.34.61a4,4,0,0,1-.27.37l0,.06-.14.14-.19.16-.29.19h0l0,0h0ZM38.59,14.88h0l.25-.39.25-.39c.16-.27.31-.55.44-.82s.12-.29.17-.42a.36.36,0,0,0,0-.11l.1-.28.37-1.27.15-.53,0-.06,0-.07c.06-.22.12-.43.19-.64l0-.12.08-.23a.14.14,0,0,1,0-.06l.07-.21A2,2,0,0,0,40.9,9c.12-.3.24-.56.35-.8a6.55,6.55,0,0,1,.33-.65h0l.1-.17A5.07,5.07,0,0,1,42,6.85h0v0h0l.12-.16c.09-.12.19-.23.29-.34l.32-.29c.15-.12.3-.22.45-.32a12.51,12.51,0,0,1,1.27-.63L44.79,5l.12,0c.11-.05.23-.08.34-.12l.34-.12h0c.23-.07.47-.12.72-.17a9.31,9.31,0,0,1,1-.08h2.84l.29,0,.7,0h.21l1.22.11.62,0,.65,0h.28l.59,0h.2l.5,0,.36,0H56l.48,0,.33,0L57,5h0l-.05,0-.44.35h0l-.31.26L55.83,6c-.2.2-.41.41-.63.66s-.21.24-.31.36l-.25.29L54,8h0l0,0,0,0-.05,0h0l-.07.08,0,0-.17.17-.21.22h0l-.28.3-.1.1-.58.65-.14.16-.49.56-.62.69-.57.63-.61.67-.17.2-.39.42,0,0h0l0,0,0,0h0l0,0,0,0-.07.07h0l0,0a3.89,3.89,0,0,1-.43.38l-.32.23-.31.21-.14.08-.36.2-.5.25-.34.14-.3.11h0c-.23.07-.43.12-.62.16a6.18,6.18,0,0,1-.62.12h0l-1.18.16-.42,0h-.1l-.66.08h-.15l-.26,0h-.42l-.91,0H39.81l.22-.07.14,0,.1,0h0l.17,0,.09,0,.09,0a5.78,5.78,0,0,0,1-.34,5.73,5.73,0,0,0,.75-.45l.23-.15c.22-.15.45-.28.67-.42.38-.23.77-.47,1.13-.73l.32-.24.32-.24.28-.2c.32-.24.65-.47.9-.64l.66-.45.29-.19.31-.22c.24-.16.48-.33.73-.48a6,6,0,0,1,.56-.3l.58-.27.06,0,.45-.19-.22,0-1,.18a5,5,0,0,0-1.35.53c-.28.16-.55.34-.82.51l-.17.1-.94.6-.9.6,0,0L44,12.5l-.47.29-.52.28-.55.3-.39.24c-.19.11-.39.23-.59.33a4.61,4.61,0,0,1-.47.17l-.44.12-.57.16h0c-.24.07-.51.15-.77.25s-.45.18-.64.26h0ZM26.5,32.33c0,.27.08.53.13.77l.06.27,0,.15.06.28,0,.15.06.5c0,.12,0,.25,0,.37v.84c0,.24,0,.46,0,.69,0,.08,0,.17-.05.26a1.42,1.42,0,0,1-.07.22,1.22,1.22,0,0,1-.07.17l-.09.13v0l-.08.08-.08.08-.09.06-.09.05-.09,0-.09,0h-.19l-.11,0-.14,0,0,0-.08,0,0,0-.08-.09-.1-.15-.11-.21-.11-.3c0-.07,0-.14,0-.21a1.94,1.94,0,0,1,0-.24,2.26,2.26,0,0,1,0-.26c0-.19.07-.36.1-.5s.11-.4.17-.58l0-.09,0-.1c0-.09.09-.19.14-.28l0-.06c.1-.18.2-.34.29-.48l.06-.08a4.87,4.87,0,0,0,.27-.45,3.6,3.6,0,0,0,.33-.92h0Zm12.87,28a5.08,5.08,0,0,1-.38-.43l-.31-.43-.36-.53c-.29-.44-.61-.89-.94-1.33l-.12-.17-.39-.53c-.09-.12-.18-.24-.26-.37l-.15-.21-.07-.12,0,0,0-.07-.12-.2v0a8.65,8.65,0,0,1-.51-1c-.11-.27-.2-.47-.27-.66s-.14-.43-.21-.64v0c0-.2-.11-.39-.15-.59l0-.11c0-.08,0-.15,0-.22L35,52.32,34.9,52c0-.06,0-.13,0-.2v-.12c0-.18,0-.36,0-.54v-1l0-.71c0-.32,0-.63,0-1v-1h0l0,0,0,.06c.06.15.12.31.19.47l.12.27c.12.25.24.48.35.68s.17.29.26.43.17.29.27.42.38.53.57.78l.08.1c.22.29.42.56.6.84.09.13.17.26.25.39l.15.23.15.23c.15.23.31.45.48.67l.13.18c.4.5.82,1,1.23,1.43l.52.59L40,54.78c-.22-.39-.44-.8-.68-1.19l-.1-.16L39,53c-.1-.15-.19-.31-.28-.46l-.52-.84,0,0c-.16-.27-.36-.58-.58-.88l-.33-.46-.27-.37c-.22-.31-.42-.6-.58-.87l0-.09-.22-.41-.21-.44,0-.06,0,0c-.09-.23-.18-.46-.26-.7s-.07-.21-.1-.31-.11-.33-.16-.5c-.22-.69-.43-1.31-.66-1.91l-.18-.46a2,2,0,0,1-.08-.22c0-.11-.09-.23-.14-.34s-.11-.3-.16-.46h0l0,0,.24.23a14.18,14.18,0,0,0,1.27,1l0,0,0,0h.07l0,0h0c.18.14.38.28.6.43l.71.48.63.4c.2.14.41.27.62.4l.79.51.62.39.49.3.88.56c.16.13.32.25.46.38s.23.19.34.29l.1.09.3.27.51.47.36.36.33.38h0l.1.13.12.17.08.11c.09.13.17.27.27.42v0h0l.09.16c.17.29.33.59.49.89s.21.39.3.58.13.27.19.41l0,.09h0c.16.39.33.78.5,1.2q.14.33.24.63c.07.19.14.38.19.56s.11.41.17.61c.15.54.31,1.09.47,1.63l0,.07.21.74c0,.12,0,.23.08.36s0,.26.08.41.07.51.09.75,0,.44,0,.66h0v0h0v0h0a14.59,14.59,0,0,1-.06,1.88V63h0v0c0,.29-.07.59-.11.88v.08l0,.24,0,.25v.08a.28.28,0,0,1,0,.09h0l-.06,0-.06,0-.19-.09-.19-.09-.42-.2L45.75,64l-1.23-.63-.22-.12-.61-.31-.85-.45h0l-.09-.05-.1,0,0,0-1.45-.83-.7-.42-.38-.23-.25-.18-.07-.05A4.24,4.24,0,0,1,39.37,60.29Z" transform="translate(-4.05)"/><path class="cls-1" d="M76.93,39.65h0Z" transform="translate(-4.05)"/></svg>