<svg id="Layer_1" data-name="Layer 1" xmlns="http://www.w3.org/2000/svg" viewBox="0 0 80.7 84.34"><path d="M87.87,30.47c-.16-.38-.3-.75-.43-1.12l-.17-.46a35.86,35.86,0,0,1-1.13-3.75c-.2-.76-.4-1.52-.63-2.28-1.59-5.16-5.5-7.69-8.74-9.32l-.45-.21c1.22-4.65,7.11-5.61,7.39-5.66l-.23-1.53-.22-1.53c-3,.44-8.28,2.56-9.82,7.52-7.16-2-15.11,3.94-18.33,6.73a.51.51,0,0,0,.23.9A16.25,16.25,0,0,0,67.43,18a.5.5,0,0,1,.56,0,.51.51,0,0,1,.25.49c-.22,2.16-2.66,3.87-4.66,4.92a.52.52,0,0,0,.22,1c6.54.16,9-2.95,9.14-3.09a.52.52,0,0,1,.56-.18.5.5,0,0,1,.37.44c.45,5.1,2.3,7.61,3.78,8.81a.52.52,0,0,0,.82-.57,8.84,8.84,0,0,1,.58-6.52.52.52,0,0,1,1,.28h0c-.25,3.7,4.37,6.38,7.15,7.64a.54.54,0,0,0,.22.05.47.47,0,0,0,.35-.15.52.52,0,0,0,.12-.57Z" transform="translate(-7.2 -4.61)" style="fill:#c11010"/><path d="M79.93,27a5.63,5.63,0,0,0,1.69,4.07,1,1,0,0,1,.2,1.16,1,1,0,0,1-1,.6c-.28,0-6.35-.57-7.92-9.6-2,1.39-6.07,3.11-13,1.81a1,1,0,0,1-.13-2,20.37,20.37,0,0,0,5.16-2.5,18.72,18.72,0,0,1-8.07.62,34.59,34.59,0,0,0-5.12,7.4c-1.85,3.86-2.64,7.93-3.48,12.24-.26,1.33-.52,2.66-.81,4a63,63,0,0,1-4.71,14.37,50.72,50.72,0,0,1-13.27,16.9A53.75,53.75,0,0,1,8.16,86.5c-.5.33-1,.85-1,1.07s.2.38,1,.73c1.94.89,4.76.67,7.25.47.52,0,1-.08,1.5-.1,25.1-1.44,46.62-13.46,59-33l.43-.68c3.68-5.77,8.25-13,8.13-19.7,0-1.54-.11-3-.21-4.46A13.64,13.64,0,0,1,79.93,27Zm-29,26.36L50.8,54a1,1,0,0,1-1,.79,1.15,1.15,0,0,1-.26,0,1,1,0,0,1-.75-1.26l.15-.58a1,1,0,1,1,2,.49Zm7-23.7c-.06.08-4.21,5-5.87,19.8a1,1,0,0,1-1,.92h-.12A1,1,0,0,1,50,49.24c1.76-15.59,6.19-20.72,6.38-20.94a1,1,0,0,1,1.46-.08,1,1,0,0,1,.09,1.45Z" transform="translate(-7.2 -4.61)" style="fill:#c11010"/></svg>