<svg id="Layer_1" data-name="Layer 1" xmlns="http://www.w3.org/2000/svg" viewBox="0 0 35.62 35.62"><path d="M27.24,6.36a2.09,2.09,0,1,0,2.09,2.09,2.1,2.1,0,0,0-2.09-2.09Z" transform="translate(0 0)" style="fill:#fff"/><path d="M18,9a8.77,8.77,0,1,0,8.77,8.77h0A8.79,8.79,0,0,0,18,9Zm0,14.39a5.62,5.62,0,1,1,5.62-5.62A5.62,5.62,0,0,1,18,23.43Z" transform="translate(0 0)" style="fill:#fff"/><path d="M24.92,35.62H10.7A10.71,10.71,0,0,1,0,24.92V10.7A10.71,10.71,0,0,1,10.7,0H24.92a10.71,10.71,0,0,1,10.7,10.7V24.92A10.71,10.71,0,0,1,24.92,35.62ZM10.7,3.35A7.36,7.36,0,0,0,3.35,10.7V24.92a7.36,7.36,0,0,0,7.35,7.35H24.92a7.36,7.36,0,0,0,7.35-7.35V10.7a7.36,7.36,0,0,0-7.35-7.35Z" transform="translate(0 0)" style="fill:#fff"/></svg>