<svg id="Layer_1" data-name="Layer 1" xmlns="http://www.w3.org/2000/svg" viewBox="0 0 35.63 35.63"><defs><style>.cls-1{fill:#010101;}</style></defs><path class="cls-1" d="M32.43,8.55a2.09,2.09,0,1,0,2.09,2.09A2.09,2.09,0,0,0,32.43,8.55Z" transform="translate(-5.19 -2.19)"/><path class="cls-1" d="M23.15,11.23A8.77,8.77,0,1,0,31.92,20,8.78,8.78,0,0,0,23.15,11.23Zm0,14.39A5.62,5.62,0,1,1,28.77,20,5.62,5.62,0,0,1,23.15,25.62Z" transform="translate(-5.19 -2.19)"/><path class="cls-1" d="M30.11,37.81H15.89a10.71,10.71,0,0,1-10.7-10.7V12.89a10.71,10.71,0,0,1,10.7-10.7H30.11a10.71,10.71,0,0,1,10.7,10.7V27.11A10.71,10.71,0,0,1,30.11,37.81ZM15.89,5.54a7.36,7.36,0,0,0-7.35,7.35V27.11a7.36,7.36,0,0,0,7.35,7.35H30.11a7.36,7.36,0,0,0,7.35-7.35V12.89a7.36,7.36,0,0,0-7.35-7.35Z" transform="translate(-5.19 -2.19)"/></svg>