<svg id="Layer_1" data-name="Layer 1" xmlns="http://www.w3.org/2000/svg" viewBox="0 0 140.46 152.05"><path d="M145.66,123.42l-.85-1.69c-2.36-5.58-31.45-14-33.81-14.2l-1.86.16c-3.56.68-7.44,3.89-15,10.49a4.59,4.59,0,0,1-5.41.67c-10-5.58-22.15-16.74-28.24-23.5-6.6-7.27-14.54-19.28-18.26-28.91a5.08,5.08,0,0,1,1.35-5.25c8.62-7.77,12.34-11.49,12.68-15.55.17-2.37-4.9-32.3-10.14-35.17l-1.53-1c-3.38-2.19-8.45-5.41-14-4.22a15.43,15.43,0,0,0-3.89,1.52c-3.72,2.37-13,8.79-17.24,17.08-2.54,5.24-3.72,52.75,31.78,92.83,35.17,39.73,78.63,41.42,85.05,40.07h.17l.51-.17c8.79-3.21,16.23-11.5,19.11-15.05,5.24-6.25,1.69-13.86-.34-18.09Z" transform="translate(-8.27 -4.97)" style="fill:#fff"/></svg>