<svg id="Layer_1" data-name="Layer 1" xmlns="http://www.w3.org/2000/svg" viewBox="0 0 140.46 152.05"><path d="M137.39,118.45l-.85-1.69c-2.36-5.58-31.45-14-33.81-14.2l-1.86.16c-3.56.68-7.44,3.89-15,10.49a4.58,4.58,0,0,1-5.41.67c-10-5.58-22.15-16.74-28.24-23.5C45.62,83.11,37.68,71.1,34,61.47a5.09,5.09,0,0,1,1.35-5.25C43.93,48.45,47.65,44.73,48,40.67c.17-2.37-4.9-32.3-10.14-35.17l-1.53-1c-3.38-2.19-8.45-5.41-14-4.22A15.49,15.49,0,0,0,18.43,1.8c-3.72,2.37-13,8.79-17.24,17.08C-1.35,24.12-2.53,71.63,33,111.71c35.17,39.73,78.63,41.42,85.05,40.07h.17l.51-.17c8.79-3.21,16.23-11.5,19.11-15.05,5.24-6.25,1.69-13.86-.34-18.09Z" transform="translate(-0.08 -0.02)"/></svg>